<svg preserveAspectRatio="none" overflow="visible" style="display: block;" width="100.305" height="92.6622" viewBox="0 0 100.305 92.6622" fill="none" xmlns="http://www.w3.org/2000/svg">
<g id="Group 1000002654">
<path id="Vector 5" d="M24.9205 0.0483703C20.9205 25.1764 30.3974 75.4326 100.305 75.4326" stroke="#B58063" stroke-opacity="0.2" stroke-width="0.615381"/>
<path id="Vector 6" d="M1.08458 16.9702C-2.9154 42.0983 6.56148 92.3545 76.4688 92.3545" stroke="#B58063" stroke-opacity="0.2" stroke-width="0.615381"/>
<path id="Vector 5 - Vector 6 - 91" d="M22.7565 1.58743C18.7565 26.7155 28.2334 76.9716 98.1407 76.9716" stroke="#B58063" stroke-opacity="0.2" stroke-width="0.615381"/>
<path id="Vector 5 - Vector 6 - 182" d="M20.5885 3.1265C16.5885 28.2546 26.0654 78.5107 95.9727 78.5107" stroke="#B58063" stroke-opacity="0.2" stroke-width="0.615381"/>
<path id="Vector 5 - Vector 6 - 273" d="M18.4205 4.66556C14.4205 29.7936 23.8974 80.0498 93.8047 80.0498" stroke="#B58063" stroke-opacity="0.2" stroke-width="0.615381"/>
<path id="Vector 5 - Vector 6 - 364" d="M16.2565 6.20462C12.2565 31.3327 21.7334 81.5888 91.6407 81.5888" stroke="#B58063" stroke-opacity="0.2" stroke-width="0.615381"/>
<path id="Vector 5 - Vector 6 - 455" d="M14.0885 7.74368C10.0885 32.8718 19.5654 83.1279 89.4727 83.1279" stroke="#B58063" stroke-opacity="0.2" stroke-width="0.615381"/>
<path id="Vector 5 - Vector 6 - 545" d="M11.9205 9.28275C7.92054 34.4108 17.3974 84.667 87.3047 84.667" stroke="#B58063" stroke-opacity="0.2" stroke-width="0.615381"/>
<path id="Vector 5 - Vector 6 - 636" d="M9.75255 10.814C5.75257 35.9421 15.2294 86.1982 85.1368 86.1982" stroke="#B58063" stroke-opacity="0.2" stroke-width="0.615381"/>
<path id="Vector 5 - Vector 6 - 727" d="M7.58458 12.3609C3.5846 37.4889 13.0615 87.7451 82.9688 87.7451" stroke="#B58063" stroke-opacity="0.2" stroke-width="0.615381"/>
<path id="Vector 5 - Vector 6 - 818" d="M5.42052 13.8921C1.42054 39.0202 10.8974 89.2763 80.8047 89.2763" stroke="#B58063" stroke-opacity="0.2" stroke-width="0.615381"/>
<path id="Vector 5 - Vector 6 - 909" d="M3.25255 15.439C-0.747428 40.5671 8.72944 90.8232 78.6368 90.8232" stroke="#B58063" stroke-opacity="0.2" stroke-width="0.615381"/>
</g>
</svg>
