<svg preserveAspectRatio="none" width="100%" height="100%" overflow="visible" style="display: block;" viewBox="0 0 14 14" fill="none" xmlns="http://www.w3.org/2000/svg">
<g id="currency-circle-dollar">
<path id="Vector" d="M7 1.3125C5.87512 1.3125 4.7755 1.64607 3.84019 2.27102C2.90489 2.89597 2.17591 3.78423 1.74544 4.82349C1.31496 5.86274 1.20233 7.00631 1.42178 8.10958C1.64124 9.21284 2.18292 10.2263 2.97833 11.0217C3.77374 11.8171 4.78716 12.3588 5.89042 12.5782C6.99369 12.7977 8.13726 12.685 9.17651 12.2546C10.2158 11.8241 11.104 11.0951 11.729 10.1598C12.3539 9.2245 12.6875 8.12488 12.6875 7C12.6859 5.49207 12.0862 4.04636 11.0199 2.98009C9.95364 1.91382 8.50793 1.31409 7 1.3125ZM7 11.8125C6.04818 11.8125 5.11773 11.5303 4.32632 11.0014C3.53491 10.4726 2.91808 9.72103 2.55383 8.84166C2.18958 7.96229 2.09428 6.99466 2.27997 6.06113C2.46566 5.12759 2.92401 4.27009 3.59705 3.59705C4.27009 2.92401 5.12759 2.46566 6.06113 2.27997C6.99466 2.09428 7.96229 2.18958 8.84166 2.55383C9.72103 2.91808 10.4726 3.53491 11.0014 4.32632C11.5303 5.11773 11.8125 6.04818 11.8125 7C11.8111 8.27591 11.3036 9.49915 10.4014 10.4014C9.49915 11.3036 8.27591 11.8111 7 11.8125ZM9.1875 8.09375C9.1875 8.49986 9.02617 8.88934 8.73901 9.17651C8.45184 9.46367 8.06236 9.625 7.65625 9.625H7.4375V10.0625C7.4375 10.1785 7.39141 10.2898 7.30936 10.3719C7.22731 10.4539 7.11603 10.5 7 10.5C6.88397 10.5 6.77269 10.4539 6.69064 10.3719C6.60859 10.2898 6.5625 10.1785 6.5625 10.0625V9.625H5.6875C5.57147 9.625 5.46019 9.57891 5.37814 9.49686C5.29609 9.41481 5.25 9.30353 5.25 9.1875C5.25 9.07147 5.29609 8.96019 5.37814 8.87814C5.46019 8.79609 5.57147 8.75 5.6875 8.75H7.65625C7.8303 8.75 7.99722 8.68086 8.12029 8.55779C8.24336 8.43472 8.3125 8.2678 8.3125 8.09375C8.3125 7.9197 8.24336 7.75278 8.12029 7.62971C7.99722 7.50664 7.8303 7.4375 7.65625 7.4375H6.34375C5.93764 7.4375 5.54816 7.27617 5.26099 6.98901C4.97383 6.70184 4.8125 6.31236 4.8125 5.90625C4.8125 5.50014 4.97383 5.11066 5.26099 4.82349C5.54816 4.53633 5.93764 4.375 6.34375 4.375H6.5625V3.9375C6.5625 3.82147 6.60859 3.71019 6.69064 3.62814C6.77269 3.54609 6.88397 3.5 7 3.5C7.11603 3.5 7.22731 3.54609 7.30936 3.62814C7.39141 3.71019 7.4375 3.82147 7.4375 3.9375V4.375H8.3125C8.42853 4.375 8.53981 4.42109 8.62186 4.50314C8.70391 4.58519 8.75 4.69647 8.75 4.8125C8.75 4.92853 8.70391 5.03981 8.62186 5.12186C8.53981 5.20391 8.42853 5.25 8.3125 5.25H6.34375C6.1697 5.25 6.00278 5.31914 5.87971 5.44221C5.75664 5.56528 5.6875 5.7322 5.6875 5.90625C5.6875 6.0803 5.75664 6.24722 5.87971 6.37029C6.00278 6.49336 6.1697 6.5625 6.34375 6.5625H7.65625C8.06236 6.5625 8.45184 6.72383 8.73901 7.01099C9.02617 7.29816 9.1875 7.68764 9.1875 8.09375Z" fill="var(--fill-0, #0A6EE7)"/>
</g>
</svg>
