<svg preserveAspectRatio="none" width="100%" height="100%" overflow="visible" style="display: block;" viewBox="0 0 10.3937 3.42831" fill="none" xmlns="http://www.w3.org/2000/svg">
<g id="Group" opacity="0.5">
<path id="Vector" opacity="0.2" d="M0.184747 3.26975C0.283455 3.34183 0.448084 3.34959 0.575416 3.28823C0.563533 3.36327 0.682799 3.39534 0.774134 3.37609C0.865556 3.35677 0.954463 3.30967 1.04536 3.31406C1.10478 3.31693 1.15717 3.34199 1.21685 3.34318C1.27652 3.34427 1.35181 3.3019 1.33837 3.25574C1.39249 3.33491 1.53405 3.34233 1.64889 3.31093C1.76373 3.27954 1.86764 3.2191 1.98223 3.18678C2.07113 3.16162 2.16733 3.15293 2.24678 3.10913C2.32623 3.06532 2.3748 2.96505 2.30984 2.91947C2.37428 2.94302 2.45174 2.89356 2.50734 2.84858C2.67769 2.71066 2.84814 2.57266 3.01849 2.43475C3.00036 2.41246 2.98215 2.39027 2.96402 2.36798C3.14339 2.25277 3.20099 2.04447 3.14331 1.88132C3.12943 1.84215 3.11 1.80485 3.09057 1.76771C3.05917 1.70753 3.02777 1.64744 2.99637 1.58726C2.96992 1.5367 2.94155 1.48395 2.88691 1.45272C2.83226 1.42141 2.74301 1.42039 2.69365 1.46622C2.64352 1.39684 2.5743 1.32957 2.4736 1.31615C2.37298 1.30265 2.2427 1.37144 2.24782 1.45534C2.19829 1.3733 2.05569 1.34409 1.94796 1.39397C1.84032 1.44394 1.78681 1.56396 1.83564 1.64642C1.77674 1.52235 1.49797 1.55113 1.44228 1.68702C1.39535 1.62853 1.27973 1.61865 1.20392 1.66651C1.1282 1.71445 1.10747 1.81059 1.16133 1.86469C1.08101 1.82991 0.965045 1.8495 0.895655 1.90959C0.826177 1.96969 0.810131 2.0643 0.858878 2.12642C0.706912 2.10203 0.542716 2.27143 0.612801 2.38039C0.439497 2.33456 0.214845 2.50176 0.252749 2.64803C0.120387 2.53789 0.0384192 3.16289 0.184747 3.26975Z" fill="url(#paint0_linear_0_531)"/>
<path id="Vector_2" opacity="0.2" d="M0.141784 3.12521C0.240492 3.19721 0.405122 3.20506 0.532454 3.1437C0.52057 3.21873 0.639836 3.25081 0.731171 3.23148C0.822594 3.21215 0.9115 3.16505 1.0024 3.16953C1.06182 3.1724 1.11421 3.19746 1.17388 3.19865C1.23356 3.19974 1.30885 3.15737 1.2954 3.1112C1.34953 3.19037 1.49109 3.1978 1.60593 3.1664C1.72077 3.13501 1.82468 3.07457 1.93926 3.04225C2.02817 3.0171 2.12436 3.0084 2.20382 2.9646C2.28327 2.92079 2.33184 2.82044 2.26679 2.77494C2.33123 2.79849 2.40869 2.74903 2.46429 2.70404C2.63465 2.56613 2.805 2.42813 2.97544 2.29022C2.95731 2.26794 2.9391 2.24574 2.92097 2.22345C3.10026 2.10824 3.15794 1.89994 3.10017 1.73679C3.08629 1.69762 3.06686 1.66032 3.04743 1.62318C3.01603 1.563 2.98463 1.50291 2.95324 1.44273C2.92687 1.39217 2.89842 1.3395 2.84377 1.30819C2.78913 1.27687 2.69987 1.27595 2.65052 1.32169C2.60038 1.25231 2.53117 1.18504 2.43046 1.17162C2.32985 1.15812 2.19965 1.22691 2.20468 1.31081C2.15516 1.22877 2.01256 1.19956 1.90483 1.24944C1.79719 1.29932 1.74367 1.41943 1.7925 1.50189C1.73361 1.37782 1.45483 1.4066 1.39914 1.54249C1.35222 1.484 1.2366 1.47412 1.16087 1.52198C1.08515 1.56992 1.06442 1.66606 1.11828 1.72016C1.03797 1.68539 0.921995 1.70497 0.852605 1.76506C0.783214 1.82516 0.767081 1.91977 0.815828 1.98189C0.663862 1.9575 0.499666 2.1269 0.569751 2.23586C0.396448 2.19003 0.171795 2.35723 0.2097 2.5035C0.0773371 2.39344 -0.00463073 3.01844 0.141784 3.12521Z" fill="url(#paint1_linear_0_531)"/>
<path id="Vector_3" opacity="0.2" d="M0.0776973 2.9144C0.176406 2.9864 0.341035 2.99425 0.468367 2.93289C0.456484 3.00792 0.575749 3.03999 0.667085 3.02067C0.75842 3.00134 0.847414 2.95424 0.938316 2.95872C0.997731 2.96159 1.05012 2.98665 1.1098 2.98783C1.16947 2.98901 1.24476 2.94656 1.23132 2.90039C1.28544 2.97956 1.427 2.98699 1.54184 2.95559C1.65668 2.92419 1.7606 2.86376 1.87518 2.83143C1.96408 2.80628 2.06028 2.79759 2.13973 2.75378C2.21918 2.70998 2.26775 2.60962 2.2027 2.56413C2.26715 2.58768 2.34461 2.53822 2.4002 2.49323C2.57056 2.35532 2.74091 2.21732 2.91135 2.0794C2.89323 2.05712 2.87501 2.03484 2.85688 2.01264C3.03617 1.89743 3.09385 1.68913 3.03608 1.52597C3.02221 1.48681 3.00278 1.4495 2.98335 1.41237C2.95195 1.35219 2.92055 1.29209 2.88915 1.23191C2.86278 1.18136 2.83433 1.12869 2.77968 1.09738C2.72513 1.06606 2.63579 1.06513 2.58643 1.11088C2.5363 1.0415 2.46708 0.974315 2.36638 0.960726C2.26576 0.947222 2.13557 1.01601 2.1406 1.09991C2.09107 1.01787 1.94847 0.988666 1.84074 1.03855C1.7331 1.08843 1.67958 1.20854 1.72842 1.291C1.66952 1.16692 1.39074 1.19571 1.33506 1.33159C1.28813 1.2731 1.17251 1.26323 1.0967 1.31108C1.02098 1.35902 1.00025 1.45516 1.05411 1.50926C0.973792 1.47449 0.857822 1.49407 0.788432 1.55416C0.718954 1.61426 0.702908 1.70887 0.751655 1.771C0.599689 1.7466 0.435493 1.916 0.505578 2.02496C0.332361 1.97913 0.107622 2.14633 0.145526 2.2926C0.0133372 2.18263 -0.0686304 2.80763 0.0776973 2.9144Z" fill="url(#paint2_linear_0_531)"/>
<path id="Vector_4" opacity="0.2" d="M0.639104 2.69349C0.737813 2.76548 0.902442 2.77333 1.02977 2.71197C1.01789 2.787 1.13716 2.81908 1.22849 2.79975C1.31991 2.78042 1.40882 2.73332 1.49972 2.7378C1.55914 2.74067 1.61153 2.76574 1.6712 2.76692C1.73088 2.7681 1.80617 2.72565 1.79273 2.67948C1.84685 2.75865 1.98841 2.76616 2.10325 2.73476C2.21809 2.70336 2.322 2.64293 2.43658 2.6106C2.52549 2.58545 2.62168 2.57676 2.70114 2.53295C2.78059 2.48915 2.82916 2.38888 2.76419 2.3433C2.82864 2.36685 2.9061 2.31739 2.9617 2.2724C3.13205 2.13449 3.30241 1.99649 3.47285 1.85857C3.45472 1.83629 3.4365 1.81409 3.41838 1.79181C3.59775 1.6766 3.65543 1.46829 3.59766 1.30514C3.58379 1.26598 3.56436 1.22867 3.54493 1.19154C3.51353 1.13136 3.48213 1.07126 3.45073 1.01108C3.42427 0.960526 3.39591 0.907857 3.34127 0.876543C3.28671 0.84523 3.19737 0.844217 3.14801 0.890048C3.09788 0.820669 3.02866 0.753401 2.92796 0.739981C2.82734 0.726476 2.69715 0.795348 2.70218 0.87916C2.65265 0.79712 2.51005 0.767918 2.40232 0.8178C2.29459 0.867682 2.24116 0.987787 2.29 1.07025C2.2311 0.946177 1.95232 0.974957 1.89664 1.11085C1.84971 1.05235 1.73409 1.04248 1.65837 1.09034C1.58264 1.13819 1.56191 1.23441 1.61578 1.28852C1.53546 1.25374 1.41949 1.27332 1.3501 1.33342C1.28062 1.39351 1.26458 1.48813 1.31332 1.55025C1.16136 1.52586 0.99716 1.69525 1.06725 1.80413C0.893942 1.75839 0.66929 1.9255 0.707194 2.07177C0.574745 1.96163 0.492777 2.58672 0.639104 2.69349Z" fill="url(#paint3_linear_0_531)"/>
<path id="Vector_5" opacity="0.2" d="M0.595056 2.86553C0.693764 2.93753 0.858394 2.94538 0.985726 2.88402C0.973842 2.95905 1.09311 2.99113 1.18444 2.9718C1.27578 2.95247 1.36477 2.90537 1.45567 2.90976C1.51509 2.91263 1.56748 2.9377 1.62716 2.93888C1.68683 2.94006 1.76212 2.8976 1.74868 2.85144C1.8028 2.93061 1.94436 2.93803 2.0592 2.90672C2.17404 2.87532 2.27795 2.81489 2.39254 2.78257C2.48144 2.75741 2.57763 2.74872 2.65709 2.70491C2.73654 2.66111 2.78511 2.56084 2.72015 2.51526C2.78459 2.53881 2.86205 2.48935 2.91765 2.44436C3.088 2.30645 3.25844 2.16845 3.4288 2.03053C3.41067 2.00825 3.39246 1.98605 3.37433 1.96377C3.55362 1.84856 3.6113 1.64025 3.55353 1.4771C3.53965 1.43794 3.52022 1.40063 3.50079 1.3635C3.46939 1.30332 3.43799 1.24322 3.40659 1.18304C3.38023 1.13249 3.35178 1.07982 3.29713 1.0485C3.24248 1.01719 3.15323 1.01618 3.10388 1.06201C3.05374 0.99263 2.98452 0.925362 2.88382 0.911857C2.7832 0.898353 2.65301 0.96714 2.65804 1.05104C2.60851 0.968997 2.46592 0.939795 2.35819 0.989677C2.25054 1.03956 2.19703 1.15966 2.24586 1.24204C2.18697 1.11797 1.90819 1.14675 1.8525 1.28264C1.80558 1.22415 1.68995 1.21427 1.61423 1.26213C1.53851 1.31007 1.51778 1.4062 1.57164 1.46031C1.49132 1.42553 1.37535 1.44512 1.30596 1.50521C1.23649 1.56531 1.22044 1.65992 1.26919 1.72204C1.11722 1.69765 0.953025 1.86705 1.02311 1.97601C0.849807 1.93026 0.625154 2.09738 0.663059 2.24365C0.530696 2.13376 0.448728 2.75876 0.595056 2.86553Z" fill="url(#paint4_linear_0_531)"/>
<path id="Vector_6" opacity="0.2" d="M0.520311 3.018C0.619019 3.09008 0.783648 3.09784 0.91098 3.03648C0.899097 3.11152 1.01836 3.14359 1.1097 3.12426C1.20112 3.10493 1.29003 3.05784 1.38093 3.06231C1.44026 3.06518 1.49265 3.09025 1.55241 3.09143C1.61209 3.09261 1.68738 3.05015 1.67393 3.00399C1.72806 3.08316 1.86961 3.09067 1.98445 3.05927C2.0993 3.02787 2.20321 2.96744 2.31779 2.93503C2.4067 2.90988 2.50289 2.90118 2.58234 2.85738C2.66179 2.81357 2.71037 2.7133 2.64531 2.66772C2.70976 2.69127 2.78722 2.64181 2.84282 2.59683C3.01317 2.45891 3.18353 2.32091 3.35397 2.183C3.33584 2.16072 3.31762 2.13852 3.2995 2.11623C3.47878 2.00102 3.53646 1.79272 3.4787 1.62957C3.46482 1.59041 3.44539 1.5531 3.42596 1.51596C3.39456 1.45578 3.36316 1.39569 3.33176 1.33551C3.30539 1.28495 3.27694 1.2322 3.2223 1.20097C3.16765 1.16966 3.0784 1.16873 3.02904 1.21447C2.97882 1.1451 2.90969 1.07782 2.80899 1.0644C2.70829 1.0509 2.57818 1.11969 2.58321 1.20359C2.53368 1.12155 2.391 1.09234 2.28335 1.14222C2.17571 1.19211 2.12228 1.31221 2.17103 1.39459C2.11213 1.27052 1.83336 1.2993 1.77767 1.43519C1.73074 1.3767 1.61512 1.36682 1.5394 1.41468C1.46368 1.46262 1.44295 1.55875 1.49681 1.61286C1.41649 1.57808 1.30052 1.59766 1.23113 1.65776C1.16165 1.71785 1.14561 1.81247 1.19435 1.87459C1.04239 1.8502 0.878193 2.01959 0.948278 2.12856C0.774975 2.08281 0.550322 2.24993 0.588227 2.3962C0.455951 2.28614 0.373896 2.91114 0.520311 3.018Z" fill="url(#paint5_linear_0_531)"/>
<path id="Vector_7" opacity="0.2" d="M0.553056 3.12335C0.651764 3.19534 0.816481 3.20319 0.943726 3.14183C0.931843 3.21686 1.05111 3.24894 1.14244 3.22969C1.23387 3.21037 1.32277 3.16327 1.41367 3.16766C1.47309 3.17053 1.52539 3.19559 1.58516 3.19678C1.64483 3.19796 1.72012 3.1555 1.70668 3.10933C1.7608 3.1885 1.90236 3.19593 2.0172 3.16454C2.13204 3.13314 2.23595 3.0727 2.35054 3.04038C2.43944 3.01523 2.53564 3.00653 2.61509 2.96273C2.69454 2.91892 2.74311 2.81865 2.67815 2.77307C2.74259 2.79662 2.82005 2.74716 2.87556 2.70218C3.04592 2.56426 3.21627 2.42626 3.38671 2.28835C3.36858 2.26606 3.35037 2.24387 3.33224 2.22159C3.51153 2.10638 3.56921 1.89807 3.51144 1.73492C3.49756 1.69575 3.47814 1.65845 3.45871 1.62131C3.42731 1.56113 3.39591 1.50104 3.36451 1.44086C3.33814 1.3903 3.30969 1.33755 3.25504 1.30632C3.2004 1.275 3.11115 1.27399 3.06179 1.31982C3.01166 1.25044 2.94244 1.18317 2.84174 1.16967C2.74103 1.15617 2.61092 1.22495 2.61596 1.30885C2.56643 1.22681 2.42383 1.19761 2.3161 1.24749C2.20846 1.29737 2.15503 1.41748 2.20377 1.49994C2.14488 1.37587 1.8661 1.40465 1.81042 1.54054C1.76349 1.48213 1.64787 1.47217 1.57215 1.52003C1.49642 1.56797 1.47569 1.6641 1.52956 1.7182C1.44924 1.68343 1.33327 1.70301 1.26388 1.76311C1.1944 1.8232 1.17835 1.91782 1.2271 1.97994C1.07513 1.95555 0.910939 2.12494 0.981024 2.23391C0.80772 2.18816 0.583068 2.35528 0.620972 2.50155C0.488696 2.39157 0.406728 3.01658 0.553056 3.12335Z" fill="url(#paint6_linear_0_531)"/>
<path id="Vector_8" opacity="0.2" d="M0.233448 3.04318C0.332156 3.11518 0.496786 3.12303 0.624118 3.06167C0.612235 3.1367 0.7315 3.16877 0.822835 3.14953C0.914258 3.1302 1.00316 3.0831 1.09407 3.08749C1.15348 3.09036 1.20587 3.11543 1.26555 3.11661C1.32522 3.11779 1.40051 3.07534 1.38707 3.02917C1.44119 3.10834 1.58275 3.11577 1.69759 3.08445C1.81243 3.05306 1.91635 2.99263 2.03093 2.9603C2.11983 2.93515 2.21603 2.92645 2.29548 2.88265C2.37493 2.83884 2.42351 2.73857 2.35845 2.69299C2.4229 2.71654 2.50036 2.66708 2.55596 2.62209C2.72631 2.48418 2.89675 2.34618 3.0671 2.20827C3.04898 2.18599 3.03076 2.16379 3.01263 2.1415C3.19192 2.02629 3.2496 1.8179 3.19192 1.65484C3.17804 1.61567 3.15861 1.57837 3.13918 1.54123C3.10778 1.48105 3.07639 1.42096 3.04499 1.36078C3.01862 1.31022 2.99017 1.25755 2.93552 1.22624C2.88088 1.19493 2.79162 1.194 2.74227 1.23974C2.69213 1.17036 2.62292 1.1031 2.52221 1.08959C2.4216 1.07609 2.29132 1.14487 2.29643 1.22877C2.24691 1.14673 2.10431 1.11753 1.99658 1.16741C1.88885 1.21729 1.83542 1.3374 1.88425 1.41986C1.82536 1.29579 1.54658 1.32457 1.49089 1.46046C1.44397 1.40197 1.32835 1.39209 1.25262 1.43995C1.1769 1.48789 1.15617 1.58402 1.21004 1.63813C1.12972 1.60335 1.01375 1.62293 0.944356 1.68303C0.874965 1.74312 0.858832 1.83774 0.907579 1.89986C0.755613 1.87547 0.591417 2.04486 0.661502 2.15383C0.488285 2.10808 0.263546 2.2752 0.301451 2.42147C0.169088 2.31141 0.0870338 2.93641 0.233448 3.04318Z" fill="url(#paint7_linear_0_531)"/>
<path id="Vector_9" opacity="0.2" d="M0.616067 2.93372C0.714775 3.00572 0.879492 3.01357 1.00674 2.9522C0.994854 3.02724 1.11412 3.05931 1.20545 3.03998C1.29679 3.02066 1.38578 2.97356 1.47669 2.97803C1.5361 2.9809 1.5884 3.00597 1.64817 3.00715C1.70784 3.00833 1.78313 2.96588 1.76969 2.91971C1.82381 2.99888 1.96537 3.00639 2.08021 2.975C2.19505 2.9436 2.29897 2.88316 2.41355 2.85084C2.50245 2.82569 2.59865 2.81699 2.6781 2.77319C2.75755 2.72938 2.80612 2.62911 2.74107 2.58353C2.80552 2.60708 2.88298 2.55762 2.93857 2.51263C3.10893 2.37463 3.27937 2.23672 3.44972 2.09881C3.4316 2.07652 3.41338 2.05424 3.39525 2.03205C3.57454 1.91684 3.63222 1.70853 3.57445 1.54538C3.56058 1.50621 3.54115 1.46891 3.52172 1.43177C3.49032 1.37159 3.45892 1.3115 3.42752 1.25132C3.40115 1.20076 3.3727 1.14809 3.31805 1.11678C3.26341 1.08546 3.17416 1.08454 3.1248 1.13028C3.07467 1.0609 3.00545 0.993635 2.90475 0.980215C2.80404 0.966711 2.67394 1.03558 2.67897 1.11939C2.62944 1.03735 2.48675 1.00815 2.37911 1.05803C2.27147 1.10792 2.21804 1.22802 2.26679 1.31048C2.20789 1.18641 1.92911 1.21519 1.87343 1.35108C1.8265 1.29267 1.71088 1.28272 1.63507 1.33057C1.55935 1.37851 1.53862 1.47465 1.59248 1.52875C1.51216 1.49398 1.39619 1.51356 1.3268 1.57365C1.25732 1.63375 1.24128 1.72836 1.29002 1.79048C1.13806 1.76609 0.973863 1.93549 1.04395 2.04445C0.870644 1.9987 0.645992 2.16582 0.683897 2.31209C0.551707 2.20195 0.469739 2.82695 0.616067 2.93372Z" fill="url(#paint8_linear_0_531)"/>
<path id="Vector_10" opacity="0.2" d="M1.02592 2.92608C1.12463 2.99808 1.28926 3.00592 1.41659 2.94456C1.40471 3.0196 1.52398 3.05167 1.61531 3.03243C1.70665 3.0131 1.79564 2.966 1.88654 2.97039C1.94596 2.97326 1.99826 2.99833 2.05802 2.99951C2.1177 3.00069 2.19299 2.95824 2.17955 2.91207C2.23367 2.99124 2.37523 2.99867 2.49007 2.96727C2.60491 2.93587 2.70882 2.87544 2.8234 2.84311C2.91231 2.81796 3.0085 2.80927 3.08796 2.76546C3.16741 2.72166 3.21598 2.62139 3.15093 2.57581C3.21538 2.59936 3.29283 2.5499 3.34835 2.50491C3.5187 2.367 3.68914 2.229 3.85949 2.09108C3.84137 2.0688 3.82315 2.0466 3.80502 2.02432C3.98431 1.90911 4.04199 1.7008 3.98422 1.53765C3.97035 1.49849 3.95092 1.46118 3.93149 1.42405C3.90009 1.36387 3.86869 1.30377 3.83729 1.24359C3.81092 1.19303 3.78247 1.14028 3.72783 1.10905C3.67318 1.07774 3.58393 1.07673 3.53457 1.12256C3.48444 1.05318 3.41522 0.985909 3.31452 0.972404C3.21381 0.9589 3.08371 1.02769 3.08874 1.11159C3.03921 1.02955 2.89653 1.00034 2.78888 1.05022C2.68124 1.10011 2.62781 1.22021 2.67656 1.30267C2.61766 1.1786 2.33888 1.20738 2.2832 1.34327C2.23627 1.28478 2.12065 1.2749 2.04493 1.32276C1.9692 1.3707 1.94847 1.46684 2.00234 1.52094C1.92202 1.48616 1.80605 1.50575 1.73666 1.56584C1.66718 1.62594 1.65114 1.72055 1.69988 1.78267C1.54792 1.75828 1.38372 1.92768 1.45381 2.03664C1.28059 1.9909 1.05585 2.15801 1.09375 2.30428C0.961478 2.19422 0.87951 2.81923 1.02592 2.92608Z" fill="url(#paint9_linear_0_531)"/>
<path id="Vector_11" opacity="0.2" d="M0.975142 3.15451C1.07385 3.22659 1.23848 3.23436 1.36581 3.173C1.35393 3.24803 1.47319 3.2801 1.56453 3.26077C1.65587 3.24145 1.74486 3.19435 1.83576 3.19882C1.89518 3.20169 1.94748 3.22676 2.00724 3.22794C2.06692 3.22913 2.14221 3.18667 2.12876 3.1405C2.18289 3.21967 2.32445 3.22718 2.43929 3.19579C2.55413 3.16439 2.65804 3.10396 2.77262 3.07155C2.86153 3.04639 2.95772 3.0377 3.03717 2.99389C3.11663 2.95009 3.1652 2.84982 3.10023 2.80424C3.16468 2.82779 3.24214 2.77833 3.29774 2.73334C3.46809 2.59543 3.63853 2.45743 3.80889 2.31951C3.79076 2.29723 3.77254 2.27503 3.75441 2.25275C3.9337 2.13754 3.99138 1.92923 3.93362 1.76608C3.91974 1.72692 3.90031 1.68961 3.88088 1.65248C3.84948 1.5923 3.81808 1.5322 3.78668 1.47202C3.76031 1.42147 3.73186 1.36871 3.67722 1.33748C3.62266 1.30617 3.53332 1.30524 3.48396 1.35099C3.43383 1.28161 3.36461 1.21434 3.26391 1.20092C3.16329 1.18742 3.0331 1.25621 3.03813 1.3401C2.9886 1.25806 2.846 1.22886 2.73827 1.27874C2.63063 1.32862 2.57711 1.44873 2.62595 1.53111C2.56705 1.40703 2.28827 1.43581 2.23259 1.5717C2.18566 1.51321 2.07004 1.50334 1.99432 1.55119C1.9186 1.59914 1.89787 1.69527 1.95173 1.74937C1.87141 1.7146 1.75544 1.73418 1.68605 1.79427C1.61657 1.85437 1.60053 1.94898 1.64927 2.0111C1.49731 1.98671 1.33311 2.15611 1.4032 2.26507C1.22989 2.21933 1.00524 2.38645 1.04315 2.53272C0.910782 2.42265 0.828815 3.04766 0.975142 3.15451Z" fill="url(#paint10_linear_0_531)"/>
<path id="Vector_12" opacity="0.2" d="M1.2472 3.25794C1.34591 3.33002 1.51054 3.33778 1.63787 3.27642C1.62599 3.35146 1.74525 3.38353 1.83659 3.3642C1.92792 3.34487 2.01692 3.29778 2.10782 3.30225C2.16724 3.30512 2.21954 3.33019 2.2793 3.33137C2.33898 3.33255 2.41427 3.2901 2.40082 3.24393C2.45495 3.3231 2.5965 3.33061 2.71135 3.29921C2.82619 3.26782 2.9301 3.20738 3.04468 3.17506C3.13359 3.1499 3.22978 3.14121 3.30923 3.09741C3.38869 3.0536 3.43726 2.95333 3.37229 2.90775C3.43674 2.9313 3.5142 2.88184 3.5698 2.83685C3.74015 2.69894 3.9105 2.56094 4.08094 2.42303C4.06282 2.40074 4.0446 2.37855 4.02647 2.35626C4.20576 2.24105 4.26344 2.03275 4.20567 1.86959C4.1918 1.83043 4.17237 1.79313 4.15294 1.75599C4.12154 1.69581 4.09014 1.63572 4.05874 1.57554C4.03237 1.52498 4.00392 1.47223 3.94928 1.441C3.89472 1.40969 3.80538 1.40867 3.75611 1.4545C3.70589 1.38512 3.63667 1.31785 3.53605 1.30443C3.43535 1.29093 3.30524 1.3598 3.31027 1.44361C3.26075 1.36157 3.11806 1.33237 3.01042 1.38225C2.90278 1.43214 2.84935 1.55224 2.89809 1.6347C2.8392 1.51063 2.56042 1.53941 2.50473 1.6753C2.45781 1.61681 2.34219 1.60693 2.26646 1.65479C2.19074 1.70273 2.17001 1.79887 2.22388 1.85297C2.14356 1.81819 2.02759 1.83778 1.9582 1.89787C1.88872 1.95797 1.87267 2.05258 1.92142 2.1147C1.76945 2.09031 1.60526 2.25971 1.67534 2.36867C1.50213 2.32293 1.27739 2.49004 1.31529 2.63631C1.18275 2.52608 1.10079 3.15109 1.2472 3.25794Z" fill="url(#paint11_linear_0_531)"/>
<path id="Vector_13" opacity="0.2" d="M1.35632 2.97083C1.45503 3.04291 1.61966 3.05068 1.74699 2.98932C1.73511 3.06435 1.85437 3.09642 1.94571 3.0771C2.03704 3.05777 2.12604 3.01067 2.21694 3.01515C2.27635 3.01802 2.32866 3.04308 2.38842 3.04426C2.4481 3.04545 2.52338 3.00299 2.50994 2.95682C2.56406 3.03599 2.70562 3.0435 2.82046 3.01211C2.93531 2.98071 3.03922 2.92027 3.1538 2.88795C3.24271 2.8628 3.3389 2.8541 3.41835 2.8103C3.4978 2.76649 3.54638 2.66622 3.48141 2.62065C3.54586 2.64419 3.62331 2.59473 3.67883 2.54975C3.84918 2.41183 4.01953 2.27383 4.18998 2.13592C4.17185 2.11364 4.15363 2.09144 4.1355 2.06916C4.31479 1.95395 4.37247 1.74564 4.31471 1.58249C4.30083 1.54333 4.2814 1.50602 4.26197 1.46888C4.23057 1.4087 4.19917 1.34861 4.16777 1.28843C4.1414 1.23787 4.11295 1.18512 4.05831 1.15389C4.00366 1.12258 3.91441 1.12165 3.86505 1.1674C3.81492 1.09802 3.7457 1.03075 3.645 1.01733C3.5443 1.00382 3.41419 1.07261 3.41922 1.15651C3.36969 1.07447 3.22709 1.04526 3.11936 1.09515C3.01172 1.14503 2.95829 1.26513 3.00704 1.34751C2.94814 1.22344 2.66936 1.25222 2.61368 1.38811C2.56675 1.32962 2.45113 1.31974 2.37541 1.3676C2.29969 1.41554 2.27896 1.51168 2.33282 1.56578C2.2525 1.531 2.13653 1.55058 2.06714 1.61068C1.99775 1.67077 1.98162 1.76539 2.03036 1.82751C1.8784 1.80312 1.7142 1.97251 1.78429 2.08148C1.61098 2.03573 1.38633 2.20285 1.42424 2.34912C1.29187 2.23906 1.2099 2.86406 1.35632 2.97083Z" fill="url(#paint12_linear_0_531)"/>
<path id="Vector_14" opacity="0.2" d="M1.49917 2.78928C1.59788 2.86127 1.76251 2.86912 1.88984 2.80776C1.87796 2.88279 1.99723 2.91495 2.08856 2.89562C2.1799 2.87629 2.26889 2.8292 2.35979 2.83359C2.41921 2.83646 2.47151 2.86152 2.53127 2.86271C2.59095 2.86389 2.66624 2.82143 2.6528 2.77526C2.70692 2.85443 2.84848 2.86186 2.96332 2.83055C3.07816 2.79915 3.18207 2.73872 3.29665 2.70639C3.38556 2.68124 3.48175 2.67255 3.56121 2.62874C3.64066 2.58494 3.68923 2.48466 3.62418 2.43909C3.68862 2.46264 3.76608 2.41318 3.82168 2.36819C3.99204 2.23027 4.16248 2.09228 4.33283 1.95436C4.3147 1.93208 4.29649 1.90988 4.27836 1.8876C4.45765 1.77239 4.51533 1.56408 4.45756 1.40093C4.44368 1.36177 4.42425 1.32446 4.40482 1.28732C4.37342 1.22715 4.34203 1.16705 4.31063 1.10687C4.28426 1.05631 4.25581 1.00365 4.20116 0.972333C4.14652 0.941019 4.05726 0.940091 4.00791 0.985838C3.95777 0.916459 3.88856 0.84919 3.78785 0.835686C3.68724 0.822181 3.55704 0.890968 3.56207 0.974865C3.51255 0.892825 3.36995 0.863623 3.26222 0.913505C3.15449 0.963387 3.10106 1.08349 3.14989 1.16587C3.091 1.0418 2.81222 1.07058 2.75653 1.20647C2.70961 1.14797 2.59399 1.1381 2.51826 1.18596C2.44254 1.2339 2.42181 1.33003 2.47568 1.38413C2.39536 1.34936 2.27939 1.36894 2.21 1.42904C2.1406 1.48913 2.12447 1.58375 2.17322 1.64587C2.02125 1.62148 1.85706 1.79087 1.92714 1.89984C1.75392 1.85409 1.52919 2.02121 1.56709 2.16748C1.43481 2.05742 1.35285 2.68242 1.49917 2.78928Z" fill="url(#paint13_linear_0_531)"/>
<path id="Vector_15" opacity="0.2" d="M1.19592 2.44378C1.29463 2.51586 1.45926 2.52362 1.58659 2.46226C1.57471 2.5373 1.69397 2.56937 1.78531 2.55004C1.87664 2.53071 1.96564 2.48361 2.05654 2.48809C2.11595 2.49096 2.16826 2.51603 2.22802 2.51721C2.2877 2.51839 2.36299 2.47593 2.34954 2.42977C2.40367 2.50894 2.54522 2.51636 2.66006 2.48496C2.77491 2.45357 2.87882 2.39314 2.9934 2.36081C3.08231 2.33566 3.1785 2.32696 3.25795 2.28316C3.3374 2.23935 3.38598 2.13908 3.32101 2.0935C3.38546 2.11705 3.46291 2.06759 3.51851 2.0226C3.68887 1.88469 3.85922 1.74669 4.02966 1.60878C4.01154 1.5865 3.99332 1.5643 3.97519 1.54201C4.15448 1.4268 4.21216 1.2185 4.15439 1.05535C4.14051 1.01618 4.12109 0.978878 4.10166 0.941741C4.07026 0.881561 4.03886 0.821466 4.00746 0.761287C3.98109 0.71073 3.95264 0.658063 3.89799 0.626749C3.84344 0.595436 3.7541 0.594508 3.70474 0.640254C3.65461 0.570875 3.58539 0.503689 3.48469 0.490184C3.38407 0.47668 3.25388 0.545554 3.25891 0.629366C3.20938 0.547326 3.06678 0.518124 2.95905 0.568006C2.85132 0.617888 2.79789 0.737993 2.84673 0.820455C2.78783 0.696383 2.50905 0.725163 2.45337 0.861052C2.40644 0.802561 2.29082 0.792684 2.2151 0.840541C2.13937 0.888397 2.11864 0.984619 2.17251 1.03872C2.09219 1.00395 1.97622 1.02353 1.90683 1.08362C1.83735 1.14372 1.8213 1.23833 1.87005 1.30045C1.71809 1.27606 1.55389 1.44546 1.62397 1.55442C1.45067 1.50868 1.22602 1.6758 1.26392 1.82207C1.13156 1.712 1.04959 2.33701 1.19592 2.44378Z" fill="url(#paint14_linear_0_531)"/>
<path id="Vector_16" opacity="0.2" d="M1.35626 2.32053C1.45497 2.39252 1.61969 2.40037 1.74693 2.33901C1.73505 2.41404 1.85431 2.44612 1.94565 2.42679C2.03707 2.40746 2.12598 2.36036 2.21688 2.36484C2.2763 2.36771 2.3286 2.39278 2.38836 2.39396C2.44804 2.39514 2.52333 2.35268 2.50988 2.30651C2.56401 2.38568 2.70556 2.39311 2.82041 2.3618C2.93525 2.3304 3.03916 2.26997 3.15374 2.23764C3.24265 2.21249 3.33884 2.2038 3.41829 2.15999C3.49775 2.11619 3.54632 2.01583 3.48135 1.97034C3.5458 1.99389 3.62326 1.94443 3.67877 1.89944C3.84912 1.76144 4.01956 1.62353 4.18992 1.48561C4.17179 1.46333 4.15358 1.44105 4.13545 1.41885C4.31473 1.30364 4.37242 1.09533 4.31465 0.932182C4.30077 0.893019 4.28134 0.855712 4.26191 0.818574C4.23051 0.758395 4.19911 0.6983 4.16771 0.638121C4.14134 0.587563 4.11289 0.534897 4.05825 0.503583C4.0036 0.472269 3.91435 0.471341 3.865 0.517088C3.81486 0.447709 3.74564 0.38044 3.64494 0.366936C3.54424 0.353431 3.41413 0.422218 3.41916 0.506115C3.36963 0.424075 3.22704 0.394873 3.11931 0.444755C3.01166 0.494637 2.95823 0.614742 3.00698 0.697204C2.94809 0.573132 2.66931 0.601912 2.61362 0.737801C2.5667 0.679309 2.45107 0.669436 2.37526 0.717292C2.29954 0.765233 2.27881 0.861368 2.33268 0.91547C2.25236 0.880696 2.13639 0.900278 2.067 0.960373C1.99761 1.02047 1.98147 1.11508 2.03022 1.1772C1.87825 1.15281 1.71406 1.32221 1.78414 1.43117C1.61084 1.38534 1.38619 1.55254 1.42409 1.69881C1.2919 1.58867 1.20993 2.21367 1.35626 2.32053Z" fill="url(#paint15_linear_0_531)"/>
<path id="Vector_17" opacity="0.2" d="M1.98175 2.21709C2.08046 2.28909 2.24509 2.29694 2.37242 2.23558C2.36053 2.31061 2.4798 2.34268 2.57114 2.32344C2.66247 2.30411 2.75146 2.25702 2.84237 2.2614C2.90178 2.26427 2.95409 2.28934 3.01385 2.29052C3.07352 2.29162 3.14881 2.24925 3.13537 2.20308C3.18949 2.28225 3.33105 2.28977 3.44589 2.25828C3.56073 2.22689 3.66465 2.16645 3.77923 2.13413C3.86813 2.10897 3.96433 2.10028 4.04378 2.05647C4.12323 2.01267 4.17181 1.9124 4.10675 1.86682C4.1712 1.89037 4.24866 1.84091 4.30425 1.79592C4.47461 1.65801 4.64505 1.52001 4.8154 1.38209C4.79728 1.35981 4.77906 1.33761 4.76093 1.31533C4.94022 1.20012 4.9979 0.991815 4.94013 0.828664C4.92626 0.789501 4.90683 0.752194 4.8874 0.715057C4.856 0.654878 4.8246 0.594783 4.7932 0.534604C4.76683 0.484046 4.73838 0.431379 4.68374 0.400066C4.62909 0.368752 4.53984 0.367824 4.49048 0.41357C4.44035 0.344191 4.37113 0.276923 4.27043 0.263418C4.16981 0.249914 4.03962 0.318786 4.04465 0.402598C3.99512 0.320558 3.85243 0.291355 3.74479 0.341238C3.63715 0.39112 3.58372 0.511225 3.63247 0.593687C3.57357 0.469614 3.29479 0.498395 3.23911 0.634283C3.19218 0.575792 3.07656 0.565919 3.00084 0.613775C2.92511 0.661716 2.90438 0.75785 2.95825 0.811953C2.87793 0.777179 2.76196 0.796761 2.69257 0.856856C2.62309 0.916951 2.60705 1.01157 2.65579 1.07369C2.50383 1.04929 2.33963 1.21869 2.40972 1.32766C2.2365 1.28191 2.01176 1.44903 2.04966 1.5953C1.91739 1.48524 1.83533 2.11024 1.98175 2.21709Z" fill="url(#paint16_linear_0_531)"/>
<path id="Vector_18" opacity="0.2" d="M2.34185 2.49452C2.44056 2.56652 2.60519 2.57437 2.73252 2.51301C2.72064 2.58804 2.8399 2.62011 2.93124 2.60079C3.02258 2.58146 3.11157 2.53436 3.20247 2.53875C3.2618 2.54162 3.31419 2.56669 3.37395 2.56787C3.43363 2.56905 3.50892 2.52659 3.49547 2.48043C3.5496 2.5596 3.69115 2.56702 3.806 2.53563C3.92084 2.50423 4.02475 2.4438 4.13933 2.41147C4.22824 2.38632 4.32443 2.37762 4.40388 2.33382C4.48334 2.29001 4.53191 2.18974 4.46694 2.14417C4.53139 2.16771 4.60885 2.11825 4.66445 2.07327C4.8348 1.93535 5.00515 1.79735 5.1756 1.65944C5.15747 1.63716 5.13925 1.61496 5.12112 1.59268C5.30041 1.47747 5.35809 1.26916 5.30033 1.10601C5.28645 1.06684 5.26702 1.02954 5.24759 0.992403C5.21619 0.932224 5.18479 0.872129 5.15339 0.81195C5.12702 0.761392 5.09857 0.708723 5.04393 0.677409C4.98928 0.646096 4.90003 0.645168 4.85067 0.690914C4.80054 0.621535 4.73132 0.554267 4.63062 0.540762C4.53 0.527258 4.39972 0.596129 4.40484 0.679941C4.35531 0.597902 4.21271 0.568699 4.10498 0.618581C3.99734 0.668463 3.94391 0.788569 3.99266 0.87103C3.93376 0.746958 3.65498 0.775741 3.5993 0.91163C3.55237 0.853138 3.43675 0.843262 3.36103 0.891119C3.28531 0.93906 3.26458 1.03519 3.31844 1.0893C3.23812 1.05452 3.12215 1.0741 3.05276 1.1342C2.98337 1.19429 2.96724 1.28891 3.01598 1.35103C2.86402 1.32664 2.69982 1.49604 2.76991 1.605C2.5966 1.55925 2.37195 1.72637 2.40986 1.87264C2.27749 1.76275 2.19544 2.38775 2.34185 2.49452Z" fill="url(#paint17_linear_0_531)"/>
<path id="Vector_19" opacity="0.2" d="M2.5416 2.70538C2.64031 2.77746 2.80494 2.78522 2.93227 2.72386C2.92039 2.79889 3.03965 2.83097 3.13099 2.81164C3.22241 2.79231 3.31132 2.74522 3.40222 2.7496C3.46163 2.75247 3.51394 2.77754 3.5737 2.77872C3.63346 2.7799 3.70866 2.73745 3.69522 2.69128C3.74935 2.77045 3.8909 2.77788 4.00574 2.74648C4.12059 2.71508 4.2245 2.65465 4.33908 2.62232C4.42799 2.59717 4.52418 2.58848 4.60363 2.54467C4.68308 2.50087 4.73166 2.4006 4.6666 2.35502C4.73105 2.37857 4.80851 2.32911 4.86402 2.28412C5.03437 2.14621 5.20482 2.00821 5.37517 1.87029C5.35704 1.84801 5.33883 1.82581 5.3207 1.80353C5.49999 1.68832 5.55767 1.48001 5.4999 1.31686C5.48602 1.2777 5.46659 1.24039 5.44716 1.20326C5.41576 1.14308 5.38436 1.08298 5.35296 1.0228C5.3266 0.972245 5.29815 0.919494 5.2435 0.888264C5.18886 0.856951 5.0996 0.855938 5.05025 0.901769C5.00011 0.83239 4.9309 0.76512 4.83019 0.7517C4.72949 0.738195 4.59938 0.807069 4.60441 0.890881C4.55488 0.808842 4.4122 0.779639 4.30456 0.829521C4.19692 0.879404 4.14348 0.999509 4.19223 1.08197C4.13334 0.957898 3.85456 0.986678 3.79887 1.12257C3.75195 1.06416 3.63632 1.0542 3.5606 1.10206C3.48488 1.15 3.46415 1.24613 3.51801 1.30024C3.43769 1.26546 3.32172 1.28504 3.25233 1.34514C3.18286 1.40523 3.16681 1.49985 3.21556 1.56197C3.06359 1.53758 2.8994 1.70697 2.96948 1.81594C2.79618 1.77019 2.57152 1.93731 2.60943 2.08358C2.47724 1.97352 2.39527 2.59852 2.5416 2.70538Z" fill="url(#paint18_linear_0_531)"/>
<path id="Vector_20" opacity="0.2" d="M2.21068 2.97279C2.30939 3.04478 2.47402 3.05263 2.60135 2.99127C2.58947 3.0663 2.70873 3.09838 2.80007 3.07905C2.89149 3.05972 2.9804 3.01262 3.0713 3.0171C3.13071 3.01997 3.1831 3.04503 3.24278 3.04622C3.30246 3.0474 3.37774 3.00494 3.3643 2.95877C3.41842 3.03794 3.55998 3.04546 3.67482 3.01406C3.78967 2.98266 3.89358 2.92223 4.00816 2.8899C4.09707 2.86475 4.19326 2.85606 4.27271 2.81225C4.35216 2.76845 4.40074 2.66817 4.33577 2.6226C4.40022 2.64614 4.47767 2.59669 4.53327 2.5517C4.70363 2.41378 4.87398 2.27579 5.04442 2.13787C5.02629 2.11559 5.00808 2.09339 4.98995 2.07111C5.16924 1.9559 5.22692 1.74759 5.16915 1.58444C5.15527 1.54528 5.13585 1.50797 5.11642 1.47083C5.08502 1.41065 5.05362 1.35056 5.02222 1.29038C4.99585 1.23982 4.9674 1.18716 4.91275 1.15584C4.85811 1.12453 4.76885 1.12352 4.7195 1.16935C4.66937 1.09997 4.60015 1.0327 4.49945 1.01928C4.39883 1.00577 4.26863 1.07465 4.27367 1.15846C4.22414 1.07642 4.08154 1.04722 3.97381 1.0971C3.86617 1.14698 3.81265 1.26709 3.86148 1.34955C3.80259 1.22548 3.52381 1.25426 3.46813 1.39015C3.4212 1.33165 3.30558 1.32178 3.22986 1.36963C3.15413 1.41758 3.1334 1.51371 3.18727 1.56781C3.10695 1.53304 2.99098 1.55262 2.92159 1.61272C2.85211 1.67281 2.83606 1.76743 2.88481 1.82955C2.73284 1.80515 2.56865 1.97455 2.63873 2.08343C2.46543 2.03768 2.24078 2.2048 2.27868 2.35107C2.14632 2.24101 2.06435 2.86602 2.21068 2.97279Z" fill="url(#paint19_linear_0_531)"/>
<path id="Vector_21" opacity="0.2" d="M1.93919 3.05108C2.0379 3.12308 2.20253 3.13092 2.32986 3.06956C2.31798 3.1446 2.43725 3.17667 2.52858 3.15743C2.61992 3.1381 2.70891 3.091 2.79981 3.09539C2.85923 3.09826 2.91153 3.12333 2.97129 3.12451C3.03097 3.12561 3.10626 3.08324 3.09281 3.03707C3.14694 3.11624 3.2885 3.12367 3.40334 3.09227C3.51818 3.06087 3.62209 3.00044 3.73667 2.96811C3.82558 2.94296 3.92177 2.93427 4.00123 2.89046C4.08068 2.84666 4.12925 2.74639 4.0642 2.70081C4.12864 2.72436 4.2061 2.6749 4.2617 2.62991C4.43206 2.492 4.6025 2.354 4.77285 2.21608C4.75472 2.1938 4.73651 2.1716 4.71838 2.14932C4.89767 2.03411 4.95535 1.8258 4.89758 1.66265C4.8837 1.62349 4.86427 1.58618 4.84484 1.54905C4.81344 1.48887 4.78204 1.42877 4.75065 1.36859C4.72419 1.31803 4.69583 1.26537 4.64118 1.23405C4.58654 1.20274 4.49728 1.20181 4.44793 1.24756C4.39779 1.17818 4.32858 1.11091 4.22787 1.0974C4.12726 1.0839 3.99706 1.15269 4.00209 1.23659C3.95257 1.15455 3.80997 1.12534 3.70224 1.17522C3.5946 1.22511 3.54116 1.34521 3.58991 1.42759C3.53102 1.30352 3.25224 1.3323 3.19655 1.46819C3.14963 1.4097 3.03401 1.39982 2.95828 1.44768C2.88256 1.49562 2.86183 1.59175 2.91569 1.64586C2.83537 1.61108 2.71941 1.63066 2.65001 1.69076C2.58054 1.75085 2.56449 1.84547 2.61324 1.90759C2.46127 1.8832 2.29708 2.05259 2.36716 2.16156C2.19386 2.11573 1.96921 2.28293 2.00711 2.4292C1.87483 2.31922 1.79287 2.94423 1.93919 3.05108Z" fill="url(#paint20_linear_0_531)"/>
<path id="Vector_22" opacity="0.2" d="M0.318955 2.68372C0.417664 2.75581 0.582293 2.76357 0.709625 2.70221C0.697742 2.77724 0.817007 2.80932 0.908343 2.78999C0.999765 2.77066 1.08867 2.72356 1.17957 2.72804C1.23899 2.73091 1.29138 2.75597 1.35106 2.75716C1.41073 2.75834 1.48602 2.71588 1.47258 2.66971C1.5267 2.74888 1.66826 2.75639 1.7831 2.725C1.89794 2.6936 2.00185 2.63317 2.11644 2.60084C2.20534 2.57569 2.30153 2.567 2.38099 2.52319C2.46044 2.47938 2.50901 2.37911 2.44405 2.33354C2.50849 2.35708 2.58595 2.30762 2.64155 2.26264C2.8119 2.12472 2.98226 1.98673 3.1527 1.84881C3.13457 1.82653 3.11636 1.80433 3.09823 1.78205C3.27752 1.66684 3.3352 1.45853 3.27743 1.29538C3.26355 1.25622 3.24412 1.21891 3.22469 1.18177C3.19329 1.12159 3.16189 1.0615 3.13049 1.00132C3.10413 0.950762 3.07567 0.898011 3.02103 0.866782C2.96638 0.835468 2.87713 0.83454 2.82778 0.880287C2.77764 0.810907 2.70842 0.743637 2.60772 0.730217C2.5071 0.716712 2.37691 0.785502 2.38194 0.869399C2.33241 0.787359 2.18982 0.758157 2.08209 0.808039C1.97444 0.857921 1.92093 0.978025 1.96976 1.0604C1.91086 0.93633 1.63209 0.965111 1.5764 1.101C1.52948 1.04251 1.41385 1.03263 1.33813 1.08049C1.26241 1.12843 1.24168 1.22457 1.29554 1.27867C1.21522 1.24389 1.09925 1.26348 1.02986 1.32357C0.960386 1.38367 0.944339 1.47828 0.993086 1.5404C0.84112 1.51601 0.676924 1.68541 0.747009 1.79437C0.573706 1.74862 0.349053 1.91574 0.386958 2.06201C0.254595 1.95187 0.172628 2.57687 0.318955 2.68372Z" fill="url(#paint21_linear_0_531)"/>
<path id="Vector_23" opacity="0.2" d="M0.139678 2.73272C0.238387 2.8048 0.403103 2.81256 0.530348 2.7512C0.518465 2.82624 0.63773 2.85831 0.729066 2.83898C0.820488 2.81965 0.909395 2.77256 1.0003 2.77703C1.05971 2.7799 1.11202 2.80497 1.17178 2.80615C1.23145 2.80733 1.30674 2.76488 1.2933 2.71871C1.34742 2.79788 1.48898 2.80539 1.60382 2.77391C1.71866 2.74251 1.82258 2.68208 1.93716 2.64975C2.02607 2.6246 2.12226 2.6159 2.20171 2.5721C2.28116 2.52829 2.32974 2.42794 2.26477 2.38245C2.32922 2.406 2.40667 2.35654 2.46219 2.31155C2.63254 2.17363 2.80298 2.03563 2.97333 1.89772C2.95521 1.87544 2.93708 1.85324 2.91886 1.83096C3.09815 1.71575 3.15583 1.50744 3.09806 1.34429C3.08419 1.30513 3.06476 1.26782 3.04533 1.23068C3.01393 1.17051 2.98253 1.11041 2.95113 1.05023C2.92476 0.999674 2.89631 0.94692 2.84167 0.915691C2.78702 0.884377 2.69777 0.883365 2.64841 0.929195C2.59828 0.859816 2.52906 0.792548 2.42836 0.779043C2.32765 0.765539 2.19755 0.834411 2.20258 0.918223C2.15305 0.836183 2.01045 0.80698 1.90272 0.856863C1.79508 0.906745 1.74156 1.02685 1.7904 1.10931C1.7315 0.985239 1.45272 1.01402 1.39704 1.14991C1.35011 1.09142 1.23449 1.08154 1.15868 1.1294C1.08296 1.17734 1.06223 1.27348 1.11609 1.32758C1.03577 1.2928 0.919803 1.31239 0.850413 1.37248C0.780935 1.43258 0.764889 1.52719 0.813636 1.58931C0.66167 1.56492 0.497474 1.73432 0.567559 1.84328C0.394255 1.79753 0.169603 1.96465 0.207508 2.11092C0.0753185 2.00086 -0.00664941 2.62586 0.139678 2.73272Z" fill="url(#paint22_linear_0_531)"/>
<path id="Vector_24" opacity="0.2" d="M0.211938 2.97287C0.310647 3.04495 0.475363 3.05272 0.602608 2.99136C0.590725 3.06639 0.70999 3.09846 0.801326 3.07913C0.892748 3.05981 0.981655 3.01271 1.07256 3.01718C1.13197 3.02005 1.18428 3.04512 1.24404 3.0463C1.3038 3.04748 1.379 3.00503 1.36556 2.95886C1.41968 3.03803 1.56124 3.04554 1.67608 3.01414C1.79092 2.98275 1.89484 2.92231 2.00942 2.8899C2.09833 2.86475 2.19452 2.85606 2.27397 2.81225C2.35342 2.76845 2.402 2.66818 2.33694 2.6226C2.40139 2.64615 2.47885 2.59669 2.53445 2.5517C2.7048 2.41379 2.87524 2.27579 3.0456 2.13787C3.02747 2.11559 3.00925 2.09339 2.99112 2.07111C3.17041 1.9559 3.22809 1.74759 3.17032 1.58444C3.15645 1.54528 3.13702 1.50797 3.11759 1.47084C3.08619 1.41066 3.05479 1.35056 3.02339 1.29038C2.99702 1.23982 2.96857 1.18707 2.91393 1.15584C2.85928 1.12453 2.77003 1.1236 2.72067 1.16935C2.67054 1.09997 2.60132 1.0327 2.50062 1.01928C2.39991 1.00577 2.26981 1.07456 2.27484 1.15846C2.22531 1.07642 2.08271 1.04722 1.97498 1.0971C1.86725 1.14698 1.81391 1.26709 1.86266 1.34947C1.80376 1.22539 1.52498 1.25417 1.4693 1.39006C1.42237 1.33157 1.30675 1.32169 1.23103 1.36955C1.15531 1.41749 1.13457 1.51363 1.18844 1.56773C1.10812 1.53296 0.992151 1.55254 0.92276 1.61263C0.853282 1.67273 0.837235 1.76734 0.885982 1.82946C0.734017 1.80507 0.569821 1.97447 0.639906 2.08343C0.466603 2.03769 0.24195 2.2048 0.279855 2.35107C0.147579 2.2411 0.0655241 2.8661 0.211938 2.97287Z" fill="url(#paint23_linear_0_531)"/>
<path id="Vector_25" opacity="0.2" d="M0.849125 3.19162C0.947833 3.2637 1.11246 3.27147 1.2398 3.21011C1.22791 3.28514 1.34718 3.31721 1.43851 3.29788C1.52993 3.27856 1.61884 3.23146 1.70974 3.23593C1.76916 3.2388 1.82146 3.26387 1.88123 3.26505C1.9409 3.26615 2.01619 3.22378 2.00275 3.17761C2.05687 3.25678 2.19843 3.26421 2.31327 3.23281C2.42811 3.20141 2.53202 3.14098 2.6466 3.10865C2.73551 3.0835 2.8317 3.07481 2.91116 3.031C2.99061 2.9872 3.03918 2.88684 2.97422 2.84135C3.03866 2.8649 3.11612 2.81544 3.17172 2.77045C3.34207 2.63254 3.51251 2.49454 3.68287 2.35662C3.66474 2.33434 3.64653 2.31214 3.6284 2.28986C3.80769 2.17465 3.86537 1.96634 3.8076 1.80319C3.79372 1.76403 3.77429 1.72672 3.75486 1.68959C3.72346 1.62941 3.69206 1.56931 3.66066 1.50913C3.6343 1.45857 3.60585 1.40591 3.5512 1.37459C3.49664 1.34328 3.4073 1.34235 3.35795 1.3881C3.30781 1.31872 3.23859 1.25153 3.13789 1.23803C3.03719 1.22452 2.90708 1.29331 2.91211 1.37721C2.86258 1.29517 2.7199 1.26597 2.61226 1.31585C2.50461 1.36573 2.45118 1.48584 2.49993 1.56822C2.44103 1.44414 2.16226 1.47292 2.10657 1.60881C2.05965 1.55032 1.94402 1.54045 1.8683 1.5883C1.79258 1.63624 1.77185 1.73238 1.82571 1.78648C1.74539 1.75171 1.62942 1.77129 1.56003 1.83138C1.49056 1.89148 1.47451 1.98609 1.52326 2.04821C1.37129 2.02382 1.20709 2.19322 1.27718 2.30218C1.10388 2.25635 0.879223 2.42356 0.917215 2.56983C0.784765 2.45985 0.702798 3.08485 0.849125 3.19162Z" fill="url(#paint24_linear_0_531)"/>
<path id="Vector_26" opacity="0.2" d="M1.9254 3.13702C2.02411 3.20901 2.18883 3.21686 2.31607 3.1555C2.30419 3.23054 2.42345 3.26261 2.51479 3.24337C2.60621 3.22404 2.69512 3.17694 2.78602 3.18133C2.84544 3.1842 2.89774 3.20927 2.9575 3.21045C3.01718 3.21163 3.09247 3.16918 3.07902 3.12301C3.13315 3.20218 3.2747 3.2096 3.38955 3.17821C3.50439 3.14681 3.6083 3.08638 3.72288 3.05405C3.81179 3.0289 3.90798 3.02021 3.98743 2.9764C4.06689 2.93259 4.11546 2.83224 4.05049 2.78675C4.11494 2.81029 4.1924 2.76083 4.24791 2.71585C4.41826 2.57793 4.5887 2.43993 4.75906 2.30202C4.74093 2.27974 4.7228 2.25754 4.70459 2.23526C4.88387 2.12005 4.94156 1.91174 4.88379 1.74859C4.86991 1.70943 4.85048 1.67212 4.83105 1.63498C4.79965 1.5748 4.76825 1.51471 4.73685 1.45453C4.7104 1.40397 4.68203 1.35131 4.62739 1.31999C4.57274 1.28868 4.48349 1.28775 4.43414 1.3335C4.384 1.26412 4.31478 1.19685 4.21408 1.18334C4.11346 1.16984 3.98327 1.23863 3.9883 1.32252C3.93877 1.24048 3.79618 1.21128 3.68845 1.26116C3.5808 1.31104 3.52737 1.43115 3.57612 1.51353C3.51722 1.38946 3.23845 1.41824 3.18276 1.55412C3.13584 1.49563 3.02021 1.48576 2.94449 1.53362C2.86877 1.58156 2.84804 1.67769 2.9019 1.73179C2.82158 1.69702 2.70561 1.7166 2.63622 1.77669C2.56674 1.83679 2.5507 1.93141 2.59945 1.99353C2.44748 1.96913 2.28328 2.13853 2.35337 2.24749C2.18006 2.20166 1.95541 2.36887 1.99332 2.51514C1.86104 2.40525 1.77899 3.03025 1.9254 3.13702Z" fill="url(#paint25_linear_0_531)"/>
<path id="Vector_27" opacity="0.2" d="M2.93295 2.9513C3.03165 3.02338 3.19628 3.03115 3.32362 2.96979C3.31173 3.04482 3.431 3.07689 3.52233 3.05756C3.61367 3.03823 3.70266 2.99114 3.79357 2.99561C3.85289 2.99848 3.90528 3.02355 3.96505 3.02473C4.02472 3.02591 4.10001 2.98346 4.08657 2.93729C4.14069 3.01646 4.28225 3.02397 4.39709 2.99257C4.51193 2.96118 4.61584 2.90074 4.73043 2.86842C4.81933 2.84326 4.91553 2.83457 4.99498 2.79077C5.07443 2.74696 5.123 2.64669 5.05804 2.60111C5.12248 2.62466 5.19994 2.5752 5.25554 2.53021C5.42589 2.3923 5.59625 2.2543 5.76669 2.11638C5.74856 2.0941 5.73035 2.07191 5.71222 2.04962C5.89151 1.93441 5.94919 1.72611 5.89142 1.56296C5.87754 1.52379 5.85811 1.48649 5.83868 1.44935C5.80728 1.38917 5.77588 1.32908 5.74448 1.2689C5.71803 1.21834 5.68967 1.16559 5.63502 1.13436C5.58046 1.10304 5.49112 1.10212 5.44177 1.14786C5.39163 1.07848 5.32242 1.01121 5.22171 0.997793C5.12101 0.984289 4.9909 1.05316 4.99593 1.13698C4.94641 1.05494 4.80372 1.02573 4.69608 1.07561C4.58844 1.12549 4.535 1.2456 4.58375 1.32806C4.52486 1.20399 4.24608 1.23277 4.19039 1.36866C4.14347 1.31017 4.02785 1.30029 3.95212 1.34815C3.8764 1.39609 3.85567 1.49223 3.90953 1.54633C3.82921 1.51155 3.71325 1.53114 3.64385 1.59123C3.57438 1.65133 3.55833 1.74594 3.60708 1.80806C3.45511 1.78367 3.29092 1.95307 3.361 2.06203C3.1877 2.01628 2.96304 2.1834 3.00095 2.32967C2.86859 2.21953 2.78662 2.84453 2.93295 2.9513Z" fill="url(#paint26_linear_0_531)"/>
<path id="Vector_28" opacity="0.2" d="M3.49488 2.71892C3.59359 2.791 3.75822 2.79877 3.88555 2.73741C3.87367 2.81244 3.99293 2.84452 4.08427 2.82519C4.1756 2.80586 4.2646 2.75876 4.3555 2.76323C4.41483 2.7661 4.46722 2.79117 4.52698 2.79235C4.58666 2.79353 4.66194 2.75108 4.6485 2.70491C4.70263 2.78408 4.84418 2.79151 4.95902 2.76011C5.07387 2.72871 5.17778 2.66828 5.29236 2.63595C5.38127 2.6108 5.47746 2.60211 5.55691 2.55831C5.63636 2.5145 5.68494 2.41423 5.61997 2.36865C5.68442 2.3922 5.76187 2.34274 5.81739 2.29775C5.98774 2.15984 6.15818 2.02184 6.32854 1.88392C6.31041 1.86164 6.29228 1.83944 6.27407 1.81716C6.45335 1.70195 6.51103 1.49365 6.45327 1.3305C6.43939 1.29133 6.41996 1.25403 6.40053 1.21689C6.36913 1.15671 6.33773 1.09661 6.30633 1.03644C6.27996 0.985878 6.25151 0.933126 6.19687 0.901897C6.14222 0.870668 6.05297 0.869656 6.00361 0.915402C5.95348 0.846023 5.88426 0.778752 5.78356 0.765332C5.68286 0.751828 5.55275 0.820618 5.55778 0.904514C5.50825 0.822475 5.36557 0.793269 5.25792 0.843152C5.15028 0.893034 5.09685 1.01314 5.1456 1.0956C5.0867 0.971528 4.80793 1.00031 4.75224 1.1362C4.70531 1.07771 4.58969 1.06783 4.51397 1.11569C4.43825 1.16363 4.41752 1.25976 4.47138 1.31387C4.39106 1.27909 4.27509 1.29868 4.2057 1.35877C4.13622 1.41887 4.12018 1.51348 4.16892 1.5756C4.01696 1.55121 3.85276 1.72061 3.92285 1.82957C3.74954 1.78382 3.52489 1.95094 3.56288 2.09721C3.43052 1.98715 3.34855 2.61215 3.49488 2.71892Z" fill="url(#paint27_linear_0_531)"/>
<path id="Vector_29" opacity="0.2" d="M3.66495 2.47873C3.76366 2.55081 3.92829 2.55857 4.05562 2.49721C4.04374 2.57225 4.163 2.60432 4.25434 2.58499C4.34576 2.56566 4.43467 2.51857 4.52557 2.52304C4.5849 2.52591 4.63729 2.55098 4.69705 2.55216C4.75673 2.55326 4.83202 2.51089 4.81857 2.46472C4.8727 2.54389 5.01425 2.5514 5.12909 2.51992C5.24394 2.48852 5.34785 2.42809 5.46243 2.39576C5.55134 2.37061 5.64753 2.36191 5.72698 2.31811C5.80643 2.2743 5.85501 2.17395 5.78995 2.12846C5.8544 2.15201 5.93186 2.10255 5.98746 2.05756C6.15781 1.91965 6.32817 1.78164 6.49861 1.64373C6.48048 1.62145 6.46226 1.59925 6.44414 1.57697C6.62342 1.46176 6.6811 1.25345 6.62334 1.0903C6.60946 1.05114 6.59003 1.01383 6.5706 0.976695C6.5392 0.916516 6.5078 0.856421 6.4764 0.796242C6.45003 0.745684 6.42158 0.69293 6.36694 0.661701C6.31229 0.630388 6.22304 0.62946 6.17368 0.675206C6.12346 0.605827 6.05433 0.538559 5.95363 0.525139C5.85293 0.511634 5.72282 0.580422 5.72785 0.664318C5.67832 0.582278 5.53564 0.553076 5.42799 0.602958C5.32035 0.65284 5.26692 0.772945 5.31567 0.855322C5.25677 0.73125 4.978 0.760033 4.92231 0.895921C4.87538 0.83743 4.75976 0.827554 4.68404 0.875411C4.60832 0.923267 4.58759 1.01949 4.64145 1.07359C4.56113 1.03881 4.44516 1.0584 4.37577 1.11849C4.30629 1.17859 4.29025 1.2732 4.33899 1.33532C4.18703 1.31093 4.02283 1.48033 4.09292 1.58929C3.91961 1.54355 3.69496 1.71066 3.73287 1.85693C3.60059 1.74687 3.51862 2.37188 3.66495 2.47873Z" fill="url(#paint28_linear_0_531)"/>
<path id="Vector_30" opacity="0.2" d="M3.38942 2.34816C3.48813 2.42015 3.65276 2.428 3.78009 2.36664C3.76821 2.44168 3.88748 2.47375 3.97881 2.4545C4.07015 2.43518 4.15914 2.38808 4.25004 2.39247C4.30946 2.39534 4.36176 2.42041 4.42152 2.42159C4.4812 2.42277 4.55649 2.38031 4.54304 2.33415C4.59717 2.41332 4.73873 2.42074 4.85357 2.38935C4.96841 2.35795 5.07232 2.29752 5.1869 2.26519C5.27581 2.24004 5.372 2.23134 5.45145 2.18754C5.53091 2.14373 5.57948 2.04338 5.51443 1.99788C5.57887 2.02143 5.65633 1.97197 5.71193 1.92699C5.88228 1.78907 6.05273 1.65107 6.22308 1.51316C6.20495 1.49088 6.18674 1.46868 6.16861 1.4464C6.3479 1.33119 6.40558 1.12288 6.34781 0.959729C6.33393 0.920566 6.3145 0.883259 6.29507 0.846122C6.26367 0.785942 6.23227 0.725847 6.20087 0.665668C6.17451 0.615111 6.14606 0.562444 6.09141 0.53113C6.03677 0.499817 5.94751 0.498889 5.89816 0.544635C5.84802 0.475256 5.77881 0.407987 5.6781 0.394483C5.57749 0.380978 5.44729 0.449766 5.45232 0.533662C5.40279 0.451623 5.2602 0.42242 5.15247 0.472302C5.04483 0.522184 4.99139 0.642289 5.04014 0.724751C4.98125 0.600679 4.70247 0.629459 4.64678 0.765348C4.59986 0.706941 4.48424 0.696983 4.40851 0.74484C4.33279 0.79278 4.31206 0.888915 4.36592 0.943017C4.2856 0.908243 4.16963 0.927823 4.10024 0.987918C4.03077 1.04801 4.01472 1.14263 4.06347 1.20475C3.9115 1.18036 3.74731 1.34975 3.81739 1.45872C3.64409 1.41297 3.41943 1.58009 3.45734 1.72636C3.32498 1.6163 3.24301 2.2413 3.38942 2.34816Z" fill="url(#paint29_linear_0_531)"/>
<path id="Vector_31" opacity="0.2" d="M3.351 2.47092C3.4497 2.543 3.61433 2.55076 3.74166 2.4894C3.72978 2.56443 3.84905 2.59651 3.94038 2.57718C4.03172 2.55785 4.12071 2.51075 4.21161 2.51523C4.27094 2.5181 4.32333 2.54317 4.3831 2.54435C4.44277 2.54544 4.51806 2.50308 4.50462 2.45691C4.55874 2.53608 4.7003 2.54359 4.81514 2.51211C4.92998 2.48071 5.03389 2.42028 5.14848 2.38795C5.23738 2.3628 5.33358 2.3541 5.41303 2.3103C5.49248 2.26649 5.54105 2.16614 5.47609 2.12065C5.54053 2.14419 5.61799 2.09473 5.67359 2.04975C5.84394 1.91183 6.0143 1.77383 6.18474 1.63592C6.16661 1.61364 6.1484 1.59144 6.13027 1.56916C6.30956 1.45395 6.36724 1.24564 6.30956 1.08249C6.29568 1.04333 6.27625 1.00602 6.25682 0.968883C6.22542 0.908703 6.19402 0.848608 6.16262 0.788429C6.13617 0.737872 6.1078 0.685205 6.05316 0.653891C5.99851 0.622578 5.90926 0.62165 5.8599 0.667396C5.80977 0.598017 5.74055 0.530831 5.63985 0.517326C5.53914 0.503822 5.40904 0.572612 5.41407 0.656508C5.36454 0.574468 5.22194 0.545263 5.11421 0.595145C5.00657 0.645028 4.95314 0.765135 5.00189 0.847512C4.94299 0.72344 4.66421 0.75222 4.60853 0.888109C4.5616 0.829618 4.44598 0.819742 4.37026 0.867598C4.29454 0.915539 4.27381 1.01168 4.32767 1.06578C4.24735 1.031 4.13138 1.05058 4.06199 1.11068C3.99251 1.17077 3.97647 1.26539 4.02521 1.32751C3.87325 1.30312 3.70905 1.47251 3.77914 1.58148C3.60583 1.53573 3.38118 1.70285 3.41909 1.84912C3.28655 1.73914 3.20458 2.36415 3.351 2.47092Z" fill="url(#paint30_linear_0_531)"/>
<path id="Vector_32" opacity="0.2" d="M3.55383 2.74614C3.65254 2.81814 3.81717 2.82598 3.9445 2.76462C3.93262 2.83966 4.05188 2.87182 4.14322 2.85249C4.23455 2.83316 4.32355 2.78606 4.41445 2.79054C4.47387 2.79341 4.52617 2.81847 4.58593 2.81966C4.64561 2.82084 4.7209 2.77838 4.70745 2.73221C4.76158 2.81138 4.90313 2.81881 5.01798 2.7875C5.13282 2.7561 5.23673 2.69567 5.35131 2.66334C5.44022 2.63819 5.53641 2.6295 5.61586 2.58569C5.69532 2.54188 5.74389 2.44153 5.67884 2.39604C5.74328 2.41958 5.82074 2.37012 5.87634 2.32514C6.04669 2.18722 6.21713 2.04923 6.38749 1.91131C6.36936 1.88903 6.35114 1.86683 6.33302 1.84455C6.5123 1.72934 6.56999 1.52095 6.51222 1.35788C6.49834 1.31872 6.47891 1.28141 6.45948 1.24427C6.42808 1.18409 6.39668 1.124 6.36528 1.06382C6.33891 1.01326 6.31046 0.960595 6.25582 0.929282C6.20117 0.897968 6.11192 0.89704 6.06257 0.942787C6.01243 0.873407 5.94321 0.806137 5.84251 0.792717C5.74181 0.779212 5.6117 0.848002 5.61673 0.931899C5.5672 0.849859 5.42452 0.820654 5.31688 0.870536C5.20923 0.920418 5.1558 1.04052 5.20455 1.12299C5.14565 0.998913 4.86688 1.0277 4.81119 1.16358C4.76427 1.10509 4.64864 1.09522 4.57292 1.14307C4.4972 1.19101 4.47647 1.28715 4.53033 1.34125C4.45001 1.30648 4.33404 1.32606 4.26465 1.38615C4.19517 1.44625 4.17913 1.54087 4.22788 1.60299C4.07591 1.57859 3.91171 1.74799 3.9818 1.85695C3.8085 1.81121 3.58384 1.97833 3.62175 2.1246C3.48947 2.01437 3.40742 2.63937 3.55383 2.74614Z" fill="url(#paint31_linear_0_531)"/>
<path id="Vector_33" opacity="0.2" d="M3.37963 2.9806C3.47834 3.05259 3.64306 3.06044 3.7703 2.99908C3.75842 3.07412 3.87769 3.10619 3.96902 3.08686C4.06036 3.06753 4.14935 3.02044 4.24025 3.02491C4.29967 3.02778 4.35197 3.05285 4.41173 3.05403C4.47141 3.05521 4.5467 3.01276 4.53326 2.96659C4.58738 3.04576 4.72894 3.05327 4.84378 3.02187C4.95862 2.99047 5.06253 2.93004 5.17711 2.89771C5.26602 2.87256 5.36221 2.86387 5.44167 2.82006C5.52112 2.77626 5.56969 2.6759 5.50464 2.63041C5.56908 2.65396 5.64654 2.6045 5.70205 2.55951C5.87241 2.4216 6.04285 2.2836 6.2132 2.14568C6.19508 2.1234 6.17686 2.1012 6.15873 2.07892C6.33802 1.96371 6.3957 1.7554 6.33793 1.59225C6.32406 1.55309 6.30463 1.51579 6.2852 1.47865C6.2538 1.41847 6.2224 1.35837 6.191 1.29819C6.16463 1.24764 6.13618 1.19497 6.08154 1.16365C6.02689 1.13234 5.93764 1.13141 5.88828 1.17716C5.83815 1.10778 5.76893 1.0406 5.66823 1.02709C5.56752 1.01359 5.43742 1.08237 5.44245 1.16627C5.39292 1.08423 5.25032 1.05503 5.14259 1.10491C5.03495 1.15479 4.98152 1.2749 5.03027 1.35736C4.97137 1.23329 4.69259 1.26207 4.63691 1.39796C4.58998 1.33955 4.47436 1.32959 4.39864 1.37745C4.32291 1.42539 4.30218 1.52152 4.35605 1.57563C4.27573 1.54085 4.15976 1.56043 4.09037 1.62053C4.02089 1.68062 4.00484 1.77524 4.05359 1.83736C3.90163 1.81297 3.73743 1.98236 3.80751 2.09133C3.63421 2.04558 3.40956 2.2127 3.44746 2.35897C3.31527 2.24882 3.23331 2.87383 3.37963 2.9806Z" fill="url(#paint32_linear_0_531)"/>
<path id="Vector_34" opacity="0.2" d="M2.65993 3.09006C2.75864 3.16205 2.92335 3.1699 3.0506 3.10854C3.03872 3.18358 3.15798 3.21565 3.24932 3.1964C3.34074 3.17708 3.42965 3.12998 3.52055 3.13437C3.57996 3.13724 3.63227 3.16231 3.69203 3.16349C3.7517 3.16467 3.82699 3.12221 3.81355 3.07605C3.86767 3.15522 4.00923 3.16273 4.12407 3.13133C4.23891 3.09993 4.34283 3.0395 4.45741 3.00717C4.54632 2.98202 4.64251 2.97333 4.72196 2.92952C4.80141 2.88572 4.84999 2.78536 4.78493 2.73987C4.84938 2.76342 4.92684 2.71396 4.98244 2.66897C5.15279 2.53106 5.32323 2.39306 5.49359 2.25514C5.47546 2.23286 5.45724 2.21066 5.43911 2.18838C5.6184 2.07317 5.67608 1.86486 5.61831 1.70171C5.60444 1.66255 5.58501 1.62524 5.56558 1.58811C5.53418 1.52793 5.50278 1.46783 5.47138 1.40765C5.44501 1.35709 5.41656 1.30434 5.36192 1.27311C5.30736 1.2418 5.21802 1.24087 5.16866 1.28662C5.11853 1.21724 5.04931 1.14997 4.94861 1.13647C4.8479 1.12296 4.7178 1.19175 4.72283 1.27565C4.6733 1.19361 4.5307 1.1644 4.42297 1.21429C4.31533 1.26417 4.2619 1.38427 4.31065 1.46674C4.25175 1.34266 3.97297 1.37144 3.91729 1.50733C3.87036 1.44893 3.75474 1.43897 3.67893 1.48682C3.60321 1.53476 3.58248 1.6309 3.63634 1.685C3.55602 1.65023 3.44005 1.66981 3.37066 1.7299C3.30119 1.79 3.28514 1.88461 3.33389 1.94673C3.18192 1.92234 3.01772 2.09174 3.08781 2.2007C2.91451 2.15496 2.68985 2.32208 2.72776 2.46835C2.59557 2.35828 2.5136 2.98329 2.65993 3.09006Z" fill="url(#paint33_linear_0_531)"/>
<path id="Vector_35" opacity="0.2" d="M2.17124 3.17005C2.26994 3.24205 2.43457 3.2499 2.56191 3.18854C2.55002 3.26357 2.66929 3.29564 2.76062 3.27631C2.85205 3.25699 2.94095 3.20989 3.03185 3.21436C3.09127 3.21723 3.14366 3.2423 3.20334 3.24348C3.26301 3.24466 3.3383 3.20221 3.32486 3.15604C3.37898 3.23521 3.52054 3.24272 3.63538 3.21132C3.75022 3.17993 3.85413 3.11949 3.96872 3.08717C4.05762 3.06201 4.15382 3.05332 4.23327 3.00952C4.31272 2.96571 4.36129 2.86536 4.29633 2.81986C4.36077 2.84341 4.43823 2.79395 4.49383 2.74896C4.66418 2.61105 4.83454 2.47305 5.00498 2.33514C4.98685 2.31286 4.96864 2.29066 4.95051 2.26837C5.1298 2.15316 5.18748 1.94486 5.12971 1.78171C5.11583 1.74254 5.0964 1.70524 5.07697 1.6681C5.04557 1.60792 5.01417 1.54783 4.98278 1.48765C4.95632 1.43709 4.92796 1.38442 4.87331 1.35311C4.81867 1.32179 4.72941 1.32087 4.68006 1.36661C4.62992 1.29723 4.56071 1.23005 4.46 1.21654C4.35939 1.20304 4.22919 1.27191 4.23422 1.35573C4.18469 1.27369 4.0421 1.24448 3.93437 1.29436C3.82673 1.34424 3.77321 1.46435 3.82204 1.54681C3.76315 1.42274 3.48437 1.45152 3.42868 1.58741C3.38176 1.52892 3.26614 1.51904 3.19041 1.5669C3.11469 1.61484 3.09396 1.71098 3.14782 1.76508C3.0675 1.73031 2.95154 1.74989 2.88214 1.80998C2.81275 1.87008 2.79662 1.96469 2.84537 2.02681C2.6934 2.00242 2.52921 2.17182 2.59929 2.28078C2.42599 2.23495 2.20133 2.40215 2.23924 2.54842C2.10688 2.43819 2.02491 3.0632 2.17124 3.17005Z" fill="url(#paint34_linear_0_531)"/>
<path id="Vector_36" opacity="0.2" d="M3.48157 3.31654C3.58027 3.38853 3.7449 3.39638 3.87224 3.33502C3.86035 3.41006 3.97962 3.44213 4.07095 3.4228C4.16229 3.40347 4.25128 3.35638 4.34219 3.36085C4.4016 3.36372 4.4539 3.38879 4.51367 3.38997C4.57343 3.39115 4.64863 3.34869 4.63519 3.30253C4.68931 3.3817 4.83087 3.38912 4.94571 3.35781C5.06055 3.32641 5.16446 3.26598 5.27905 3.23365C5.36795 3.2085 5.46415 3.19981 5.5436 3.156C5.62305 3.1122 5.67162 3.01184 5.60666 2.96635C5.6711 2.9899 5.74856 2.94044 5.80407 2.89545C5.97443 2.75745 6.14487 2.61954 6.31522 2.48162C6.29709 2.45934 6.27888 2.43714 6.26075 2.41486C6.44004 2.29965 6.49772 2.09134 6.43995 1.92819C6.42607 1.88903 6.40664 1.85172 6.38722 1.81459C6.35582 1.75441 6.32442 1.69431 6.29302 1.63413C6.26656 1.58357 6.2382 1.53091 6.18355 1.49959C6.12891 1.46828 6.03966 1.46735 5.9903 1.5131C5.94017 1.44372 5.87095 1.37645 5.77025 1.36303C5.66954 1.34952 5.53935 1.41831 5.54447 1.50221C5.49494 1.42017 5.35234 1.39097 5.24461 1.44093C5.13697 1.49082 5.08354 1.61092 5.13229 1.69338C5.07339 1.56931 4.79461 1.59809 4.73893 1.73398C4.692 1.67549 4.57638 1.66561 4.50066 1.71347C4.42493 1.76141 4.4042 1.85755 4.45807 1.91165C4.37775 1.87687 4.26178 1.89646 4.19239 1.95655C4.123 2.01665 4.10686 2.11126 4.15561 2.17338C4.00365 2.14899 3.83945 2.31839 3.90953 2.42735C3.73623 2.38152 3.51158 2.54872 3.54948 2.69499C3.41721 2.58468 3.33524 3.20968 3.48157 3.31654Z" fill="url(#paint35_linear_0_531)"/>
<path id="Vector_37" opacity="0.2" d="M4.38414 3.16037C4.48285 3.23245 4.64748 3.24021 4.77481 3.17885C4.76293 3.25389 4.8822 3.28596 4.97353 3.26663C5.06487 3.2473 5.15386 3.20021 5.24476 3.20468C5.30418 3.20755 5.35648 3.23262 5.41624 3.2338C5.47592 3.23498 5.55121 3.19252 5.53776 3.14636C5.59189 3.22553 5.73345 3.23296 5.84829 3.20156C5.96313 3.17016 6.06704 3.10973 6.18162 3.0774C6.27053 3.05225 6.36672 3.04355 6.44618 2.99975C6.52563 2.95594 6.5742 2.85567 6.50915 2.8101C6.57359 2.83364 6.65105 2.78418 6.70665 2.7392C6.87701 2.60128 7.04745 2.46328 7.2178 2.32537C7.19967 2.30309 7.18146 2.28089 7.16333 2.25861C7.34262 2.1434 7.4003 1.93509 7.34253 1.77194C7.32865 1.73278 7.30922 1.69547 7.28979 1.65833C7.25839 1.59815 7.227 1.53806 7.1956 1.47788C7.16923 1.42732 7.14078 1.37457 7.08613 1.34334C7.03149 1.31203 6.94223 1.31101 6.89288 1.35684C6.84274 1.28747 6.77353 1.2202 6.67282 1.20678C6.57221 1.19327 6.44201 1.26214 6.44704 1.34596C6.39752 1.26392 6.25492 1.23471 6.14719 1.2846C6.03955 1.33448 5.98603 1.45458 6.03486 1.53705C5.97597 1.41297 5.69719 1.44175 5.6415 1.57764C5.59458 1.51915 5.47896 1.50928 5.40323 1.55713C5.32751 1.60508 5.30678 1.70121 5.36065 1.75531C5.28033 1.72054 5.16436 1.74012 5.09497 1.80022C5.02557 1.86031 5.00944 1.95493 5.05819 2.01705C4.90622 1.99265 4.74203 2.16205 4.81211 2.27101C4.63889 2.22527 4.41416 2.39239 4.45206 2.53866C4.31978 2.42851 4.23782 3.05351 4.38414 3.16037Z" fill="url(#paint36_linear_0_531)"/>
<path id="Vector_38" opacity="0.2" d="M4.85545 2.2306C4.95416 2.30259 5.11879 2.31044 5.24612 2.24908C5.23424 2.32412 5.3535 2.35619 5.44484 2.33686C5.53618 2.31753 5.62517 2.27044 5.71607 2.27491C5.77549 2.27778 5.82779 2.30285 5.88755 2.30403C5.94723 2.30521 6.02252 2.26275 6.00907 2.21659C6.0632 2.29576 6.20475 2.30327 6.3196 2.27187C6.43444 2.24047 6.53835 2.18004 6.65293 2.14772C6.74184 2.12256 6.83803 2.11387 6.91748 2.07006C6.99694 2.02626 7.04551 1.92599 6.98046 1.88041C7.0449 1.90396 7.12236 1.8545 7.17796 1.80951C7.34831 1.6716 7.51867 1.5336 7.68911 1.39568C7.67098 1.3734 7.65277 1.3512 7.63464 1.32892C7.81393 1.21371 7.87161 1.0054 7.81384 0.842254C7.79996 0.803091 7.78053 0.765784 7.7611 0.728646C7.7297 0.668467 7.6983 0.608372 7.6669 0.548193C7.64045 0.497636 7.61209 0.444969 7.55744 0.413655C7.50279 0.382342 7.41354 0.381329 7.36419 0.42716C7.31405 0.357781 7.24484 0.29051 7.14413 0.27709C7.04352 0.263586 6.91332 0.33246 6.91835 0.416272C6.86882 0.334232 6.72623 0.305027 6.6185 0.354909C6.51077 0.404792 6.45734 0.524899 6.50617 0.607361C6.44728 0.483289 6.1685 0.512069 6.11281 0.647958C6.06589 0.589467 5.95026 0.57959 5.87446 0.627447C5.79873 0.675388 5.778 0.771525 5.83187 0.825627C5.75155 0.790853 5.63558 0.810433 5.56619 0.870528C5.4968 0.930623 5.48066 1.02524 5.52941 1.08736C5.37744 1.06297 5.21325 1.23236 5.28333 1.34133C5.11003 1.29558 4.88538 1.4627 4.92328 1.60897C4.79109 1.49874 4.70904 2.12374 4.85545 2.2306Z" fill="url(#paint37_linear_0_531)"/>
<path id="Vector_39" opacity="0.2" d="M1.8603 2.66224C1.95901 2.73423 2.12364 2.74208 2.25097 2.68072C2.23909 2.75576 2.35835 2.78783 2.44969 2.7685C2.54102 2.74917 2.63002 2.70208 2.72092 2.70655C2.78033 2.70942 2.83272 2.73449 2.8924 2.73567C2.95208 2.73685 3.02736 2.6944 3.01392 2.64823C3.06804 2.7274 3.2096 2.73491 3.32444 2.70351C3.43929 2.67211 3.5432 2.61168 3.65778 2.57936C3.74669 2.5542 3.84288 2.54551 3.92233 2.5017C4.00178 2.4579 4.05036 2.35754 3.98539 2.31205C4.04984 2.3356 4.12729 2.28614 4.18289 2.24115C4.35325 2.10315 4.52369 1.96524 4.69404 1.82733C4.67591 1.80504 4.6577 1.78284 4.63957 1.76056C4.81886 1.64535 4.87654 1.43705 4.81886 1.27389C4.80498 1.23473 4.78555 1.19742 4.76612 1.16029C4.73472 1.10011 4.70332 1.04001 4.67192 0.979834C4.64556 0.929276 4.61711 0.876609 4.56246 0.845296C4.50781 0.813982 4.41856 0.813054 4.36921 0.858801C4.31907 0.789421 4.24986 0.722151 4.14915 0.708731C4.04845 0.695226 3.91825 0.764101 3.92337 0.847913C3.87384 0.765873 3.73125 0.73667 3.62352 0.786553C3.51587 0.836435 3.46244 0.95654 3.51119 1.039C3.4523 0.914929 3.17352 0.94371 3.11783 1.0796C3.07091 1.02111 2.95528 1.01123 2.87956 1.05909C2.80384 1.10703 2.78311 1.20317 2.83697 1.25727C2.75665 1.22249 2.64068 1.24207 2.57129 1.30217C2.50182 1.36226 2.48577 1.45688 2.53452 1.519C2.38255 1.49461 2.21836 1.664 2.28844 1.77297C2.11522 1.72722 1.89048 1.89434 1.92839 2.04061C1.79594 1.93047 1.71397 2.55547 1.8603 2.66224Z" fill="url(#paint38_linear_0_531)"/>
<path id="Vector_40" opacity="0.2" d="M1.67795 2.346C1.77666 2.41799 1.94138 2.42584 2.06862 2.36448C2.05674 2.43952 2.176 2.47159 2.26734 2.45226C2.35868 2.43293 2.44767 2.38583 2.53857 2.39031C2.59799 2.39318 2.65029 2.41825 2.71005 2.41943C2.76973 2.42061 2.84502 2.37815 2.83157 2.33198C2.8857 2.41115 3.02726 2.41858 3.1421 2.38727C3.25694 2.35587 3.36085 2.29544 3.47543 2.26311C3.56434 2.23796 3.66053 2.22927 3.73998 2.18546C3.81944 2.14166 3.86801 2.0413 3.80296 1.99581C3.8674 2.01936 3.94486 1.9699 4.00037 1.92491C4.17073 1.78691 4.34117 1.649 4.51152 1.51108C4.49339 1.4888 4.47518 1.4666 4.45705 1.44432C4.63634 1.32911 4.69402 1.1208 4.63625 0.957652C4.62237 0.918489 4.60294 0.881183 4.58352 0.844045C4.55212 0.783866 4.52072 0.723771 4.48932 0.663592C4.46286 0.613034 4.4345 0.560283 4.37985 0.529054C4.32521 0.49774 4.23595 0.496728 4.1866 0.542559C4.13647 0.473179 4.06725 0.405993 3.96655 0.392489C3.86584 0.378984 3.73565 0.447774 3.74077 0.531671C3.69124 0.449631 3.54864 0.420429 3.44091 0.470311C3.33327 0.520193 3.27984 0.640298 3.32858 0.72276C3.26969 0.598687 2.99091 0.627468 2.93523 0.763357C2.8883 0.704865 2.77268 0.694989 2.69696 0.742846C2.62123 0.790787 2.6005 0.886923 2.65437 0.941026C2.57405 0.906252 2.45808 0.925832 2.38869 0.985927C2.31921 1.04602 2.30316 1.14064 2.35191 1.20276C2.19994 1.17837 2.03575 1.34776 2.10583 1.45673C1.93253 1.41098 1.70788 1.5781 1.74578 1.72437C1.61359 1.61422 1.53163 2.23923 1.67795 2.346Z" fill="url(#paint39_linear_0_531)"/>
<path id="Vector_41" opacity="0.2" d="M1.56067 2.60186C1.65938 2.67386 1.82401 2.68171 1.95134 2.62034C1.93946 2.69538 2.05872 2.72745 2.15006 2.70821C2.24148 2.68888 2.33039 2.64178 2.42129 2.64617C2.48071 2.64904 2.5331 2.67411 2.59277 2.67529C2.65245 2.67647 2.72774 2.63402 2.71429 2.58785C2.76842 2.66702 2.90998 2.67445 3.02482 2.64305C3.13966 2.61165 3.24357 2.55122 3.35815 2.51889C3.44706 2.49374 3.54325 2.48505 3.6227 2.44124C3.70216 2.39744 3.75073 2.29708 3.68576 2.25159C3.75021 2.27514 3.82767 2.22568 3.88327 2.18069C4.05362 2.04277 4.22406 1.90478 4.39442 1.76686C4.37629 1.74458 4.35807 1.72238 4.33994 1.7001C4.51932 1.58489 4.57691 1.37658 4.51923 1.21343C4.50535 1.17427 4.48592 1.13696 4.4665 1.09982C4.4351 1.03965 4.4037 0.97955 4.3723 0.919371C4.34584 0.868813 4.31748 0.816146 4.26283 0.784833C4.20819 0.753519 4.11893 0.752591 4.06958 0.798338C4.01945 0.728959 3.95023 0.661774 3.84953 0.648186C3.74891 0.634681 3.61871 0.703468 3.62375 0.787365C3.57422 0.705325 3.43162 0.676123 3.32389 0.726005C3.21625 0.775887 3.16273 0.895992 3.21156 0.978369C3.15267 0.854297 2.87389 0.883079 2.81821 1.01897C2.77128 0.960477 2.65566 0.950601 2.57994 0.998457C2.50421 1.0464 2.48348 1.14253 2.53735 1.19663C2.45703 1.16186 2.34106 1.18144 2.27167 1.24154C2.20228 1.30163 2.18614 1.39625 2.23489 1.45837C2.08292 1.43398 1.91873 1.60337 1.98881 1.71234C1.81551 1.66659 1.59086 1.83371 1.62876 1.97998C1.49631 1.87 1.41426 2.49501 1.56067 2.60186Z" fill="url(#paint40_linear_0_531)"/>
<path id="Vector_42" opacity="0.2" d="M1.63703 2.84974C1.73573 2.92182 1.90036 2.92958 2.0277 2.86822C2.01581 2.94325 2.13508 2.97533 2.22641 2.956C2.31783 2.93667 2.40674 2.88957 2.49764 2.89405C2.55706 2.89692 2.60936 2.92199 2.66913 2.92317C2.7288 2.92435 2.80409 2.8819 2.79065 2.83573C2.84477 2.9149 2.98633 2.92241 3.10117 2.89101C3.21601 2.85961 3.31992 2.79918 3.43451 2.76685C3.52341 2.7417 3.6196 2.73301 3.69906 2.6892C3.77851 2.6454 3.82708 2.54513 3.76212 2.49955C3.82656 2.5231 3.90402 2.47364 3.95962 2.42865C4.12997 2.29073 4.30041 2.15274 4.47077 2.01482C4.45264 1.99254 4.43442 1.97034 4.4163 1.94806C4.59558 1.83285 4.65327 1.62454 4.5955 1.46139C4.58162 1.42223 4.56219 1.38492 4.54276 1.34778C4.51136 1.28761 4.47996 1.22751 4.44856 1.16733C4.42219 1.11677 4.39374 1.06402 4.3391 1.03279C4.28454 1.00148 4.1952 1.00047 4.14585 1.0463C4.09571 0.976919 4.02649 0.909651 3.92579 0.896231C3.82517 0.882726 3.69498 0.951598 3.70001 1.03541C3.65048 0.95337 3.50789 0.924168 3.40016 0.97405C3.29251 1.02393 3.239 1.14404 3.28783 1.22641C3.22894 1.10234 2.95016 1.13112 2.89447 1.26701C2.84755 1.20852 2.73192 1.19865 2.6562 1.2465C2.58048 1.29444 2.55975 1.39058 2.61361 1.44468C2.53329 1.40991 2.41732 1.42949 2.34793 1.48958C2.27846 1.54968 2.26241 1.64429 2.31116 1.70641C2.15919 1.68202 1.99499 1.85142 2.06508 1.96038C1.89178 1.91464 1.66712 2.08175 1.70503 2.22802C1.57258 2.11788 1.49061 2.74288 1.63703 2.84974Z" fill="url(#paint41_linear_0_531)"/>
<path id="Vector_43" opacity="0.2" d="M7.10365 2.52345C7.20236 2.59544 7.36699 2.60329 7.49432 2.54193C7.48243 2.61696 7.6017 2.64904 7.69304 2.62971C7.78437 2.61038 7.87336 2.56328 7.96427 2.56776C8.0236 2.57063 8.07599 2.59569 8.13575 2.59688C8.19542 2.59806 8.27071 2.5556 8.25727 2.50943C8.31139 2.5886 8.45295 2.59611 8.56779 2.56472C8.68263 2.53332 8.78655 2.47289 8.90113 2.44056C8.99004 2.41541 9.08623 2.40672 9.16568 2.36291C9.24513 2.3191 9.29371 2.21883 9.22874 2.17326C9.29319 2.1968 9.37064 2.14734 9.42624 2.10236C9.5966 1.96444 9.76695 1.82645 9.93739 1.68853C9.91926 1.66625 9.90105 1.64405 9.88292 1.62177C10.0623 1.50656 10.1199 1.29825 10.0622 1.1351C10.0483 1.09594 10.0289 1.05863 10.0095 1.02149C9.97807 0.961314 9.94667 0.901219 9.91527 0.84104C9.88882 0.790482 9.86045 0.737731 9.80581 0.706502C9.75116 0.675188 9.66191 0.674176 9.61256 0.720007C9.56234 0.650627 9.4932 0.583357 9.3925 0.569937C9.2918 0.556432 9.16169 0.625307 9.16672 0.709119C9.11719 0.627079 8.97451 0.597874 8.86687 0.647756C8.75922 0.697723 8.70579 0.817743 8.75454 0.900205C8.69565 0.776133 8.41687 0.804916 8.36118 0.940804C8.31426 0.882398 8.19863 0.872437 8.12291 0.920294C8.04719 0.96815 8.02646 1.06437 8.08032 1.11847C8 1.0837 7.88403 1.10328 7.81464 1.16337C7.74517 1.22347 7.72912 1.31809 7.77787 1.38021C7.6259 1.35581 7.46171 1.52521 7.53179 1.63409C7.35849 1.58834 7.13383 1.75546 7.17174 1.90173C7.03929 1.79167 6.95732 2.41668 7.10365 2.52345Z" fill="url(#paint42_linear_0_531)"/>
<path id="Vector_44" opacity="0.2" d="M7.41356 2.18576C7.51227 2.25775 7.6769 2.2656 7.80423 2.20424C7.79235 2.27928 7.91161 2.31135 8.00294 2.29211C8.09437 2.27278 8.18328 2.22568 8.27418 2.23007C8.33351 2.23294 8.3859 2.25801 8.44566 2.25919C8.50533 2.26037 8.58062 2.21792 8.56718 2.17175C8.6213 2.25092 8.76286 2.25835 8.8777 2.22695C8.99254 2.19555 9.09646 2.13512 9.21104 2.10279C9.29994 2.07764 9.39614 2.06894 9.47559 2.02514C9.55504 1.98133 9.60362 1.88106 9.53865 1.83549C9.60309 1.85904 9.68055 1.80958 9.73615 1.76459C9.90651 1.62667 10.0769 1.48867 10.2473 1.35076C10.2292 1.32848 10.211 1.30628 10.1928 1.284C10.3722 1.16879 10.4298 0.96048 10.3721 0.797329C10.3582 0.758166 10.3388 0.720862 10.3194 0.683725C10.288 0.623545 10.2566 0.56345 10.2252 0.503271C10.1988 0.452714 10.1704 0.400044 10.1157 0.368731C10.0612 0.337417 9.97182 0.336489 9.92247 0.382235C9.87233 0.312856 9.80311 0.245673 9.70241 0.232168C9.60179 0.218664 9.4716 0.287536 9.47663 0.371348C9.4271 0.289308 9.28442 0.260105 9.17678 0.309988C9.06913 0.35987 9.0157 0.479975 9.06445 0.562437C9.00555 0.438364 8.72678 0.467145 8.67109 0.603033C8.62417 0.544542 8.50854 0.534669 8.43282 0.582525C8.3571 0.630466 8.33637 0.7266 8.39023 0.780703C8.30991 0.745929 8.19394 0.765511 8.12455 0.825606C8.05508 0.885701 8.03903 0.980317 8.08778 1.04244C7.93581 1.01804 7.77161 1.18744 7.8417 1.29641C7.6684 1.25066 7.44374 1.41778 7.48165 1.56405C7.3492 1.45399 7.26723 2.07899 7.41356 2.18576Z" fill="url(#paint43_linear_0_531)"/>
<path id="Vector_45" opacity="0.2" d="M7.03816 1.9924C7.13686 2.06439 7.30149 2.07224 7.42883 2.01088C7.41694 2.08592 7.53621 2.11799 7.62754 2.09866C7.71888 2.07933 7.80787 2.03224 7.89877 2.03671C7.9581 2.03958 8.01049 2.06465 8.07026 2.06583C8.12993 2.06701 8.20522 2.02456 8.19178 1.97839C8.2459 2.05756 8.38746 2.06507 8.5023 2.03359C8.61714 2.00219 8.72105 1.94176 8.83564 1.90943C8.92454 1.88428 9.02074 1.87558 9.10019 1.83178C9.17964 1.78797 9.22821 1.68771 9.16316 1.64213C9.22761 1.66568 9.30506 1.61621 9.36066 1.57123C9.53102 1.43331 9.70137 1.29531 9.87181 1.1574C9.85368 1.13512 9.83547 1.11292 9.81734 1.09064C9.99663 0.975426 10.0543 0.767121 9.99654 0.60397C9.98266 0.564807 9.96323 0.5275 9.94381 0.490363C9.91241 0.430183 9.88101 0.370088 9.84961 0.309909C9.82324 0.259352 9.79479 0.206685 9.74014 0.175371C9.6855 0.144058 9.59624 0.143045 9.54689 0.188876C9.49676 0.119497 9.42754 0.052229 9.32683 0.0388089C9.22613 0.0253045 9.09602 0.0941762 9.10105 0.177988C9.05153 0.0959486 8.90893 0.0667461 8.8012 0.116628C8.69356 0.16651 8.64004 0.286615 8.68887 0.369077C8.62998 0.245005 8.3512 0.273785 8.29552 0.409674C8.24859 0.351183 8.13297 0.341309 8.05716 0.389166C7.98144 0.437107 7.96071 0.533241 8.01457 0.587343C7.93425 0.552569 7.81828 0.572149 7.74889 0.632244C7.6795 0.692339 7.66337 0.786955 7.71211 0.849075C7.56015 0.824683 7.39595 0.99408 7.46604 1.10304C7.29273 1.0573 7.06808 1.22442 7.10599 1.37069C6.97371 1.26063 6.89174 1.88563 7.03816 1.9924Z" fill="url(#paint44_linear_0_531)"/>
<path id="Vector_46" opacity="0.2" d="M6.83221 1.95521C6.93091 2.0272 7.09554 2.03505 7.22287 1.97369C7.21099 2.04873 7.33026 2.0808 7.42159 2.06147C7.51301 2.04214 7.60192 1.99505 7.69282 1.99952C7.75224 2.00239 7.80463 2.02746 7.86431 2.02864C7.92407 2.02974 7.99927 1.98737 7.98583 1.9412C8.03995 2.02037 8.18151 2.02788 8.29635 1.99648C8.41119 1.96508 8.5151 1.90465 8.62968 1.87232C8.71859 1.84717 8.81478 1.83848 8.89424 1.79467C8.97369 1.75087 9.02226 1.65051 8.9573 1.60502C9.02174 1.62857 9.0992 1.57911 9.15471 1.53412C9.32507 1.39621 9.49551 1.25821 9.66586 1.12029C9.64773 1.09801 9.62952 1.07581 9.61139 1.05353C9.79068 0.938321 9.84836 0.730014 9.79059 0.566947C9.77671 0.527784 9.75728 0.49048 9.73785 0.453343C9.70645 0.393163 9.67506 0.333068 9.64366 0.272889C9.61729 0.222332 9.58884 0.169578 9.53419 0.138349C9.47955 0.107119 9.39029 0.106107 9.34094 0.151853C9.29081 0.0824741 9.22159 0.0152056 9.12088 0.00170117C9.02027 -0.0118033 8.89007 0.0569866 8.89519 0.140883C8.84566 0.0588434 8.70298 0.0296383 8.59534 0.0795205C8.48769 0.129403 8.43426 0.249508 8.48301 0.331969C8.42411 0.207897 8.14534 0.23668 8.08965 0.372569C8.04273 0.314078 7.9271 0.304201 7.85138 0.352058C7.77566 0.399999 7.75493 0.496133 7.80871 0.550235C7.72839 0.515461 7.61242 0.535044 7.54303 0.595139C7.47364 0.655234 7.4575 0.74985 7.50625 0.81197C7.35428 0.787578 7.19009 0.956975 7.26017 1.06594C7.08687 1.02019 6.86222 1.18731 6.90012 1.33358C6.76785 1.22343 6.68579 1.84844 6.83221 1.95521Z" fill="url(#paint45_linear_0_531)"/>
</g>
<defs>
<linearGradient id="paint0_linear_0_531" x1="1.63596" y1="1.31445" x2="1.63596" y2="3.38156" gradientUnits="userSpaceOnUse">
<stop stop-color="white"/>
<stop offset="1" stop-color="white"/>
</linearGradient>
<linearGradient id="paint1_linear_0_531" x1="1.59289" y1="1.16992" x2="1.59289" y2="3.23699" gradientUnits="userSpaceOnUse">
<stop stop-color="white"/>
<stop offset="1" stop-color="white"/>
</linearGradient>
<linearGradient id="paint2_linear_0_531" x1="1.52883" y1="0.959025" x2="1.52883" y2="3.02617" gradientUnits="userSpaceOnUse">
<stop stop-color="white"/>
<stop offset="1" stop-color="white"/>
</linearGradient>
<linearGradient id="paint3_linear_0_531" x1="2.09033" y1="0.738281" x2="2.09033" y2="2.80526" gradientUnits="userSpaceOnUse">
<stop stop-color="white"/>
<stop offset="1" stop-color="white"/>
</linearGradient>
<linearGradient id="paint4_linear_0_531" x1="2.04624" y1="0.910156" x2="2.04624" y2="2.97731" gradientUnits="userSpaceOnUse">
<stop stop-color="white"/>
<stop offset="1" stop-color="white"/>
</linearGradient>
<linearGradient id="paint5_linear_0_531" x1="1.97143" y1="1.0627" x2="1.97143" y2="3.12977" gradientUnits="userSpaceOnUse">
<stop stop-color="white"/>
<stop offset="1" stop-color="white"/>
</linearGradient>
<linearGradient id="paint6_linear_0_531" x1="2.00419" y1="1.16797" x2="2.00419" y2="3.23516" gradientUnits="userSpaceOnUse">
<stop stop-color="white"/>
<stop offset="1" stop-color="white"/>
</linearGradient>
<linearGradient id="paint7_linear_0_531" x1="1.68459" y1="1.08789" x2="1.68459" y2="3.155" gradientUnits="userSpaceOnUse">
<stop stop-color="white"/>
<stop offset="1" stop-color="white"/>
</linearGradient>
<linearGradient id="paint8_linear_0_531" x1="2.0672" y1="0.978516" x2="2.0672" y2="3.04549" gradientUnits="userSpaceOnUse">
<stop stop-color="white"/>
<stop offset="1" stop-color="white"/>
</linearGradient>
<linearGradient id="paint9_linear_0_531" x1="2.47699" y1="0.970703" x2="2.47699" y2="3.0379" gradientUnits="userSpaceOnUse">
<stop stop-color="white"/>
<stop offset="1" stop-color="white"/>
</linearGradient>
<linearGradient id="paint10_linear_0_531" x1="2.42633" y1="1.19922" x2="2.42633" y2="3.26628" gradientUnits="userSpaceOnUse">
<stop stop-color="white"/>
<stop offset="1" stop-color="white"/>
</linearGradient>
<linearGradient id="paint11_linear_0_531" x1="2.69836" y1="1.30273" x2="2.69836" y2="3.36971" gradientUnits="userSpaceOnUse">
<stop stop-color="white"/>
<stop offset="1" stop-color="white"/>
</linearGradient>
<linearGradient id="paint12_linear_0_531" x1="2.80743" y1="1.01562" x2="2.80743" y2="3.0826" gradientUnits="userSpaceOnUse">
<stop stop-color="white"/>
<stop offset="1" stop-color="white"/>
</linearGradient>
<linearGradient id="paint13_linear_0_531" x1="2.95031" y1="0.833984" x2="2.95031" y2="2.90112" gradientUnits="userSpaceOnUse">
<stop stop-color="white"/>
<stop offset="1" stop-color="white"/>
</linearGradient>
<linearGradient id="paint14_linear_0_531" x1="2.6471" y1="0.488485" x2="2.6471" y2="2.55555" gradientUnits="userSpaceOnUse">
<stop stop-color="white"/>
<stop offset="1" stop-color="white"/>
</linearGradient>
<linearGradient id="paint15_linear_0_531" x1="2.8074" y1="0.365234" x2="2.8074" y2="2.4323" gradientUnits="userSpaceOnUse">
<stop stop-color="white"/>
<stop offset="1" stop-color="white"/>
</linearGradient>
<linearGradient id="paint16_linear_0_531" x1="3.43287" y1="0.261719" x2="3.43287" y2="2.32891" gradientUnits="userSpaceOnUse">
<stop stop-color="white"/>
<stop offset="1" stop-color="white"/>
</linearGradient>
<linearGradient id="paint17_linear_0_531" x1="3.79302" y1="0.539063" x2="3.79302" y2="2.60629" gradientUnits="userSpaceOnUse">
<stop stop-color="white"/>
<stop offset="1" stop-color="white"/>
</linearGradient>
<linearGradient id="paint18_linear_0_531" x1="3.99269" y1="0.75" x2="3.99269" y2="2.81715" gradientUnits="userSpaceOnUse">
<stop stop-color="white"/>
<stop offset="1" stop-color="white"/>
</linearGradient>
<linearGradient id="paint19_linear_0_531" x1="3.66186" y1="1.01758" x2="3.66186" y2="3.08456" gradientUnits="userSpaceOnUse">
<stop stop-color="white"/>
<stop offset="1" stop-color="white"/>
</linearGradient>
<linearGradient id="paint20_linear_0_531" x1="3.39033" y1="1.0957" x2="3.39033" y2="3.1629" gradientUnits="userSpaceOnUse">
<stop stop-color="white"/>
<stop offset="1" stop-color="white"/>
</linearGradient>
<linearGradient id="paint21_linear_0_531" x1="1.77014" y1="0.728516" x2="1.77014" y2="2.7955" gradientUnits="userSpaceOnUse">
<stop stop-color="white"/>
<stop offset="1" stop-color="white"/>
</linearGradient>
<linearGradient id="paint22_linear_0_531" x1="1.59081" y1="0.777344" x2="1.59081" y2="2.84449" gradientUnits="userSpaceOnUse">
<stop stop-color="white"/>
<stop offset="1" stop-color="white"/>
</linearGradient>
<linearGradient id="paint23_linear_0_531" x1="1.66306" y1="1.01758" x2="1.66306" y2="3.08464" gradientUnits="userSpaceOnUse">
<stop stop-color="white"/>
<stop offset="1" stop-color="white"/>
</linearGradient>
<linearGradient id="paint24_linear_0_531" x1="2.30031" y1="1.23633" x2="2.30031" y2="3.30339" gradientUnits="userSpaceOnUse">
<stop stop-color="white"/>
<stop offset="1" stop-color="white"/>
</linearGradient>
<linearGradient id="paint25_linear_0_531" x1="3.37652" y1="1.18164" x2="3.37652" y2="3.24883" gradientUnits="userSpaceOnUse">
<stop stop-color="white"/>
<stop offset="1" stop-color="white"/>
</linearGradient>
<linearGradient id="paint26_linear_0_531" x1="4.38413" y1="0.996094" x2="4.38413" y2="3.06307" gradientUnits="userSpaceOnUse">
<stop stop-color="white"/>
<stop offset="1" stop-color="white"/>
</linearGradient>
<linearGradient id="paint27_linear_0_531" x1="4.94602" y1="0.763631" x2="4.94602" y2="2.83069" gradientUnits="userSpaceOnUse">
<stop stop-color="white"/>
<stop offset="1" stop-color="white"/>
</linearGradient>
<linearGradient id="paint28_linear_0_531" x1="5.11609" y1="0.523438" x2="5.11609" y2="2.5905" gradientUnits="userSpaceOnUse">
<stop stop-color="white"/>
<stop offset="1" stop-color="white"/>
</linearGradient>
<linearGradient id="paint29_linear_0_531" x1="4.84053" y1="0.392782" x2="4.84053" y2="2.45997" gradientUnits="userSpaceOnUse">
<stop stop-color="white"/>
<stop offset="1" stop-color="white"/>
</linearGradient>
<linearGradient id="paint30_linear_0_531" x1="4.80217" y1="0.515625" x2="4.80217" y2="2.58269" gradientUnits="userSpaceOnUse">
<stop stop-color="white"/>
<stop offset="1" stop-color="white"/>
</linearGradient>
<linearGradient id="paint31_linear_0_531" x1="5.00495" y1="0.791016" x2="5.00495" y2="2.85799" gradientUnits="userSpaceOnUse">
<stop stop-color="white"/>
<stop offset="1" stop-color="white"/>
</linearGradient>
<linearGradient id="paint32_linear_0_531" x1="4.83073" y1="1.02539" x2="4.83073" y2="3.09237" gradientUnits="userSpaceOnUse">
<stop stop-color="white"/>
<stop offset="1" stop-color="white"/>
</linearGradient>
<linearGradient id="paint33_linear_0_531" x1="4.11106" y1="1.13477" x2="4.11106" y2="3.20187" gradientUnits="userSpaceOnUse">
<stop stop-color="white"/>
<stop offset="1" stop-color="white"/>
</linearGradient>
<linearGradient id="paint34_linear_0_531" x1="3.62242" y1="1.21484" x2="3.62242" y2="3.28182" gradientUnits="userSpaceOnUse">
<stop stop-color="white"/>
<stop offset="1" stop-color="white"/>
</linearGradient>
<linearGradient id="paint35_linear_0_531" x1="4.93271" y1="1.36133" x2="4.93271" y2="3.42831" gradientUnits="userSpaceOnUse">
<stop stop-color="white"/>
<stop offset="1" stop-color="white"/>
</linearGradient>
<linearGradient id="paint36_linear_0_531" x1="5.83528" y1="1.20508" x2="5.83528" y2="3.27214" gradientUnits="userSpaceOnUse">
<stop stop-color="white"/>
<stop offset="1" stop-color="white"/>
</linearGradient>
<linearGradient id="paint37_linear_0_531" x1="6.30657" y1="0.275391" x2="6.30657" y2="2.34237" gradientUnits="userSpaceOnUse">
<stop stop-color="white"/>
<stop offset="1" stop-color="white"/>
</linearGradient>
<linearGradient id="paint38_linear_0_531" x1="3.3115" y1="0.707031" x2="3.3115" y2="2.77401" gradientUnits="userSpaceOnUse">
<stop stop-color="white"/>
<stop offset="1" stop-color="white"/>
</linearGradient>
<linearGradient id="paint39_linear_0_531" x1="3.12905" y1="0.390788" x2="3.12905" y2="2.45777" gradientUnits="userSpaceOnUse">
<stop stop-color="white"/>
<stop offset="1" stop-color="white"/>
</linearGradient>
<linearGradient id="paint40_linear_0_531" x1="3.01186" y1="0.646484" x2="3.01186" y2="2.71368" gradientUnits="userSpaceOnUse">
<stop stop-color="white"/>
<stop offset="1" stop-color="white"/>
</linearGradient>
<linearGradient id="paint41_linear_0_531" x1="3.08818" y1="0.894531" x2="3.08818" y2="2.96151" gradientUnits="userSpaceOnUse">
<stop stop-color="white"/>
<stop offset="1" stop-color="white"/>
</linearGradient>
<linearGradient id="paint42_linear_0_531" x1="8.55486" y1="0.568237" x2="8.55486" y2="2.63522" gradientUnits="userSpaceOnUse">
<stop stop-color="white"/>
<stop offset="1" stop-color="white"/>
</linearGradient>
<linearGradient id="paint43_linear_0_531" x1="8.86477" y1="0.230469" x2="8.86477" y2="2.29758" gradientUnits="userSpaceOnUse">
<stop stop-color="white"/>
<stop offset="1" stop-color="white"/>
</linearGradient>
<linearGradient id="paint44_linear_0_531" x1="8.48926" y1="0.0371094" x2="8.48926" y2="2.10417" gradientUnits="userSpaceOnUse">
<stop stop-color="white"/>
<stop offset="1" stop-color="white"/>
</linearGradient>
<linearGradient id="paint45_linear_0_531" x1="8.28332" y1="0" x2="8.28332" y2="2.06698" gradientUnits="userSpaceOnUse">
<stop stop-color="white"/>
<stop offset="1" stop-color="white"/>
</linearGradient>
</defs>
</svg>
