<svg preserveAspectRatio="none" width="100%" height="100%" overflow="visible" style="display: block;" viewBox="0 0 11.9477 4.15212" fill="none" xmlns="http://www.w3.org/2000/svg">
<g id="Group" opacity="0.5">
<path id="Vector" opacity="0.2" d="M0.188261 3.43055C0.298419 3.53724 0.486381 3.56813 0.634183 3.50373C0.61779 3.60045 0.752841 3.65751 0.858055 3.64367C0.963268 3.62982 1.06675 3.57927 1.17049 3.59649C1.23823 3.60771 1.29721 3.64713 1.36539 3.65607C1.43365 3.66511 1.52126 3.61902 1.50755 3.55682C1.56645 3.66722 1.72795 3.69482 1.86049 3.66814C1.99294 3.64147 2.11403 3.57539 2.24622 3.54736C2.34883 3.52559 2.45907 3.52626 2.55162 3.47891C2.64409 3.43148 2.70341 3.30622 2.63081 3.23845C2.70367 3.27736 2.79397 3.22233 2.8592 3.17033C3.05913 3.01107 3.25915 2.8518 3.45908 2.69253C3.43913 2.66113 3.41927 2.62965 3.39932 2.59825C3.6087 2.46979 3.68243 2.20426 3.62258 1.98346C3.60818 1.93037 3.58736 1.87914 3.56655 1.82808C3.53289 1.74536 3.49924 1.66265 3.46567 1.57993C3.43739 1.51038 3.40686 1.4378 3.34562 1.39002C3.28439 1.34217 3.1823 1.32968 3.12418 1.38344C3.06945 1.28629 2.99286 1.18957 2.87828 1.15927C2.7637 1.12897 2.61225 1.20273 2.61494 1.31322C2.56142 1.19953 2.39948 1.1434 2.27449 1.19531C2.1495 1.24713 2.08393 1.3977 2.13658 1.51173C2.07395 1.34191 1.75415 1.34462 1.68537 1.51553C1.63393 1.43307 1.50209 1.40555 1.4137 1.45881C1.32531 1.51207 1.29808 1.63538 1.35749 1.71295C1.26694 1.65733 1.13371 1.66847 1.052 1.73844C0.970382 1.80841 0.948436 1.93029 1.00178 2.01773C0.82891 1.96675 0.634878 2.16797 0.71086 2.31938C0.514485 2.23768 0.25132 2.42843 0.289225 2.62476C0.142203 2.46414 0.0249326 3.27229 0.188261 3.43055Z" fill="url(#paint0_linear_0_630)"/>
<path id="Vector_2" opacity="0.2" d="M0.143696 3.23516C0.253853 3.34184 0.441816 3.37273 0.589618 3.30833C0.573225 3.40506 0.708276 3.46212 0.813489 3.44827C0.918703 3.43443 1.02218 3.38387 1.12592 3.40109C1.19366 3.41232 1.25265 3.45173 1.32082 3.46068C1.38909 3.46971 1.47669 3.42363 1.46299 3.36142C1.52188 3.47182 1.68339 3.49942 1.81593 3.47267C1.94837 3.44599 2.06946 3.37991 2.20165 3.35189C2.30426 3.33011 2.41451 3.33078 2.50706 3.28343C2.59952 3.236 2.65885 3.11075 2.58625 3.04297C2.65911 3.08188 2.7494 3.02685 2.81463 2.97494C3.01456 2.81567 3.21458 2.65641 3.41451 2.49714C3.39456 2.46574 3.3747 2.43426 3.35475 2.40286C3.56414 2.27448 3.63787 2.00887 3.57802 1.78807C3.56362 1.73498 3.5428 1.68375 3.52198 1.63268C3.48833 1.54997 3.45467 1.46725 3.42111 1.38454C3.39283 1.31499 3.3623 1.2424 3.30106 1.19463C3.23982 1.14677 3.13773 1.13428 3.07962 1.18805C3.02488 1.0909 2.94829 0.994173 2.83371 0.963872C2.71913 0.933571 2.56769 1.00734 2.57038 1.11782C2.51686 1.00413 2.35492 0.948004 2.22993 0.999912C2.10494 1.05182 2.03936 1.20231 2.09201 1.31634C2.02939 1.14652 1.7095 1.14922 1.6408 1.32014C1.58936 1.23768 1.45752 1.21016 1.36914 1.26342C1.28075 1.31668 1.25351 1.43999 1.31293 1.51756C1.22237 1.46193 1.08914 1.47308 1.00744 1.54305C0.925816 1.61302 0.90387 1.73489 0.957215 1.82233C0.784345 1.77135 0.590312 1.97257 0.666295 2.12399C0.469919 2.04229 0.206754 2.23304 0.244659 2.42936C0.0976376 2.26866 -0.0196329 3.0769 0.143696 3.23516Z" fill="url(#paint1_linear_0_630)"/>
<path id="Vector_3" opacity="0.2" d="M0.0791515 2.95585C0.189309 3.06254 0.377271 3.09343 0.525073 3.02903C0.508679 3.12584 0.643732 3.18281 0.748945 3.16897C0.854159 3.15513 0.957638 3.10457 1.06129 3.12179C1.12903 3.13301 1.18801 3.17243 1.25619 3.18146C1.32445 3.19041 1.41206 3.14432 1.39836 3.0822C1.45725 3.1926 1.61876 3.2202 1.75129 3.19353C1.88374 3.16686 2.00483 3.10077 2.13702 3.07275C2.23963 3.05098 2.34988 3.05165 2.44243 3.0043C2.53489 2.95687 2.59422 2.83161 2.52162 2.76384C2.59448 2.80275 2.68477 2.74771 2.75 2.69581C2.94993 2.53654 3.14995 2.37727 3.34988 2.218C3.32993 2.1866 3.31007 2.15512 3.29012 2.12372C3.49942 1.99526 3.57323 1.72973 3.51339 1.50893C3.49899 1.45584 3.47817 1.40461 3.45735 1.35355C3.4237 1.27083 3.39004 1.18812 3.35647 1.1054C3.3282 1.03585 3.29767 0.963266 3.23643 0.915494C3.17519 0.867637 3.0731 0.855148 3.01499 0.908913C2.96025 0.811765 2.88366 0.715039 2.76908 0.684738C2.6545 0.654437 2.50306 0.728206 2.50574 0.838689C2.45223 0.724999 2.2902 0.66887 2.1653 0.720778C2.04031 0.772686 1.97473 0.923176 2.02738 1.0372C1.96476 0.867386 1.64495 0.870085 1.57617 1.041C1.52473 0.958539 1.39289 0.931024 1.3045 0.984282C1.21612 1.03754 1.18888 1.16085 1.2483 1.23842C1.15774 1.1828 1.02451 1.19394 0.942892 1.26391C0.861271 1.33388 0.839327 1.45576 0.892671 1.5432C0.719801 1.49222 0.525767 1.69344 0.60175 1.84486C0.405374 1.76315 0.14221 1.9539 0.180115 2.15022C0.0330935 1.98944 -0.0841769 2.7976 0.0791515 2.95585Z" fill="url(#paint2_linear_0_630)"/>
<path id="Vector_4" opacity="0.2" d="M0.728697 2.73499C0.838855 2.84176 1.02682 2.87256 1.17462 2.80816C1.15822 2.90489 1.29336 2.96195 1.39849 2.94811C1.5037 2.93426 1.60718 2.8837 1.71084 2.90092C1.77858 2.91215 1.83756 2.95156 1.90582 2.9606C1.97409 2.96954 2.06169 2.92346 2.04799 2.86134C2.10688 2.97174 2.26839 2.99934 2.40093 2.97267C2.53346 2.94591 2.65446 2.87991 2.78665 2.8518C2.88926 2.83002 2.99951 2.8307 3.09206 2.78335C3.18452 2.73592 3.24385 2.61066 3.17125 2.54289C3.24411 2.5818 3.3344 2.52677 3.39963 2.47486C3.59956 2.31559 3.79958 2.15632 3.99952 1.99705C3.97957 1.96565 3.9597 1.93417 3.93975 1.90277C4.14914 1.7744 4.22287 1.50878 4.16302 1.28798C4.14862 1.23489 4.1278 1.18366 4.10698 1.1326C4.07333 1.04988 4.03967 0.967167 4.00611 0.884452C3.97783 0.814904 3.9473 0.742318 3.88606 0.694545C3.82482 0.646773 3.72273 0.634198 3.66462 0.688047C3.60989 0.590899 3.5333 0.494173 3.41871 0.463872C3.30413 0.433571 3.15269 0.50734 3.15538 0.617823C3.10186 0.504133 2.93983 0.448004 2.81493 0.499912C2.68994 0.55182 2.62436 0.70231 2.67701 0.816338C2.61439 0.64652 2.29458 0.649222 2.2258 0.820138C2.17437 0.737676 2.04252 0.710161 1.95414 0.763419C1.86575 0.816677 1.83851 0.939989 1.89793 1.01756C1.80738 0.961934 1.67415 0.973075 1.59252 1.04305C1.5109 1.11302 1.48896 1.23489 1.5423 1.32233C1.36943 1.27135 1.1754 1.47257 1.25138 1.62399C1.05501 1.54229 0.791842 1.73304 0.829747 1.92928C0.682552 1.76857 0.565369 2.57673 0.728697 2.73499Z" fill="url(#paint3_linear_0_630)"/>
<path id="Vector_5" opacity="0.2" d="M0.671814 2.94996C0.781972 3.05664 0.969933 3.08753 1.11774 3.02313C1.10134 3.11986 1.23639 3.17691 1.34161 3.16307C1.44682 3.14923 1.5503 3.09867 1.65404 3.11589C1.72178 3.12712 1.78076 3.16653 1.84903 3.17556C1.91729 3.18451 2.0049 3.13843 1.99119 3.0763C2.05009 3.1867 2.21159 3.2143 2.34413 3.18763C2.47658 3.16096 2.59767 3.09488 2.72986 3.06677C2.83247 3.04499 2.94271 3.04567 3.03526 2.99832C3.12772 2.95088 3.18705 2.82563 3.11445 2.75785C3.18731 2.79676 3.27761 2.74173 3.34284 2.68983C3.54277 2.53056 3.74279 2.37129 3.94272 2.21202C3.92277 2.18062 3.90291 2.14914 3.88296 2.11774C4.09226 1.98928 4.16607 1.72375 4.10622 1.50295C4.09182 1.44986 4.071 1.39863 4.05019 1.34756C4.01653 1.26485 3.98288 1.18213 3.94931 1.09942C3.92103 1.02987 3.8905 0.957285 3.82926 0.909512C3.76803 0.861656 3.66594 0.849164 3.60782 0.902929C3.55309 0.805781 3.4765 0.709057 3.36192 0.678757C3.24734 0.648456 3.09589 0.722222 3.09858 0.832705C3.04506 0.719015 2.88312 0.662889 2.75813 0.714797C2.63314 0.766705 2.56757 0.917195 2.62022 1.03122C2.55759 0.861404 2.23779 0.864104 2.169 1.03502C2.11757 0.952558 1.98573 0.925043 1.89734 0.978301C1.80895 1.03156 1.78172 1.15487 1.84113 1.23244C1.75067 1.17682 1.61735 1.18796 1.53573 1.25793C1.45411 1.3279 1.43216 1.44978 1.48551 1.53722C1.31264 1.48624 1.1186 1.68746 1.19459 1.83887C0.99821 1.75717 0.735046 1.94792 0.772951 2.14416C0.625756 1.98354 0.508486 2.7917 0.671814 2.94996Z" fill="url(#paint4_linear_0_630)"/>
<path id="Vector_6" opacity="0.2" d="M0.581252 3.14135C0.69141 3.24804 0.879372 3.27893 1.02717 3.21453C1.01078 3.31125 1.14583 3.36831 1.25105 3.35447C1.35626 3.34063 1.45974 3.29007 1.56348 3.30729C1.63122 3.31851 1.6902 3.35793 1.75838 3.36687C1.82664 3.37591 1.91425 3.32982 1.90054 3.26762C1.95944 3.3781 2.12095 3.40562 2.25348 3.37895C2.38593 3.35219 2.50702 3.28619 2.63921 3.25808C2.74182 3.2363 2.85206 3.23698 2.94461 3.18963C3.03708 3.14228 3.09641 3.01694 3.02381 2.94917C3.09667 2.98808 3.18696 2.93304 3.25219 2.88114C3.45212 2.72187 3.65214 2.5626 3.85207 2.40333C3.83212 2.37193 3.81226 2.34045 3.79231 2.30905C4.00161 2.18059 4.07542 1.91506 4.01549 1.69426C4.00109 1.64117 3.98027 1.58994 3.95945 1.53888C3.9258 1.45616 3.89223 1.37345 3.85858 1.29073C3.8303 1.22118 3.79977 1.1486 3.73853 1.10083C3.67729 1.05297 3.5752 1.04048 3.51709 1.09424C3.46235 0.997094 3.38577 0.900367 3.27118 0.870067C3.1566 0.839766 3.00516 0.913535 3.00785 1.02402C2.95433 0.910327 2.7923 0.854199 2.66731 0.906107C2.54232 0.95793 2.47675 1.10851 2.5294 1.22254C2.46677 1.05272 2.14697 1.05542 2.07818 1.22633C2.02675 1.14387 1.89491 1.11636 1.80652 1.16961C1.71813 1.22287 1.6909 1.34618 1.75031 1.42375C1.65984 1.36813 1.52653 1.37927 1.44491 1.44924C1.36329 1.51921 1.34134 1.64109 1.39469 1.72853C1.22182 1.67755 1.02778 1.87877 1.10376 2.03019C0.907389 1.94849 0.644225 2.13923 0.68213 2.33547C0.535195 2.17494 0.417924 2.98318 0.581252 3.14135Z" fill="url(#paint5_linear_0_630)"/>
<path id="Vector_7" opacity="0.2" d="M0.613899 3.28789C0.724057 3.39458 0.912019 3.42547 1.05982 3.36107C1.04343 3.45788 1.17848 3.51485 1.28369 3.50101C1.38891 3.48717 1.4923 3.43661 1.59612 3.45383C1.66387 3.46505 1.72285 3.50447 1.79103 3.51342C1.85929 3.52245 1.94689 3.47636 1.93319 3.41416C1.99209 3.52456 2.15359 3.55216 2.28613 3.5254C2.41858 3.49873 2.53966 3.43264 2.67185 3.40462C2.77447 3.38284 2.88471 3.38352 2.97726 3.33617C3.06972 3.28873 3.12905 3.16348 3.05645 3.0957C3.12923 3.13461 3.21961 3.07958 3.28483 3.02768C3.48477 2.86841 3.68478 2.70914 3.88472 2.54987C3.86477 2.51847 3.8449 2.48699 3.82495 2.45559C4.03434 2.32722 4.10807 2.0616 4.04822 1.8408C4.03382 1.78771 4.013 1.73648 3.99219 1.68542C3.95853 1.6027 3.92496 1.51999 3.89131 1.43727C3.86303 1.36772 3.8325 1.29514 3.77126 1.24736C3.71003 1.19951 3.60793 1.18702 3.54982 1.24078C3.49509 1.14363 3.4185 1.04691 3.30392 1.01661C3.18933 0.986306 3.03789 1.06007 3.04058 1.17056C2.98706 1.05687 2.82503 1.00074 2.70004 1.05265C2.57505 1.10447 2.50948 1.25504 2.56213 1.36907C2.4995 1.19925 2.1797 1.20196 2.11092 1.37287C2.05948 1.29041 1.92764 1.2629 1.83925 1.31615C1.75087 1.36941 1.72363 1.49272 1.78305 1.57029C1.69258 1.51467 1.55926 1.52581 1.47764 1.59578C1.39602 1.66575 1.37407 1.78763 1.42742 1.87507C1.25455 1.82409 1.06051 2.02531 1.1365 2.17672C0.940121 2.09502 0.676958 2.28577 0.714862 2.4821C0.567841 2.32148 0.450657 3.12964 0.613899 3.28789Z" fill="url(#paint6_linear_0_630)"/>
<path id="Vector_8" opacity="0.2" d="M0.251933 3.14135C0.362091 3.24804 0.550052 3.27893 0.697855 3.21453C0.681461 3.31134 0.816514 3.36831 0.921727 3.35447C1.02694 3.34063 1.13042 3.29007 1.23407 3.30729C1.30181 3.31851 1.3608 3.35793 1.42906 3.36688C1.49724 3.37591 1.58493 3.32982 1.57122 3.26762C1.63012 3.37802 1.79163 3.40562 1.92416 3.37886C2.05661 3.35219 2.1777 3.2861 2.30989 3.25808C2.4125 3.2363 2.52274 3.23698 2.61529 3.18963C2.70776 3.1422 2.76709 3.01694 2.69449 2.94917C2.76735 2.98808 2.85764 2.93305 2.92287 2.88114C3.1228 2.72187 3.32282 2.5626 3.52275 2.40333C3.5028 2.37193 3.48294 2.34045 3.46299 2.30905C3.67229 2.18068 3.7461 1.91506 3.68625 1.69426C3.67185 1.64117 3.65104 1.58994 3.63022 1.53888C3.59657 1.45616 3.56291 1.37345 3.52934 1.29073C3.50107 1.22118 3.47054 1.1486 3.4093 1.10083C3.34806 1.05297 3.24597 1.04048 3.18785 1.09424C3.13312 0.997094 3.05653 0.900367 2.94195 0.870067C2.82737 0.839766 2.67592 0.913535 2.67861 1.02402C2.62509 0.910327 2.46307 0.854199 2.33817 0.906107C2.21318 0.958015 2.1476 1.10851 2.20025 1.22254C2.13763 1.05272 1.81782 1.05542 1.74904 1.22633C1.6976 1.14387 1.56576 1.11636 1.47737 1.16961C1.38899 1.22287 1.36175 1.34619 1.42117 1.42375C1.3307 1.36813 1.19738 1.37927 1.11576 1.44924C1.03414 1.51921 1.01219 1.64109 1.06554 1.72853C0.892669 1.67755 0.698636 1.87877 0.774619 2.03019C0.578243 1.94849 0.315078 2.13923 0.352983 2.33556C0.205875 2.17494 0.088605 2.9831 0.251933 3.14135Z" fill="url(#paint7_linear_0_630)"/>
<path id="Vector_9" opacity="0.2" d="M0.693848 3.04574C0.804006 3.15251 0.991967 3.18332 1.13977 3.11892C1.12338 3.21565 1.25843 3.2727 1.36364 3.25886C1.46886 3.24502 1.57233 3.19446 1.67607 3.21168C1.74382 3.22291 1.8028 3.26232 1.87097 3.27127C1.93924 3.2803 2.02684 3.23422 2.01314 3.17201C2.07203 3.28241 2.23354 3.31001 2.36608 3.28334C2.49853 3.25667 2.61961 3.19058 2.7518 3.16247C2.85441 3.1407 2.96466 3.14137 3.05721 3.09402C3.14967 3.04659 3.209 2.92134 3.1364 2.85356C3.20926 2.89247 3.29956 2.83744 3.36478 2.78553C3.56471 2.62626 3.76473 2.46699 3.96467 2.30773C3.94472 2.27633 3.92485 2.24484 3.9049 2.21345C4.11429 2.08499 4.18802 1.81945 4.12817 1.59866C4.11377 1.54557 4.09295 1.49433 4.07213 1.44327C4.03848 1.36055 4.00482 1.27784 3.97126 1.19512C3.94298 1.12558 3.91245 1.05299 3.85121 1.00522C3.78997 0.957362 3.68788 0.94487 3.62977 0.998634C3.57504 0.901487 3.49845 0.80476 3.38387 0.77446C3.26928 0.744159 3.11784 0.817928 3.12053 0.928411C3.06701 0.81472 2.90498 0.758592 2.77999 0.8105C2.655 0.862408 2.58943 1.0129 2.64208 1.12693C2.57945 0.95711 2.25965 0.959809 2.19086 1.13073C2.13934 1.04826 2.00759 1.02075 1.9192 1.07401C1.83081 1.12726 1.80358 1.25058 1.86299 1.32815C1.77253 1.27252 1.63921 1.28366 1.55759 1.35363C1.47597 1.4236 1.45402 1.54548 1.50737 1.63292C1.3345 1.58194 1.14046 1.78316 1.21645 1.93458C1.02007 1.85288 0.756906 2.04363 0.79481 2.23986C0.647789 2.07933 0.53052 2.88757 0.693848 3.04574Z" fill="url(#paint8_linear_0_630)"/>
<path id="Vector_10" opacity="0.2" d="M1.16255 3.08477C1.27271 3.19145 1.46067 3.22234 1.60847 3.15794C1.59208 3.25467 1.72713 3.31172 1.83235 3.29788C1.93756 3.28404 2.04104 3.23348 2.14478 3.2507C2.21252 3.26193 2.2715 3.30134 2.33968 3.31029C2.40794 3.31932 2.49555 3.27324 2.48184 3.21103C2.54074 3.32152 2.70225 3.34903 2.83478 3.32236C2.96723 3.2956 3.08832 3.2296 3.22051 3.20149C3.32312 3.17972 3.43336 3.1804 3.52591 3.13305C3.61838 3.08561 3.6777 2.96035 3.6051 2.89258C3.67796 2.93149 3.76826 2.87646 3.83349 2.82455C4.03351 2.66528 4.23344 2.50602 4.43337 2.34675C4.41342 2.31535 4.39356 2.28387 4.37361 2.25247C4.58299 2.12401 4.65672 1.85848 4.59687 1.63768C4.58247 1.58459 4.56166 1.53336 4.54084 1.48229C4.50718 1.39958 4.47362 1.31686 4.43996 1.23415C4.41169 1.1646 4.38115 1.09201 4.31992 1.04424C4.25868 0.996383 4.15659 0.983891 4.09847 1.03766C4.04374 0.940508 3.96715 0.843782 3.85257 0.813481C3.73799 0.783181 3.58654 0.856949 3.58923 0.967433C3.53571 0.853742 3.37369 0.797614 3.2487 0.849522C3.12371 0.901429 3.05813 1.05192 3.11078 1.16595C3.04816 0.996132 2.72835 0.998831 2.65957 1.16975C2.60813 1.08729 2.47629 1.05977 2.38791 1.11303C2.29952 1.16629 2.27228 1.2896 2.3317 1.36716C2.24123 1.31154 2.10791 1.32268 2.02629 1.39265C1.94467 1.46262 1.92273 1.5845 1.97607 1.67195C1.8032 1.62097 1.60917 1.82218 1.68515 1.9736C1.48878 1.8919 1.22561 2.08265 1.26352 2.27889C1.11649 2.11835 0.999225 2.92651 1.16255 3.08477Z" fill="url(#paint9_linear_0_630)"/>
<path id="Vector_11" opacity="0.2" d="M1.09598 3.38156C1.20614 3.48824 1.3941 3.51913 1.5419 3.45473C1.52551 3.55154 1.66056 3.60852 1.76577 3.59467C1.87099 3.58083 1.97438 3.53027 2.07812 3.54749C2.14586 3.55872 2.20485 3.59813 2.27302 3.60708C2.34128 3.61611 2.42889 3.56994 2.41519 3.50782C2.47408 3.61822 2.63559 3.64582 2.76812 3.61915C2.90057 3.59248 3.02166 3.52639 3.15385 3.49837C3.25646 3.47659 3.36671 3.47727 3.45926 3.42992C3.55172 3.38248 3.61105 3.25723 3.53845 3.18945C3.61131 3.22836 3.7016 3.17333 3.76683 3.12143C3.96685 2.96216 4.16678 2.80289 4.3668 2.64362C4.34685 2.61222 4.32699 2.58074 4.30704 2.54934C4.51642 2.42096 4.59015 2.15535 4.5303 1.93455C4.5159 1.88146 4.49508 1.83023 4.47427 1.77916C4.44061 1.69645 4.40696 1.61373 4.37339 1.53102C4.34511 1.46147 4.31458 1.38888 4.25335 1.34111C4.19211 1.29326 4.09002 1.28076 4.0319 1.33453C3.97717 1.23738 3.90058 1.14066 3.786 1.11036C3.67142 1.08006 3.51997 1.15382 3.52266 1.26431C3.46914 1.15061 3.30712 1.09449 3.18221 1.1464C3.05722 1.19822 2.99165 1.34879 3.0443 1.46282C2.98167 1.293 2.66187 1.2957 2.59308 1.46662C2.54165 1.38416 2.40981 1.35664 2.32142 1.4099C2.23304 1.46316 2.2058 1.58647 2.26521 1.66404C2.17475 1.60842 2.04143 1.61956 1.95972 1.68953C1.8781 1.7595 1.85616 1.88138 1.9095 1.96882C1.73663 1.91784 1.5426 2.11906 1.61858 2.27048C1.4222 2.18877 1.15904 2.37952 1.19694 2.57576C1.04984 2.41514 0.932653 3.22338 1.09598 3.38156Z" fill="url(#paint10_linear_0_630)"/>
<path id="Vector_12" opacity="0.2" d="M1.40276 3.5457C1.51292 3.65239 1.70088 3.68328 1.84868 3.61888C1.83229 3.71561 1.96734 3.77266 2.07255 3.75882C2.17777 3.74498 2.28124 3.69442 2.38498 3.71164C2.45273 3.72287 2.51171 3.76228 2.57988 3.77123C2.64815 3.78026 2.73575 3.73418 2.72205 3.67197C2.78094 3.78237 2.94245 3.80997 3.07499 3.78321C3.20752 3.75654 3.32852 3.69045 3.46071 3.66243C3.56333 3.64066 3.67357 3.64133 3.76612 3.59398C3.85858 3.54655 3.91791 3.42129 3.84531 3.35352C3.91817 3.39243 4.00847 3.3374 4.07369 3.28549C4.27371 3.12622 4.47364 2.96695 4.67358 2.80768C4.65363 2.77629 4.63376 2.7448 4.61381 2.71341C4.82311 2.58503 4.89693 2.31941 4.83708 2.09862C4.82268 2.04553 4.80186 1.99429 4.78105 1.94323C4.74739 1.86051 4.71374 1.7778 4.68017 1.69508C4.65189 1.62554 4.62136 1.55295 4.56012 1.50518C4.49888 1.45732 4.39679 1.44483 4.33868 1.49859C4.28395 1.40153 4.20736 1.30472 4.09278 1.27442C3.97819 1.24412 3.82675 1.31789 3.82944 1.42837C3.77592 1.31468 3.61389 1.25855 3.4889 1.31046C3.36391 1.36228 3.29834 1.51286 3.35099 1.62689C3.28836 1.45707 2.96856 1.45977 2.89978 1.63068C2.84834 1.54822 2.7165 1.52071 2.62811 1.57397C2.53972 1.62722 2.51249 1.75054 2.5719 1.8281C2.48144 1.77248 2.34812 1.78362 2.2665 1.85359C2.18488 1.92356 2.16293 2.04544 2.21628 2.13288C2.04341 2.0819 1.84937 2.28312 1.92536 2.43454C1.72898 2.35284 1.46582 2.54359 1.50372 2.73991C1.3567 2.57929 1.23952 3.38753 1.40276 3.5457Z" fill="url(#paint11_linear_0_630)"/>
<path id="Vector_13" opacity="0.2" d="M1.53751 3.18437C1.64767 3.29106 1.83563 3.32195 1.98344 3.25755C1.96704 3.35428 2.10209 3.41133 2.20731 3.39749C2.31252 3.38365 2.416 3.33309 2.51974 3.35031C2.58748 3.36154 2.64646 3.40095 2.71464 3.4099C2.7829 3.41885 2.87051 3.37276 2.8568 3.31064C2.9157 3.42104 3.07721 3.44864 3.20974 3.42197C3.34219 3.39521 3.46328 3.32921 3.59547 3.3011C3.69808 3.27933 3.80833 3.28 3.90087 3.23265C3.99334 3.1853 4.05267 3.05996 3.98007 2.99219C4.05284 3.0311 4.14322 2.97607 4.20845 2.92416C4.40838 2.76489 4.6084 2.60562 4.80833 2.44636C4.78838 2.41496 4.76852 2.38348 4.74857 2.35208C4.95787 2.22362 5.03168 1.95809 4.97183 1.73729C4.95744 1.6842 4.93662 1.63296 4.9158 1.5819C4.88215 1.49919 4.84858 1.41647 4.81492 1.33376C4.78665 1.26421 4.75611 1.19162 4.69488 1.14385C4.63364 1.09608 4.53155 1.0835 4.47343 1.13727C4.4187 1.0402 4.34211 0.943391 4.22753 0.913091C4.11295 0.88279 3.9615 0.956559 3.96419 1.06704C3.91068 0.953351 3.74865 0.897223 3.62375 0.949131C3.49876 1.00095 3.43318 1.15153 3.48583 1.26556C3.42321 1.09574 3.1034 1.09844 3.03462 1.26936C2.98318 1.18689 2.85134 1.15938 2.76295 1.21264C2.67457 1.2659 2.64733 1.38921 2.70675 1.46677C2.61628 1.41115 2.48296 1.42229 2.40134 1.49226C2.31972 1.56223 2.29778 1.68411 2.35112 1.77155C2.17825 1.72058 1.98422 1.92179 2.0602 2.07321C1.86382 1.99151 1.60066 2.18226 1.63856 2.37849C1.49146 2.21796 1.37418 3.0262 1.53751 3.18437Z" fill="url(#paint12_linear_0_630)"/>
<path id="Vector_14" opacity="0.2" d="M1.70861 2.96758C1.81876 3.07426 2.00673 3.10515 2.15453 3.04075C2.13813 3.13748 2.27319 3.19454 2.3784 3.1807C2.48361 3.16685 2.58701 3.11629 2.69075 3.13351C2.75849 3.14474 2.81747 3.18416 2.88573 3.1931C2.95391 3.20213 3.0416 3.15605 3.0279 3.09384C3.08679 3.20424 3.2483 3.23184 3.38084 3.20509C3.51329 3.17842 3.63437 3.11233 3.76656 3.08431C3.86917 3.06253 3.97942 3.06321 4.07197 3.01586C4.16443 2.96842 4.22376 2.84317 4.15116 2.77539C4.22402 2.8143 4.31431 2.75927 4.37954 2.70736C4.57947 2.54809 4.77949 2.38883 4.97942 2.22956C4.95948 2.19816 4.93961 2.16668 4.91966 2.13528C5.12905 2.0069 5.20278 1.74129 5.14293 1.52049C5.12853 1.4674 5.10771 1.41617 5.08689 1.3651C5.05324 1.28239 5.01959 1.19967 4.98602 1.11696C4.95774 1.04741 4.92721 0.974822 4.86597 0.92705C4.80473 0.879193 4.70264 0.866702 4.64453 0.920466C4.5898 0.823318 4.51321 0.726595 4.39862 0.696294C4.28404 0.665993 4.1326 0.739759 4.13529 0.850243C4.08177 0.736552 3.91983 0.680424 3.79484 0.732332C3.66985 0.784155 3.60427 0.934732 3.65692 1.04876C3.5943 0.878942 3.27441 0.881641 3.20571 1.05256C3.15428 0.970095 3.02243 0.94258 2.93405 0.995839C2.84566 1.0491 2.81842 1.17241 2.87784 1.24998C2.78737 1.19436 2.65405 1.2055 2.57235 1.27547C2.49073 1.34544 2.46878 1.46731 2.52213 1.55476C2.34926 1.50378 2.15522 1.70499 2.23121 1.85641C2.03483 1.77471 1.77167 1.96546 1.80957 2.16178C1.66255 2.00116 1.54528 2.80932 1.70861 2.96758Z" fill="url(#paint13_linear_0_630)"/>
<path id="Vector_15" opacity="0.2" d="M1.37513 2.47352C1.48529 2.5802 1.67325 2.6111 1.82106 2.5467C1.80466 2.64351 1.93971 2.70048 2.04493 2.68664C2.15014 2.67279 2.25362 2.62224 2.35736 2.63946C2.4251 2.65068 2.48408 2.6901 2.55226 2.69904C2.62052 2.70807 2.70813 2.66191 2.69442 2.59979C2.75332 2.71018 2.91483 2.73778 3.04736 2.71103C3.17981 2.68436 3.3009 2.61827 3.43309 2.59025C3.5357 2.56847 3.64595 2.56915 3.73849 2.5218C3.83096 2.47436 3.89029 2.34911 3.81769 2.28133C3.89055 2.32024 3.98084 2.26521 4.04607 2.2133C4.246 2.05404 4.44602 1.89477 4.64595 1.7355C4.626 1.7041 4.60614 1.67262 4.58619 1.64122C4.79558 1.51284 4.8693 1.24723 4.80945 1.02643C4.79506 0.973339 4.77424 0.922106 4.75342 0.871042C4.71977 0.788327 4.68611 0.705615 4.65255 0.6229C4.62427 0.553352 4.59374 0.480765 4.5325 0.432993C4.47126 0.385137 4.36917 0.372645 4.31106 0.426409C4.25632 0.329262 4.17973 0.232535 4.06515 0.202235C3.95057 0.171934 3.79913 0.245703 3.80182 0.356186C3.7483 0.242495 3.58636 0.186367 3.46137 0.238275C3.33638 0.290098 3.2708 0.440673 3.32345 0.554701C3.26083 0.384882 2.94094 0.387582 2.87224 0.558583C2.8208 0.476121 2.68896 0.448606 2.60057 0.501864C2.51219 0.555122 2.48495 0.678437 2.54437 0.756003C2.45381 0.700381 2.32058 0.711523 2.23887 0.781493C2.15725 0.851463 2.13531 0.97334 2.18865 1.06078C2.01578 1.0098 1.82175 1.21102 1.89773 1.36244C1.70136 1.28074 1.43819 1.47149 1.4761 1.66781C1.32908 1.5071 1.21181 2.31526 1.37513 2.47352Z" fill="url(#paint14_linear_0_630)"/>
<path id="Vector_16" opacity="0.2" d="M1.56313 2.33281C1.67328 2.4395 1.86124 2.47039 2.00905 2.40599C1.99265 2.50272 2.12771 2.55977 2.23292 2.54593C2.33813 2.53209 2.44161 2.48153 2.54535 2.49875C2.61309 2.50997 2.67208 2.54939 2.74025 2.55834C2.80843 2.56728 2.89612 2.5212 2.88242 2.45908C2.94131 2.56948 3.10282 2.59708 3.23535 2.57041C3.3678 2.54374 3.48889 2.47765 3.62108 2.44954C3.72369 2.42777 3.83394 2.42844 3.92649 2.38109C4.01895 2.33366 4.07828 2.2084 4.00568 2.14063C4.07854 2.17954 4.16883 2.12451 4.23406 2.0726C4.43399 1.91333 4.63401 1.75406 4.83394 1.59479C4.81399 1.5634 4.79413 1.53191 4.77418 1.50052C4.98357 1.37205 5.05729 1.10652 4.99745 0.885724C4.98305 0.832635 4.96223 0.781402 4.94141 0.730338C4.90776 0.647623 4.87419 0.564908 4.84054 0.482193C4.81226 0.412645 4.78173 0.340059 4.72049 0.292287C4.65925 0.24443 4.55716 0.231938 4.49905 0.285703C4.44431 0.18864 4.36773 0.0918289 4.25314 0.0615283C4.13856 0.0312276 3.98712 0.104996 3.9898 0.21548C3.93629 0.101789 3.77426 0.0456607 3.64936 0.0975685C3.52437 0.149392 3.45879 0.299966 3.51144 0.413995C3.44882 0.244176 3.12901 0.246878 3.06023 0.417794C3.00879 0.335332 2.87695 0.307817 2.78857 0.361075C2.70018 0.414334 2.67294 0.537645 2.73236 0.615211C2.64189 0.55959 2.50857 0.570731 2.42695 0.640701C2.34533 0.710671 2.32339 0.832551 2.37673 0.919992C2.20386 0.869013 2.00983 1.07023 2.08581 1.22165C1.88944 1.13994 1.62627 1.3307 1.66418 1.52693C1.51707 1.36631 1.3998 2.17456 1.56313 2.33281Z" fill="url(#paint15_linear_0_630)"/>
<path id="Vector_17" opacity="0.2" d="M2.28177 2.27813C2.39193 2.38481 2.57989 2.4157 2.72769 2.3513C2.7113 2.44811 2.84635 2.50508 2.95157 2.49124C3.05678 2.4774 3.16026 2.42684 3.264 2.44406C3.33174 2.45529 3.39072 2.4947 3.4589 2.50365C3.52716 2.51268 3.61477 2.4666 3.60106 2.40439C3.65996 2.51479 3.82147 2.54239 3.954 2.51563C4.08645 2.48896 4.20754 2.42288 4.33973 2.39485C4.44234 2.37308 4.55258 2.37375 4.64513 2.3264C4.73759 2.27897 4.79692 2.15371 4.72432 2.08594C4.79719 2.12485 4.88748 2.06982 4.95271 2.01791C5.15264 1.85864 5.35266 1.69937 5.55259 1.54011C5.53264 1.50871 5.51278 1.47723 5.49283 1.44583C5.70221 1.31745 5.77594 1.05184 5.71609 0.831037C5.70169 0.777948 5.68088 0.726715 5.66006 0.675651C5.6264 0.592936 5.59284 0.510221 5.55918 0.427506C5.53091 0.357958 5.50037 0.285371 5.43914 0.237599C5.3779 0.189743 5.27581 0.177251 5.21769 0.231016C5.16296 0.133868 5.08637 0.0371414 4.97179 0.00684077C4.85721 -0.0234599 4.70576 0.0503087 4.70845 0.160792C4.65493 0.0471014 4.49291 -0.00902682 4.368 0.042881C4.24301 0.0947888 4.17744 0.245279 4.23009 0.359307C4.16746 0.189488 3.84757 0.19219 3.77888 0.363106C3.72744 0.280645 3.5956 0.25313 3.50721 0.306388C3.41883 0.359646 3.39159 0.482958 3.451 0.560524C3.36045 0.504902 3.22722 0.516044 3.14551 0.586014C3.06389 0.655984 3.04195 0.777861 3.09529 0.865303C2.92242 0.814323 2.72839 1.01554 2.80437 1.16696C2.60799 1.08526 2.34483 1.27601 2.38274 1.47233C2.23571 1.31171 2.11853 2.11987 2.28177 2.27813Z" fill="url(#paint16_linear_0_630)"/>
<path id="Vector_18" opacity="0.2" d="M2.68296 2.68429C2.79312 2.79098 2.98108 2.82187 3.12888 2.75747C3.11249 2.85428 3.24762 2.91125 3.35275 2.89741C3.45797 2.88357 3.56136 2.83301 3.6651 2.85023C3.73284 2.86145 3.79182 2.90087 3.86008 2.90981C3.92826 2.91885 4.01595 2.87268 4.00225 2.81056C4.06114 2.92096 4.22265 2.94856 4.35519 2.9218C4.48764 2.89513 4.60872 2.82904 4.74091 2.80102C4.84352 2.77925 4.95377 2.77992 5.04632 2.73257C5.13878 2.68514 5.19811 2.55988 5.12551 2.49211C5.19837 2.53102 5.28867 2.47599 5.35389 2.42408C5.55382 2.26481 5.75384 2.10554 5.95378 1.94627C5.93383 1.91487 5.91396 1.88339 5.89401 1.85199C6.1034 1.72362 6.17713 1.458 6.11728 1.2372C6.10288 1.18411 6.08206 1.13288 6.06124 1.08182C6.02759 0.999101 5.99393 0.916386 5.96037 0.833671C5.93209 0.764123 5.90156 0.691536 5.84032 0.643764C5.77908 0.595908 5.67699 0.583416 5.61888 0.637266C5.56415 0.540118 5.48756 0.443391 5.37298 0.413091C5.25839 0.38279 5.10695 0.456559 5.10964 0.567042C5.05612 0.453351 4.89418 0.397223 4.76919 0.449131C4.6442 0.501039 4.57862 0.651529 4.63127 0.765557C4.56865 0.595738 4.24885 0.59844 4.18006 0.769356C4.12863 0.686895 3.99678 0.65938 3.9084 0.712638C3.82001 0.765896 3.79277 0.889208 3.85219 0.966774C3.76164 0.911152 3.62841 0.922294 3.5467 0.992264C3.46508 1.06223 3.44313 1.18411 3.49648 1.27156C3.32361 1.22058 3.12957 1.42179 3.20556 1.57321C3.00918 1.49151 2.74602 1.68226 2.78392 1.87858C2.63681 1.71788 2.51954 2.52603 2.68296 2.68429Z" fill="url(#paint17_linear_0_630)"/>
<path id="Vector_19" opacity="0.2" d="M2.9037 2.98711C3.01385 3.09379 3.20182 3.12469 3.34962 3.06029C3.33322 3.15701 3.46836 3.21407 3.57349 3.20023C3.6787 3.18638 3.78218 3.13583 3.88592 3.15305C3.95366 3.16427 4.01265 3.20369 4.08082 3.21263C4.14909 3.22166 4.23669 3.17558 4.22299 3.11338C4.28188 3.22386 4.44339 3.25137 4.57593 3.2247C4.70846 3.19795 4.82946 3.13194 4.96165 3.10384C5.06426 3.08206 5.17451 3.08274 5.26706 3.03539C5.35952 2.98795 5.41885 2.8627 5.34625 2.79492C5.41911 2.83383 5.5094 2.7788 5.57463 2.72689C5.77456 2.56763 5.97458 2.40836 6.17452 2.24909C6.15457 2.21769 6.1347 2.18621 6.11475 2.15481C6.32405 2.02635 6.39787 1.76082 6.33802 1.54002C6.32362 1.48693 6.3028 1.4357 6.28198 1.38464C6.24833 1.30192 6.21468 1.21921 6.18111 1.13649C6.15283 1.06694 6.1223 0.994356 6.06106 0.946584C5.99982 0.898727 5.89773 0.886235 5.83962 0.94C5.78489 0.842936 5.7083 0.746126 5.59371 0.715825C5.47913 0.685524 5.32769 0.759293 5.33038 0.869777C5.27686 0.756086 5.11483 0.699958 4.98984 0.751865C4.86485 0.803773 4.79928 0.954263 4.85193 1.06829C4.7893 0.898473 4.4695 0.901175 4.40072 1.07209C4.34928 0.989629 4.21744 0.962114 4.12905 1.01537C4.04066 1.06863 4.01343 1.19194 4.07284 1.26951C3.98238 1.21389 3.84906 1.22503 3.76744 1.295C3.68582 1.36497 3.66387 1.48685 3.71722 1.57429C3.54435 1.52331 3.35031 1.72452 3.4263 1.87594C3.22992 1.79424 2.96676 1.98499 3.00466 2.18123C2.85755 2.02061 2.74037 2.82885 2.9037 2.98711Z" fill="url(#paint18_linear_0_630)"/>
<path id="Vector_20" opacity="0.2" d="M2.51539 3.29757C2.62555 3.40426 2.81351 3.43515 2.96131 3.37075C2.94492 3.46747 3.07997 3.52453 3.18518 3.51069C3.2904 3.49685 3.39388 3.44629 3.49753 3.46351C3.56527 3.47473 3.62426 3.51415 3.69252 3.52318C3.76078 3.53221 3.84839 3.48604 3.83468 3.42392C3.89358 3.53432 4.05508 3.56192 4.18762 3.53525C4.32007 3.50858 4.44116 3.44249 4.57335 3.41438C4.67596 3.39261 4.7862 3.39328 4.87875 3.34593C4.97122 3.2985 5.03054 3.17325 4.95794 3.10547C5.0308 3.14438 5.1211 3.08935 5.18633 3.03744C5.38626 2.87817 5.58628 2.71891 5.78621 2.55964C5.76626 2.52824 5.7464 2.49676 5.72645 2.46536C5.93583 2.33698 6.00956 2.07137 5.94971 1.85057C5.93531 1.79748 5.9145 1.74625 5.89368 1.69518C5.86002 1.61247 5.82637 1.52975 5.7928 1.44704C5.76452 1.37749 5.73399 1.3049 5.67275 1.25713C5.61152 1.20927 5.50943 1.19678 5.45131 1.25055C5.39658 1.15348 5.31999 1.05667 5.20541 1.02637C5.09083 0.996071 4.93938 1.06984 4.94207 1.18032C4.88855 1.06663 4.72653 1.0105 4.60162 1.06241C4.47663 1.11432 4.41106 1.26481 4.46371 1.37884C4.40108 1.20902 4.08128 1.21172 4.0125 1.38264C3.96106 1.30018 3.82922 1.27266 3.74083 1.32592C3.65244 1.37918 3.62521 1.50249 3.68463 1.58006C3.59407 1.52443 3.46084 1.53557 3.37922 1.60555C3.2976 1.67552 3.27565 1.79739 3.329 1.88484C3.15613 1.83386 2.96209 2.03507 3.03808 2.18649C2.8417 2.10479 2.57854 2.29554 2.61644 2.49178C2.46933 2.33116 2.35206 3.1394 2.51539 3.29757Z" fill="url(#paint19_linear_0_630)"/>
<path id="Vector_21" opacity="0.2" d="M2.20138 3.36406C2.31154 3.47075 2.4995 3.50164 2.64731 3.43724C2.63091 3.53397 2.76596 3.59102 2.87118 3.57718C2.97639 3.56334 3.07987 3.51278 3.18352 3.53C3.25127 3.54122 3.31025 3.58064 3.37851 3.58959C3.44677 3.59862 3.53438 3.55253 3.52068 3.49033C3.57957 3.60081 3.74108 3.62833 3.87361 3.60166C4.00606 3.57499 4.12715 3.5089 4.25934 3.48079C4.36195 3.45902 4.4722 3.45969 4.56475 3.41234C4.65721 3.36491 4.71654 3.23965 4.64394 3.17188C4.7168 3.21079 4.80709 3.15576 4.87232 3.10385C5.07225 2.94458 5.27227 2.78531 5.4722 2.62604C5.45225 2.59465 5.43239 2.56316 5.41244 2.53177C5.62174 2.4033 5.69555 2.13777 5.6357 1.91697C5.62131 1.86388 5.60049 1.81265 5.57967 1.76159C5.54602 1.67887 5.51236 1.59616 5.47879 1.51344C5.45052 1.4439 5.41999 1.37131 5.35875 1.32354C5.29751 1.27568 5.19542 1.26319 5.13731 1.31695C5.08257 1.21981 5.00598 1.12308 4.8914 1.09278C4.77682 1.06248 4.62538 1.13625 4.62806 1.24673C4.57455 1.13304 4.41252 1.07691 4.28762 1.12882C4.16263 1.18064 4.09705 1.33122 4.1497 1.44524C4.08708 1.27543 3.76727 1.27813 3.69849 1.44913C3.64705 1.36667 3.51521 1.33915 3.42682 1.39241C3.33844 1.44567 3.3112 1.56898 3.37062 1.64655C3.28015 1.59092 3.14683 1.60207 3.06521 1.67204C2.98359 1.74201 2.96165 1.86388 3.01499 1.95132C2.84212 1.90035 2.64809 2.10156 2.72407 2.25298C2.52769 2.17128 2.26453 2.36203 2.30243 2.55827C2.15533 2.39765 2.03806 3.20581 2.20138 3.36406Z" fill="url(#paint20_linear_0_630)"/>
<path id="Vector_22" opacity="0.2" d="M0.363446 2.68047C0.473603 2.78715 0.661565 2.81805 0.809367 2.75365C0.792973 2.85037 0.928026 2.90743 1.03324 2.89359C1.13845 2.87974 1.24185 2.82919 1.34558 2.8464C1.41333 2.85763 1.47231 2.89705 1.54057 2.90599C1.60884 2.91502 1.69644 2.86886 1.68274 2.80674C1.74163 2.91713 1.90314 2.94473 2.03567 2.91806C2.16812 2.89131 2.28921 2.8253 2.4214 2.7972C2.52401 2.77542 2.63426 2.7761 2.72681 2.72875C2.81927 2.6814 2.8786 2.55606 2.806 2.48828C2.87886 2.52719 2.96915 2.47216 3.03438 2.42025C3.23431 2.26099 3.43433 2.10172 3.63426 1.94245C3.61431 1.91105 3.59445 1.87957 3.5745 1.84817C3.7838 1.71971 3.85761 1.45418 3.79777 1.23338C3.78337 1.18029 3.76255 1.12906 3.74173 1.07799C3.70808 0.99528 3.67442 0.912565 3.64085 0.82985C3.61258 0.760302 3.58205 0.687715 3.52081 0.639943C3.45957 0.592171 3.35748 0.579595 3.29937 0.633359C3.24463 0.536211 3.16805 0.439485 3.05346 0.409185C2.93888 0.378884 2.78744 0.452652 2.79012 0.563136C2.73661 0.449445 2.57458 0.393317 2.44968 0.445225C2.32469 0.497133 2.25911 0.647622 2.31176 0.761651C2.24914 0.591832 1.92933 0.594534 1.86055 0.76545C1.80911 0.682988 1.67727 0.655473 1.58888 0.708732C1.5005 0.76199 1.47326 0.885301 1.53268 0.962868C1.44212 0.907246 1.30889 0.918387 1.22727 0.988358C1.14565 1.05833 1.12371 1.1802 1.17705 1.26765C1.00418 1.21667 0.810149 1.41788 0.886131 1.5693C0.689756 1.4876 0.426591 1.67835 0.464495 1.87459C0.317387 1.71414 0.200117 2.5223 0.363446 2.68047Z" fill="url(#paint21_linear_0_630)"/>
<path id="Vector_23" opacity="0.2" d="M0.156498 2.72539C0.266656 2.83216 0.454618 2.86297 0.602421 2.79857C0.586027 2.89529 0.721078 2.95235 0.826292 2.93851C0.931506 2.92467 1.03498 2.87411 1.13872 2.89133C1.20647 2.90255 1.26545 2.94197 1.33363 2.95091C1.40189 2.95995 1.48949 2.91386 1.47579 2.85166C1.53468 2.96214 1.69619 2.98966 1.82873 2.96298C1.96118 2.93631 2.08226 2.87023 2.21445 2.8422C2.31707 2.82043 2.42731 2.8211 2.51986 2.77375C2.61232 2.72632 2.67165 2.60106 2.59905 2.53329C2.67191 2.5722 2.76221 2.51717 2.82743 2.46518C3.02737 2.30591 3.22739 2.14664 3.42732 1.98737C3.40737 1.95597 3.3875 1.92449 3.36755 1.89309C3.57685 1.76463 3.65067 1.4991 3.59082 1.2783C3.57642 1.22521 3.5556 1.17398 3.53479 1.12292C3.50113 1.0402 3.46748 0.957486 3.43391 0.874771C3.40563 0.805223 3.3751 0.732637 3.31386 0.684865C3.25262 0.637008 3.15053 0.624516 3.09242 0.678281C3.03769 0.581133 2.9611 0.484407 2.84652 0.454106C2.73193 0.423806 2.58049 0.497574 2.58318 0.608058C2.52966 0.494367 2.36763 0.438239 2.24273 0.490147C2.11774 0.542054 2.05217 0.692544 2.10482 0.806573C2.04219 0.636754 1.7223 0.639456 1.6536 0.810372C1.60217 0.72791 1.47032 0.700395 1.38194 0.753653C1.29355 0.806912 1.26632 0.930223 1.32573 1.00779C1.23526 0.952168 1.10195 0.963309 1.02033 1.03328C0.938706 1.10325 0.91676 1.22513 0.970105 1.31257C0.797235 1.26159 0.603288 1.46281 0.679184 1.61422C0.482808 1.53252 0.219644 1.72327 0.257549 1.91951C0.110441 1.75906 -0.00683042 2.56722 0.156498 2.72539Z" fill="url(#paint22_linear_0_630)"/>
<path id="Vector_24" opacity="0.2" d="M0.230265 3.04566C0.340423 3.15234 0.528385 3.18324 0.676188 3.11884C0.659794 3.21556 0.794845 3.27262 0.900059 3.25878C1.00527 3.24493 1.10875 3.19438 1.21249 3.21159C1.28023 3.22282 1.33922 3.26224 1.40739 3.27127C1.47565 3.2803 1.56326 3.23413 1.54956 3.17201C1.60845 3.28241 1.76996 3.31001 1.90249 3.28334C2.03494 3.25667 2.15603 3.19058 2.28822 3.16247C2.39083 3.1407 2.50108 3.14137 2.59363 3.09402C2.68609 3.04659 2.74542 2.92133 2.67282 2.85356C2.74568 2.89247 2.83597 2.83744 2.9012 2.78553C3.10113 2.62626 3.30115 2.46699 3.50108 2.30772C3.48113 2.27632 3.46127 2.24484 3.44132 2.21344C3.65071 2.08507 3.72443 1.81945 3.66459 1.59865C3.65019 1.54556 3.62937 1.49433 3.60855 1.44327C3.5749 1.36055 3.54124 1.27784 3.50768 1.19512C3.4794 1.12558 3.44887 1.05299 3.38763 1.00522C3.32639 0.957446 3.2243 0.94487 3.16619 0.998634C3.11145 0.901487 3.03486 0.80476 2.92028 0.77446C2.8057 0.744159 2.65426 0.817928 2.65695 0.928411C2.60343 0.81472 2.4414 0.758592 2.31641 0.8105C2.19142 0.862323 2.12585 1.0129 2.1785 1.12693C2.11587 0.957107 1.79598 0.959809 1.72728 1.13073C1.67576 1.04826 1.544 1.02075 1.45562 1.074C1.36723 1.12726 1.34 1.25058 1.39941 1.32814C1.30894 1.27252 1.17563 1.28366 1.09401 1.35363C1.01239 1.4236 0.99044 1.54548 1.04378 1.63292C0.870915 1.58194 0.676882 1.78316 0.752865 1.93458C0.556489 1.85288 0.293324 2.04363 0.331229 2.23995C0.184207 2.07925 0.0669367 2.88749 0.230265 3.04566Z" fill="url(#paint23_linear_0_630)"/>
<path id="Vector_25" opacity="0.2" d="M0.950999 3.41281C1.06116 3.51949 1.24912 3.55038 1.39692 3.48598C1.38053 3.58279 1.51558 3.63976 1.62079 3.62592C1.72601 3.61208 1.82949 3.56152 1.93322 3.57874C2.00097 3.58997 2.05995 3.62938 2.12813 3.63841C2.19639 3.64736 2.28399 3.60128 2.27029 3.53916C2.32919 3.64956 2.49069 3.67716 2.62323 3.65048C2.75568 3.62381 2.87676 3.55773 3.00895 3.52962C3.11156 3.50784 3.22181 3.50852 3.31436 3.46117C3.40682 3.41373 3.46615 3.28848 3.39355 3.2207C3.46641 3.25961 3.55671 3.20458 3.62193 3.15268C3.82195 2.99341 4.02188 2.83414 4.22182 2.67487C4.20187 2.64347 4.182 2.61199 4.16205 2.58059C4.37144 2.45213 4.44517 2.1866 4.38532 1.9658C4.37092 1.91271 4.3501 1.86148 4.32929 1.81042C4.29563 1.7277 4.26206 1.64499 4.22841 1.56227C4.20013 1.49272 4.1696 1.42014 4.10836 1.37236C4.04713 1.32451 3.94503 1.31202 3.88692 1.36578C3.83219 1.26872 3.7556 1.17191 3.64102 1.14161C3.52643 1.11131 3.37499 1.18507 3.37768 1.29556C3.32416 1.18187 3.16213 1.12574 3.03714 1.17765C2.91215 1.22947 2.84658 1.38004 2.89923 1.49407C2.8366 1.32425 2.5168 1.32696 2.44802 1.49787C2.39658 1.41541 2.26474 1.3879 2.17635 1.44115C2.08797 1.49441 2.06073 1.61772 2.12015 1.69529C2.02968 1.63967 1.89636 1.65081 1.81465 1.72078C1.73303 1.79075 1.71109 1.91263 1.76443 2.00007C1.59156 1.94909 1.39753 2.15031 1.47351 2.30172C1.27714 2.22002 1.01397 2.41077 1.05188 2.6071C0.904941 2.44639 0.78767 3.25463 0.950999 3.41281Z" fill="url(#paint24_linear_0_630)"/>
<path id="Vector_26" opacity="0.2" d="M2.18295 3.48125C2.2931 3.58793 2.48107 3.61882 2.62887 3.55443C2.61248 3.65124 2.74753 3.70821 2.85274 3.69437C2.95795 3.68053 3.06143 3.62997 3.16517 3.64718C3.23292 3.65841 3.2919 3.69783 3.36007 3.70677C3.42834 3.71581 3.51594 3.66972 3.50224 3.60751C3.56113 3.71791 3.72264 3.74552 3.85518 3.71876C3.98771 3.69209 4.10871 3.626 4.2409 3.59798C4.34351 3.5762 4.45376 3.57688 4.54631 3.52953C4.63877 3.48209 4.6981 3.35684 4.6255 3.28906C4.69836 3.32797 4.78865 3.27294 4.85388 3.22104C5.05381 3.06177 5.25383 2.9025 5.45376 2.74323C5.43381 2.71183 5.41395 2.68035 5.394 2.64895C5.60339 2.52057 5.67712 2.25496 5.61727 2.03416C5.60287 1.98107 5.58205 1.92984 5.56123 1.87877C5.52758 1.79606 5.49392 1.71334 5.46036 1.63063C5.43208 1.56108 5.40155 1.48849 5.34031 1.44072C5.27907 1.39287 5.17698 1.38037 5.11887 1.43414C5.06414 1.33699 4.98755 1.24027 4.87296 1.20997C4.75838 1.17967 4.60694 1.25343 4.60963 1.36391C4.55611 1.25022 4.39417 1.1941 4.26918 1.246C4.14419 1.29783 4.07861 1.4484 4.13126 1.56243C4.06864 1.39261 3.74875 1.39531 3.68005 1.56623C3.62862 1.48377 3.49677 1.45625 3.40839 1.50951C3.32 1.56277 3.29276 1.68608 3.35218 1.76365C3.26162 1.70803 3.1284 1.71917 3.04669 1.78914C2.96507 1.85911 2.94312 1.98099 2.99647 2.06843C2.8236 2.01745 2.62956 2.21867 2.70555 2.37008C2.50917 2.28838 2.24601 2.47913 2.28391 2.67537C2.13689 2.51484 2.01962 3.32299 2.18295 3.48125Z" fill="url(#paint25_linear_0_630)"/>
<path id="Vector_27" opacity="0.2" d="M3.34164 3.36016C3.4518 3.46684 3.63976 3.49773 3.78757 3.43333C3.77117 3.53014 3.90622 3.58712 4.01144 3.57327C4.11665 3.55943 4.22004 3.50887 4.32387 3.52609C4.39161 3.53732 4.45059 3.57673 4.51877 3.58568C4.58703 3.59471 4.67464 3.54854 4.66093 3.48642C4.71983 3.59682 4.88134 3.62442 5.01387 3.59775C5.14632 3.57108 5.26741 3.50499 5.3996 3.47688C5.50221 3.45511 5.61245 3.45578 5.705 3.40843C5.79747 3.361 5.8568 3.23575 5.7842 3.16797C5.85706 3.20688 5.94735 3.15185 6.01258 3.09994C6.21251 2.94067 6.41253 2.78141 6.61246 2.62214C6.59251 2.59074 6.57265 2.55926 6.5527 2.52786C6.762 2.39948 6.83581 2.13387 6.77596 1.91307C6.76156 1.85998 6.74075 1.80875 6.71993 1.75768C6.68628 1.67497 6.65271 1.59225 6.61905 1.50954C6.59078 1.43999 6.56025 1.3674 6.49901 1.31963C6.43777 1.27177 6.33568 1.25928 6.27765 1.31305C6.22292 1.2159 6.14633 1.11917 6.03175 1.08887C5.91717 1.05857 5.76572 1.13234 5.76841 1.24282C5.71489 1.12913 5.55287 1.073 5.42788 1.12491C5.30289 1.17682 5.23731 1.32731 5.28996 1.44134C5.22734 1.27152 4.90753 1.27422 4.83875 1.44514C4.78731 1.36268 4.65547 1.33516 4.56708 1.38842C4.4787 1.44168 4.45146 1.56499 4.51088 1.64256C4.42041 1.58693 4.28709 1.59807 4.20547 1.66805C4.12385 1.73802 4.10191 1.85989 4.15525 1.94733C3.98238 1.89635 3.78835 2.09757 3.86433 2.24899C3.66795 2.16729 3.40479 2.35804 3.44269 2.55428C3.29559 2.39374 3.17832 3.2019 3.34164 3.36016Z" fill="url(#paint26_linear_0_630)"/>
<path id="Vector_28" opacity="0.2" d="M3.99319 3.12383C4.10334 3.23051 4.29131 3.2614 4.43911 3.19701C4.42271 3.29373 4.55777 3.35079 4.66298 3.33694C4.76819 3.3231 4.87167 3.27255 4.97541 3.28976C5.04315 3.30099 5.10214 3.34041 5.17031 3.34935C5.23849 3.35838 5.32618 3.3123 5.31248 3.25009C5.37137 3.36049 5.53288 3.38809 5.66542 3.36142C5.79795 3.33475 5.91895 3.26866 6.05114 3.24064C6.15375 3.21887 6.264 3.21954 6.35655 3.17219C6.44901 3.12476 6.50834 2.9995 6.43574 2.93173C6.50851 2.97064 6.59889 2.91561 6.66412 2.86361C6.86405 2.70434 7.06407 2.54508 7.264 2.38581C7.24405 2.35441 7.22419 2.32293 7.20424 2.29153C7.41354 2.16307 7.48736 1.89754 7.42751 1.67674C7.41311 1.62365 7.39229 1.57242 7.37147 1.52135C7.33782 1.43864 7.30416 1.35592 7.2706 1.27321C7.24232 1.20366 7.21179 1.13107 7.15055 1.0833C7.08931 1.03545 6.98722 1.02295 6.92911 1.07672C6.87438 0.979571 6.79778 0.882845 6.6832 0.852544C6.56862 0.822243 6.41718 0.896012 6.41987 1.0065C6.36635 0.892805 6.20432 0.836676 6.07933 0.888584C5.95434 0.940492 5.88877 1.09098 5.94142 1.20501C5.87879 1.03519 5.55899 1.03789 5.4902 1.20881C5.43877 1.12635 5.30693 1.09883 5.21854 1.15209C5.13015 1.20535 5.10292 1.32866 5.16233 1.40623C5.07186 1.35061 4.93855 1.36175 4.85693 1.43172C4.77531 1.50169 4.75336 1.62356 4.80671 1.71101C4.63384 1.66003 4.4398 1.86124 4.51579 2.01266C4.31941 1.93096 4.05624 2.12171 4.09415 2.31795C3.94713 2.15741 3.82994 2.96557 3.99319 3.12383Z" fill="url(#paint27_linear_0_630)"/>
<path id="Vector_29" opacity="0.2" d="M4.19607 2.83077C4.30623 2.93746 4.49419 2.96835 4.64199 2.90395C4.6256 3.00068 4.76065 3.05774 4.86587 3.04389C4.97108 3.03005 5.07456 2.97958 5.1783 2.99671C5.24604 3.00794 5.30502 3.04735 5.3732 3.0563C5.44138 3.06533 5.52907 3.01916 5.51536 2.95704C5.57426 3.06744 5.73577 3.09504 5.8683 3.06837C6.00075 3.0417 6.12184 2.97561 6.25403 2.9475C6.35664 2.92573 6.46688 2.9264 6.55943 2.87905C6.6519 2.83162 6.71123 2.70637 6.63863 2.63859C6.71149 2.6775 6.80178 2.62247 6.86701 2.57056C7.06694 2.41129 7.26696 2.25202 7.46689 2.09276C7.44694 2.06136 7.42708 2.02988 7.40713 1.99848C7.61643 1.87002 7.69024 1.60448 7.63039 1.38369C7.61599 1.3306 7.59518 1.27936 7.57436 1.2283C7.54071 1.14559 7.50705 1.06287 7.47348 0.980155C7.44521 0.910607 7.41467 0.838021 7.35344 0.790249C7.2922 0.742477 7.19011 0.729901 7.13199 0.78375C7.07726 0.686602 7.00067 0.589876 6.88609 0.559575C6.77151 0.529274 6.62006 0.603043 6.62275 0.713527C6.56923 0.599836 6.40721 0.543708 6.28222 0.595615C6.15723 0.647523 6.09165 0.798013 6.1443 0.912042C6.08168 0.742223 5.76187 0.744925 5.69309 0.915926C5.64157 0.833464 5.50981 0.805949 5.42143 0.859207C5.33304 0.912466 5.3058 1.03578 5.36522 1.11334C5.27475 1.05772 5.14143 1.06886 5.05981 1.13883C4.97819 1.2088 4.95625 1.33068 5.00959 1.41812C4.83672 1.36714 4.64269 1.56836 4.71867 1.71978C4.5223 1.63808 4.25913 1.82883 4.29704 2.02506C4.15002 1.86436 4.03275 2.67252 4.19607 2.83077Z" fill="url(#paint28_linear_0_630)"/>
<path id="Vector_30" opacity="0.2" d="M3.88618 2.62773C3.99634 2.73442 4.1843 2.76531 4.3321 2.70091C4.31571 2.79764 4.45076 2.8547 4.55597 2.84085C4.66119 2.82701 4.76467 2.77645 4.86832 2.79367C4.93606 2.8049 4.99504 2.84431 5.06331 2.85326C5.13157 2.86229 5.21918 2.81621 5.20547 2.754C5.26437 2.8644 5.42587 2.892 5.55841 2.86533C5.69086 2.83866 5.81195 2.77257 5.94414 2.74447C6.04675 2.72269 6.15699 2.72336 6.24954 2.67601C6.34201 2.62858 6.40133 2.50333 6.32873 2.43555C6.40159 2.47446 6.49189 2.41943 6.55712 2.36752C6.75705 2.20825 6.95707 2.04898 7.157 1.88972C7.13705 1.85832 7.11719 1.82683 7.09724 1.79544C7.30654 1.66698 7.38035 1.40144 7.3205 1.18065C7.3061 1.12756 7.28528 1.07632 7.26447 1.02526C7.23081 0.942545 7.19716 0.85983 7.16359 0.777115C7.13531 0.707567 7.10478 0.634981 7.04354 0.587209C6.98231 0.539436 6.88022 0.52686 6.8221 0.580625C6.76737 0.483477 6.69078 0.386751 6.5762 0.35645C6.46162 0.326149 6.31017 0.399918 6.31286 0.510402C6.25934 0.396711 6.09732 0.340583 5.97241 0.39249C5.84742 0.444314 5.78185 0.594891 5.8345 0.708919C5.77187 0.5391 5.45207 0.5418 5.38329 0.712801C5.33185 0.630339 5.20001 0.602824 5.11162 0.656082C5.02324 0.70934 4.996 0.832652 5.05541 0.910218C4.96495 0.854597 4.83163 0.865738 4.75001 0.935708C4.66839 1.00568 4.64644 1.12756 4.69979 1.215C4.52692 1.16402 4.33288 1.36523 4.40887 1.51665C4.21249 1.43495 3.94933 1.6257 3.98723 1.82194C3.84004 1.66132 3.72285 2.46948 3.88618 2.62773Z" fill="url(#paint29_linear_0_630)"/>
<path id="Vector_31" opacity="0.2" d="M3.83746 2.7839C3.94762 2.89058 4.13558 2.92148 4.28339 2.85708C4.26699 2.9538 4.40204 3.01086 4.50726 2.99702C4.61247 2.98317 4.71595 2.9327 4.81969 2.94984C4.88743 2.96106 4.94641 3.00048 5.01459 3.00942C5.08285 3.01846 5.17046 2.97229 5.15675 2.91017C5.21565 3.02057 5.37716 3.04817 5.50969 3.02149C5.64214 2.99482 5.76323 2.92873 5.89542 2.90063C5.99803 2.87885 6.10827 2.87953 6.20082 2.83218C6.29329 2.78474 6.35262 2.65949 6.28002 2.59171C6.35288 2.63062 6.44317 2.57559 6.5084 2.52368C6.70833 2.36442 6.90835 2.20515 7.10828 2.04588C7.08833 2.01448 7.06847 1.983 7.04852 1.9516C7.25782 1.82314 7.33163 1.55761 7.27178 1.33681C7.25738 1.28372 7.23657 1.23249 7.21575 1.18143C7.18209 1.09871 7.14853 1.016 7.11487 0.93328C7.0866 0.863732 7.05606 0.791146 6.99483 0.743374C6.93359 0.695602 6.8315 0.683023 6.77338 0.736873C6.71865 0.639725 6.64206 0.543001 6.52748 0.5127C6.4129 0.4824 6.26145 0.556166 6.26414 0.666649C6.21063 0.552958 6.0486 0.496833 5.92361 0.548741C5.79862 0.600648 5.73304 0.751138 5.78569 0.865167C5.72307 0.695348 5.40318 0.698048 5.33448 0.869048C5.28304 0.786587 5.1512 0.759072 5.06282 0.81233C4.97443 0.865588 4.94719 0.9889 5.00661 1.06647C4.91614 1.01084 4.78283 1.02199 4.7012 1.09196C4.61958 1.16193 4.59764 1.28381 4.65098 1.37125C4.47811 1.32027 4.28408 1.52148 4.36006 1.6729C4.16369 1.5912 3.90052 1.78195 3.93843 1.97819C3.7914 1.81748 3.67422 2.62573 3.83746 2.7839Z" fill="url(#paint30_linear_0_630)"/>
<path id="Vector_32" opacity="0.2" d="M4.05978 3.16875C4.16994 3.27543 4.3579 3.30632 4.5057 3.24193C4.48931 3.33874 4.62436 3.39571 4.72957 3.38187C4.83479 3.36803 4.93826 3.31747 5.042 3.33468C5.10975 3.34591 5.16873 3.38533 5.2369 3.39427C5.30517 3.40331 5.39277 3.35722 5.37907 3.29501C5.43796 3.40541 5.59947 3.43302 5.73201 3.40626C5.86454 3.37959 5.98554 3.3135 6.11773 3.28548C6.22035 3.2637 6.33059 3.26438 6.42314 3.21703C6.5156 3.16959 6.57493 3.04434 6.50233 2.97656C6.57519 3.01547 6.66549 2.96044 6.73071 2.90854C6.93073 2.74927 7.13066 2.59 7.3306 2.43073C7.31065 2.39933 7.29078 2.36785 7.27083 2.33645C7.48013 2.20807 7.55395 1.94246 7.4941 1.72166C7.4797 1.66857 7.45888 1.61734 7.43807 1.56627C7.40441 1.48356 7.37084 1.40084 7.33719 1.31813C7.30891 1.24858 7.27838 1.17599 7.21714 1.12822C7.1559 1.08037 7.05381 1.06787 6.9957 1.12164C6.94097 1.02449 6.86438 0.927767 6.7498 0.897466C6.63521 0.867165 6.48377 0.940931 6.48646 1.05141C6.43294 0.937724 6.27091 0.881598 6.14592 0.933506C6.02093 0.98533 5.95536 1.1359 6.00801 1.24993C5.94538 1.08011 5.62549 1.08281 5.5568 1.25373C5.50536 1.17127 5.37352 1.14375 5.28513 1.19701C5.19674 1.25027 5.16951 1.37358 5.22892 1.45115C5.13846 1.39553 5.00514 1.40667 4.92352 1.47664C4.8419 1.54661 4.81995 1.66849 4.8733 1.75593C4.70043 1.70495 4.50639 1.90617 4.58238 2.05758C4.386 1.97588 4.12284 2.16663 4.16074 2.36295C4.01372 2.20233 3.89654 3.01049 4.05978 3.16875Z" fill="url(#paint31_linear_0_630)"/>
<path id="Vector_33" opacity="0.2" d="M3.85133 3.45382C3.96149 3.56059 4.14945 3.5914 4.29725 3.527C4.28086 3.62372 4.41591 3.68078 4.52112 3.66694C4.62634 3.6531 4.72982 3.60262 4.83355 3.61976C4.9013 3.63098 4.96028 3.6704 5.02846 3.67943C5.09672 3.68838 5.18432 3.64229 5.17062 3.58017C5.22952 3.69057 5.39102 3.71817 5.52356 3.6915C5.65601 3.66474 5.77709 3.59874 5.90928 3.57063C6.01189 3.54886 6.12214 3.54953 6.21469 3.50218C6.30715 3.45475 6.36648 3.3295 6.29388 3.26172C6.36674 3.30063 6.45704 3.2456 6.52226 3.19369C6.7222 3.03442 6.92221 2.87516 7.12215 2.71589C7.1022 2.68449 7.08233 2.65301 7.06238 2.62161C7.27177 2.49315 7.3455 2.22762 7.28565 2.00682C7.27125 1.95373 7.25043 1.9025 7.22962 1.85143C7.19596 1.76872 7.16231 1.686 7.12874 1.60329C7.10046 1.53374 7.06993 1.46115 7.00869 1.41338C6.94746 1.36552 6.84536 1.35303 6.78725 1.4068C6.73252 1.30965 6.65593 1.21292 6.54135 1.18262C6.42676 1.15232 6.27532 1.22609 6.27801 1.33657C6.22449 1.22288 6.06246 1.16675 5.93756 1.21866C5.81257 1.27057 5.747 1.42106 5.79965 1.53509C5.73702 1.36527 5.41713 1.36797 5.34843 1.53897C5.297 1.45651 5.16516 1.429 5.07677 1.48225C4.98838 1.53551 4.96115 1.65882 5.02056 1.73639C4.93009 1.68077 4.79678 1.69191 4.71516 1.76188C4.63354 1.83185 4.61159 1.95373 4.66494 2.04117C4.49207 1.99019 4.29803 2.19141 4.37401 2.34283C4.17764 2.26112 3.91447 2.45187 3.95238 2.64811C3.80527 2.48741 3.688 3.29557 3.85133 3.45382Z" fill="url(#paint32_linear_0_630)"/>
<path id="Vector_34" opacity="0.2" d="M3.02405 3.50851C3.13421 3.61519 3.32217 3.64609 3.46998 3.58169C3.45358 3.67841 3.58863 3.73547 3.69385 3.72163C3.79906 3.70778 3.90254 3.65723 4.00628 3.67445C4.07402 3.68567 4.133 3.72509 4.20118 3.73403C4.26944 3.74306 4.35705 3.69698 4.34334 3.63478C4.40224 3.74526 4.56375 3.77277 4.69628 3.7461C4.82882 3.71943 4.94982 3.65334 5.08201 3.62532C5.18462 3.60355 5.29486 3.60422 5.38741 3.55687C5.47988 3.50944 5.53921 3.38418 5.46661 3.31641C5.53947 3.35532 5.62976 3.30029 5.69499 3.24838C5.89492 3.08911 6.09494 2.92984 6.29487 2.77057C6.27492 2.73917 6.25506 2.70769 6.23511 2.67629C6.44441 2.54792 6.51822 2.2823 6.45837 2.0615C6.44397 2.00841 6.42316 1.95718 6.40234 1.90612C6.36869 1.8234 6.33503 1.74069 6.30146 1.65797C6.27319 1.58842 6.24266 1.51584 6.18142 1.46807C6.12018 1.42021 6.01809 1.40772 5.95997 1.46148C5.90524 1.36434 5.82865 1.26761 5.71407 1.23731C5.59949 1.20701 5.44804 1.28078 5.45073 1.39126C5.39722 1.27757 5.23519 1.22144 5.11029 1.27335C4.9853 1.32526 4.91972 1.47575 4.97237 1.58978C4.90975 1.41996 4.58986 1.42266 4.52116 1.59358C4.46972 1.51111 4.33788 1.4836 4.24949 1.53685C4.16111 1.59011 4.13387 1.71343 4.19329 1.79099C4.10273 1.73537 3.9695 1.74651 3.88779 1.81648C3.80617 1.88645 3.78423 2.00833 3.83757 2.09577C3.6647 2.04479 3.47067 2.24601 3.54665 2.39743C3.35028 2.31573 3.08711 2.50648 3.12502 2.70271C2.978 2.54209 2.86073 3.35025 3.02405 3.50851Z" fill="url(#paint33_linear_0_630)"/>
<path id="Vector_35" opacity="0.2" d="M2.46212 3.54961C2.57228 3.65629 2.76024 3.68719 2.90804 3.62279C2.89165 3.71951 3.0267 3.77657 3.13192 3.76273C3.23713 3.74888 3.34061 3.69833 3.44435 3.71555C3.51209 3.72677 3.57107 3.76619 3.63925 3.77513C3.70742 3.78416 3.79512 3.738 3.78141 3.67588C3.84031 3.78627 4.00181 3.81387 4.13435 3.7872C4.2668 3.76053 4.38789 3.69444 4.52008 3.66634C4.62269 3.64456 4.73293 3.64524 4.82548 3.59789C4.91794 3.55045 4.97727 3.4252 4.90467 3.35742C4.97753 3.39633 5.06783 3.3413 5.13306 3.28939C5.33299 3.13013 5.53301 2.97086 5.73294 2.81159C5.71299 2.78019 5.69312 2.74871 5.67317 2.71731C5.88256 2.58894 5.95629 2.32332 5.89644 2.10252C5.88204 2.04943 5.86122 1.9982 5.84041 1.94714C5.80675 1.86442 5.7731 1.78171 5.73953 1.69899C5.71125 1.62944 5.68072 1.55686 5.61948 1.50908C5.55825 1.46123 5.45616 1.44874 5.39804 1.5025C5.34331 1.40535 5.26672 1.30863 5.15214 1.27833C5.03756 1.24802 4.88611 1.32179 4.8888 1.43228C4.83528 1.31859 4.67334 1.26246 4.54835 1.31437C4.42336 1.36627 4.35779 1.51676 4.41044 1.63079C4.34781 1.46097 4.02801 1.46367 3.95923 1.63459C3.90779 1.55213 3.77595 1.52461 3.68756 1.57787C3.59917 1.63113 3.57194 1.75444 3.63135 1.83201C3.5408 1.77639 3.40757 1.78753 3.32586 1.8575C3.24424 1.92747 3.2223 2.04935 3.27564 2.13679C3.10277 2.08581 2.90874 2.28702 2.98472 2.43844C2.78834 2.35674 2.52518 2.54749 2.56308 2.74373C2.41606 2.58319 2.29879 3.39135 2.46212 3.54961Z" fill="url(#paint34_linear_0_630)"/>
<path id="Vector_36" opacity="0.2" d="M3.95481 3.90508C4.06496 4.01176 4.25293 4.04265 4.40073 3.97826C4.38433 4.07498 4.51939 4.13204 4.6246 4.11819C4.72981 4.10435 4.83321 4.0538 4.93703 4.07101C5.00477 4.08224 5.06376 4.12166 5.13202 4.1306C5.2002 4.13963 5.28789 4.09355 5.27418 4.03134C5.33308 4.14174 5.49459 4.16934 5.62712 4.14267C5.75957 4.11592 5.88066 4.04991 6.01285 4.02181C6.11546 4.00003 6.2257 4.00071 6.31825 3.95336C6.41072 3.90601 6.47005 3.78067 6.39745 3.71289C6.47022 3.7518 6.5606 3.69677 6.62583 3.64486C6.82585 3.48559 7.02578 3.32633 7.22571 3.16706C7.20576 3.13566 7.1859 3.10418 7.16595 3.07278C7.37525 2.94432 7.44906 2.67879 7.38921 2.45799C7.37481 2.4049 7.354 2.35367 7.33318 2.3026C7.29952 2.21989 7.26587 2.13717 7.2323 2.05446C7.20403 1.98491 7.17349 1.91232 7.11226 1.86455C7.05102 1.8167 6.94893 1.8042 6.89081 1.85797C6.83608 1.76091 6.75949 1.66409 6.64491 1.63379C6.53033 1.60349 6.37888 1.67726 6.38157 1.78775C6.32806 1.67405 6.16603 1.61793 6.04104 1.66983C5.91605 1.72174 5.85047 1.87223 5.90312 1.98626C5.8405 1.81644 5.52069 1.81914 5.45191 1.99006C5.40047 1.9076 5.26863 1.88008 5.18025 1.93334C5.09186 1.9866 5.06454 2.10991 5.12404 2.18748C5.03357 2.13186 4.90025 2.143 4.81855 2.21297C4.73693 2.28294 4.71498 2.40481 4.76833 2.49226C4.59546 2.44128 4.40142 2.64249 4.47741 2.79391C4.28103 2.71221 4.01786 2.90296 4.05577 3.0992C3.90875 2.93866 3.79148 3.74691 3.95481 3.90508Z" fill="url(#paint35_linear_0_630)"/>
<path id="Vector_37" opacity="0.2" d="M4.99257 3.81536C5.10273 3.92204 5.29069 3.95293 5.4385 3.88853C5.4221 3.98526 5.55715 4.04232 5.66237 4.02847C5.76758 4.01463 5.87106 3.96407 5.97471 3.98129C6.04246 3.99252 6.10144 4.03193 6.1697 4.04088C6.23796 4.04991 6.32557 4.00383 6.31187 3.94162C6.37076 4.05202 6.53227 4.07962 6.6648 4.05295C6.79725 4.02619 6.91834 3.96019 7.05053 3.93209C7.15314 3.91031 7.26339 3.91098 7.35594 3.86363C7.4484 3.81628 7.50773 3.69095 7.43513 3.62317C7.50799 3.66208 7.59828 3.60705 7.66351 3.55514C7.86344 3.39587 8.06346 3.23661 8.26339 3.07734C8.24344 3.04594 8.22358 3.01446 8.20363 2.98306C8.41302 2.85468 8.48674 2.58907 8.42689 2.36827C8.4125 2.31518 8.39168 2.26395 8.37086 2.21288C8.33721 2.13017 8.30355 2.04745 8.26999 1.96474C8.24171 1.89519 8.21118 1.8226 8.14994 1.77483C8.0887 1.72706 7.98661 1.71448 7.9285 1.76825C7.87376 1.6711 7.79717 1.57437 7.68259 1.54407C7.56801 1.51377 7.41657 1.58754 7.41925 1.69802C7.36574 1.58433 7.20371 1.5282 7.07881 1.58011C6.95382 1.63194 6.88824 1.78251 6.94089 1.89654C6.87827 1.72672 6.55846 1.72942 6.48968 1.90034C6.43824 1.81788 6.3064 1.79036 6.21801 1.84362C6.12963 1.89688 6.10239 2.02019 6.16181 2.09776C6.07125 2.04213 5.93802 2.05328 5.8564 2.12325C5.77478 2.19322 5.75284 2.31509 5.80618 2.40253C5.63331 2.35155 5.43928 2.55277 5.51526 2.70419C5.31888 2.62249 5.05572 2.81324 5.09362 3.00948C4.94652 2.84894 4.82933 3.6571 4.99257 3.81536Z" fill="url(#paint36_linear_0_630)"/>
<path id="Vector_38" opacity="0.2" d="M5.56633 2.65487C5.67649 2.76156 5.86446 2.79245 6.01226 2.72805C5.99586 2.82477 6.13092 2.88183 6.23613 2.86799C6.34134 2.85415 6.44473 2.80359 6.54847 2.82081C6.61622 2.83203 6.6752 2.87145 6.74346 2.88048C6.81164 2.88951 6.89933 2.84334 6.88563 2.78122C6.94452 2.89171 7.10603 2.91922 7.23857 2.89255C7.37101 2.86588 7.4921 2.79979 7.62429 2.77168C7.7269 2.74991 7.83715 2.75058 7.9297 2.70323C8.02216 2.6558 8.08149 2.53055 8.00889 2.46277C8.08175 2.50168 8.17204 2.44665 8.23727 2.39474C8.4372 2.23547 8.63722 2.07621 8.83715 1.91694C8.8172 1.88554 8.79734 1.85406 8.77739 1.82266C8.98678 1.69428 9.06051 1.42867 9.00066 1.20787C8.98626 1.15478 8.96544 1.10355 8.94462 1.05248C8.91097 0.969767 8.87731 0.887052 8.84366 0.804337C8.81538 0.734789 8.78485 0.662202 8.72361 0.61443C8.66238 0.566574 8.56028 0.554082 8.50217 0.607847C8.44744 0.510783 8.37085 0.413972 8.25627 0.383672C8.14169 0.353371 7.99024 0.42714 7.99293 0.537623C7.93941 0.423932 7.77747 0.367804 7.65248 0.419712C7.52749 0.47162 7.46192 0.62211 7.51457 0.736138C7.45194 0.566319 7.13214 0.569021 7.06335 0.739937C7.01192 0.657476 6.88007 0.629961 6.79169 0.683219C6.7033 0.736477 6.67607 0.859789 6.73548 0.937355C6.64501 0.881733 6.5117 0.892875 6.42999 0.962845C6.34837 1.03281 6.32642 1.15469 6.37977 1.24213C6.2069 1.19115 6.01286 1.39237 6.08885 1.54379C5.89247 1.46209 5.62931 1.65284 5.66721 1.84908C5.52028 1.68846 5.40301 2.49662 5.56633 2.65487Z" fill="url(#paint37_linear_0_630)"/>
<path id="Vector_39" opacity="0.2" d="M2.1266 2.84428C2.23675 2.95097 2.42472 2.98186 2.57252 2.91746C2.55612 3.01419 2.69118 3.07124 2.79639 3.0574C2.9016 3.04356 3.00508 2.993 3.10874 3.01022C3.17648 3.02145 3.23546 3.06086 3.30372 3.06989C3.37199 3.07892 3.45959 3.03276 3.44589 2.97063C3.50478 3.08112 3.66629 3.10863 3.79883 3.08196C3.93127 3.05529 4.05236 2.9892 4.18455 2.9611C4.28716 2.93932 4.39741 2.94 4.48996 2.89265C4.58242 2.84521 4.64175 2.71996 4.56915 2.65218C4.64201 2.69109 4.7323 2.63606 4.79753 2.58415C4.99746 2.42488 5.19748 2.26562 5.39741 2.10635C5.37746 2.07495 5.3576 2.04347 5.33765 2.01207C5.54695 1.88369 5.62077 1.61808 5.56092 1.39728C5.54652 1.34419 5.5257 1.29296 5.50488 1.24189C5.47123 1.15918 5.43757 1.07646 5.40401 0.993749C5.37573 0.924201 5.3452 0.851615 5.28396 0.803843C5.22272 0.755986 5.12063 0.743494 5.06252 0.797259C5.00778 0.700111 4.9312 0.603385 4.81661 0.573084C4.70203 0.542784 4.55059 0.616552 4.55328 0.727036C4.49976 0.613345 4.33773 0.557217 4.21283 0.609124C4.08784 0.661032 4.02226 0.811522 4.07491 0.925551C4.01229 0.755732 3.69248 0.758434 3.6237 0.92935C3.57226 0.846888 3.44042 0.819373 3.35204 0.872631C3.26365 0.92589 3.23641 1.0492 3.29583 1.12677C3.20536 1.07115 3.07204 1.08229 2.99042 1.15226C2.9088 1.22223 2.88686 1.3441 2.9402 1.43155C2.76733 1.38057 2.5733 1.58178 2.64928 1.7332C2.45291 1.6515 2.18974 1.84225 2.22765 2.03849C2.08054 1.87787 1.96327 2.68603 2.1266 2.84428Z" fill="url(#paint38_linear_0_630)"/>
<path id="Vector_40" opacity="0.2" d="M1.92939 2.405C2.03954 2.51168 2.22751 2.54257 2.37531 2.47817C2.35891 2.5749 2.49397 2.63195 2.59918 2.61811C2.70439 2.60427 2.80787 2.55371 2.91161 2.57093C2.97935 2.58215 3.03834 2.62157 3.10651 2.6306C3.17469 2.63963 3.26238 2.59347 3.24868 2.53134C3.30757 2.64174 3.46908 2.66934 3.60161 2.64267C3.73406 2.616 3.85515 2.54991 3.98734 2.52181C4.08995 2.50003 4.2002 2.50071 4.29275 2.45336C4.38521 2.40592 4.44454 2.28067 4.37194 2.21289C4.4448 2.2518 4.53509 2.19677 4.60032 2.14487C4.80025 1.9856 5.00027 1.82633 5.2002 1.66706C5.18034 1.63566 5.16039 1.60418 5.14044 1.57278C5.34983 1.4444 5.42355 1.17879 5.3637 0.95799C5.34931 0.904901 5.32849 0.853668 5.30767 0.802604C5.27402 0.719889 5.24036 0.637174 5.2068 0.554459C5.17852 0.484911 5.14799 0.412324 5.08675 0.364552C5.02551 0.31678 4.92342 0.304204 4.86531 0.357969C4.81057 0.260905 4.73398 0.164095 4.6194 0.133794C4.50482 0.103493 4.35338 0.177262 4.35607 0.287745C4.30255 0.174055 4.14052 0.117926 4.01562 0.169834C3.89063 0.221658 3.82505 0.372234 3.8777 0.486263C3.81508 0.316444 3.49519 0.319144 3.42649 0.490144C3.37505 0.407683 3.24321 0.380168 3.15483 0.433426C3.06644 0.486684 3.0392 0.609996 3.09862 0.687562C3.00815 0.631941 2.87483 0.643082 2.79313 0.713052C2.71151 0.783022 2.68956 0.904902 2.7429 0.992343C2.57003 0.941364 2.376 1.14258 2.45198 1.294C2.25561 1.2123 1.99244 1.40305 2.03035 1.59928C1.88333 1.43858 1.76606 2.24682 1.92939 2.405Z" fill="url(#paint39_linear_0_630)"/>
<path id="Vector_41" opacity="0.2" d="M1.78596 2.73116C1.89611 2.83785 2.08408 2.86874 2.23188 2.80434C2.21549 2.90107 2.35054 2.95812 2.45575 2.94428C2.56096 2.93044 2.66444 2.87988 2.7681 2.8971C2.83584 2.90833 2.89482 2.94774 2.96308 2.95677C3.03126 2.96572 3.11895 2.91964 3.10525 2.85752C3.16414 2.968 3.32565 2.99552 3.45819 2.96884C3.59072 2.94217 3.71172 2.87608 3.84391 2.84798C3.94652 2.8262 4.05677 2.82688 4.14932 2.77953C4.24178 2.73209 4.30111 2.60684 4.22851 2.53906C4.30137 2.57797 4.39166 2.52294 4.45689 2.47103C4.65682 2.31177 4.85684 2.1525 5.05677 1.99323C5.03682 1.96183 5.01696 1.93035 4.99701 1.89895C5.20631 1.77049 5.28013 1.50496 5.22028 1.28416C5.20588 1.23107 5.18506 1.17984 5.16424 1.12877C5.13059 1.04606 5.09693 0.963343 5.06337 0.880628C5.03509 0.81108 5.00456 0.738494 4.94332 0.690722C4.88208 0.64295 4.77999 0.630376 4.72188 0.684141C4.66715 0.586993 4.59056 0.490266 4.47597 0.459966C4.36139 0.429665 4.20995 0.503434 4.21264 0.613917C4.15912 0.500226 3.99709 0.444098 3.87219 0.496006C3.7472 0.547914 3.68162 0.698404 3.73427 0.812432C3.67165 0.642613 3.35185 0.645313 3.28306 0.816229C3.23163 0.733767 3.09978 0.706252 3.0114 0.75951C2.92301 0.812769 2.89577 0.936083 2.95519 1.01365C2.86464 0.958027 2.73141 0.969169 2.6497 1.03914C2.56808 1.10911 2.54613 1.23099 2.59948 1.31843C2.42661 1.26745 2.23257 1.46867 2.30856 1.62008C2.11218 1.53838 1.84902 1.72913 1.88692 1.92545C1.7399 1.76475 1.62263 2.57291 1.78596 2.73116Z" fill="url(#paint40_linear_0_630)"/>
<path id="Vector_42" opacity="0.2" d="M1.86378 3.0671C1.97394 3.17379 2.1619 3.20468 2.3097 3.14028C2.29331 3.23701 2.42836 3.29406 2.53357 3.28022C2.63879 3.26638 2.74226 3.21582 2.846 3.23304C2.91375 3.24426 2.97273 3.28368 3.04091 3.29263C3.10917 3.30166 3.19677 3.25549 3.18307 3.19337C3.24196 3.30377 3.40347 3.33137 3.53601 3.3047C3.66846 3.27803 3.78954 3.21194 3.92173 3.18392C4.02435 3.16214 4.13459 3.16282 4.22714 3.11547C4.3196 3.06803 4.37893 2.94278 4.30633 2.875C4.37919 2.91391 4.46949 2.85888 4.53471 2.80698C4.73465 2.64771 4.93467 2.48844 5.1346 2.32917C5.11465 2.29777 5.09478 2.26629 5.07483 2.23489C5.28413 2.10643 5.35795 1.8409 5.29801 1.6201C5.28361 1.56701 5.2628 1.51578 5.24198 1.46471C5.20832 1.382 5.17467 1.29928 5.1411 1.21657C5.11283 1.14702 5.08229 1.07443 5.02106 1.02666C4.95982 0.978805 4.85773 0.966313 4.79961 1.02008C4.74488 0.923015 4.66829 0.826204 4.55371 0.795903C4.43913 0.765603 4.28768 0.839371 4.29037 0.949855C4.23685 0.836164 4.07483 0.780036 3.94992 0.831944C3.82493 0.883767 3.75936 1.03434 3.81201 1.14837C3.74939 0.978553 3.42958 0.981253 3.3608 1.15217C3.30936 1.06971 3.17752 1.04219 3.08913 1.09545C3.00075 1.14871 2.97351 1.27202 3.03293 1.34959C2.94246 1.29396 2.80914 1.30511 2.72752 1.37508C2.6459 1.44505 2.62395 1.56693 2.6773 1.65437C2.50443 1.60339 2.31039 1.80461 2.38638 1.95602C2.19 1.87432 1.92684 2.06507 1.96474 2.26131C1.81772 2.10069 1.70054 2.90893 1.86378 3.0671Z" fill="url(#paint41_linear_0_630)"/>
<path id="Vector_43" opacity="0.2" d="M8.12589 3.32291C8.23604 3.42959 8.42401 3.46049 8.57181 3.39609C8.55541 3.4929 8.69047 3.54987 8.79568 3.53603C8.90089 3.52219 9.00437 3.47163 9.10811 3.48884C9.17585 3.50007 9.23484 3.53949 9.30301 3.54843C9.37119 3.55738 9.45888 3.51138 9.44518 3.44917C9.50407 3.55957 9.66558 3.58717 9.79812 3.5605C9.93056 3.53383 10.0517 3.46775 10.1838 3.43964C10.2865 3.41786 10.3967 3.41854 10.4892 3.37119C10.5817 3.32384 10.641 3.1985 10.5684 3.13072C10.6413 3.16963 10.7316 3.1146 10.7968 3.0627C10.9968 2.90343 11.1968 2.74416 11.3967 2.58489C11.3768 2.55349 11.3569 2.52201 11.3369 2.49061C11.5462 2.36223 11.6201 2.09662 11.5601 1.87582C11.5457 1.82273 11.5249 1.7715 11.5041 1.72043C11.4704 1.63772 11.4368 1.555 11.4032 1.47229C11.3749 1.40274 11.3444 1.33015 11.2832 1.28238C11.2219 1.23453 11.1198 1.22203 11.0617 1.2758C11.007 1.17865 10.9304 1.08193 10.8158 1.05163C10.7012 1.02133 10.5498 1.09509 10.5525 1.20558C10.499 1.09188 10.3369 1.03576 10.2119 1.08767C10.087 1.13957 10.0214 1.29006 10.074 1.40409C10.0114 1.23427 9.6916 1.23697 9.62282 1.40789C9.57138 1.32543 9.43954 1.29791 9.35115 1.35117C9.26276 1.40443 9.23553 1.52774 9.29495 1.60531C9.20448 1.54969 9.07116 1.56083 8.98954 1.6308C8.90792 1.70077 8.88597 1.82265 8.93932 1.91009C8.76645 1.85911 8.57241 2.06033 8.6484 2.21174C8.45202 2.13004 8.18886 2.32079 8.22676 2.51703C8.07983 2.3565 7.96265 3.16465 8.12589 3.32291Z" fill="url(#paint42_linear_0_630)"/>
<path id="Vector_44" opacity="0.2" d="M8.4933 2.92053C8.60346 3.02722 8.79142 3.05811 8.93922 2.99371C8.92283 3.09044 9.05788 3.14749 9.1631 3.13365C9.26831 3.11981 9.3717 3.06925 9.47553 3.08647C9.54327 3.0977 9.60225 3.13711 9.67043 3.14614C9.73869 3.15517 9.8263 3.10901 9.81259 3.04689C9.87149 3.15737 10.033 3.18488 10.1655 3.15821C10.298 3.13154 10.4191 3.06545 10.5513 3.03743C10.6539 3.01566 10.7641 3.01633 10.8567 2.96898C10.9491 2.92155 11.0085 2.79629 10.9359 2.72852C11.0087 2.76743 11.099 2.7124 11.1642 2.66049C11.3643 2.50122 11.5642 2.34195 11.7641 2.18268C11.7442 2.15128 11.7243 2.1198 11.7044 2.0884C11.9137 1.95994 11.9875 1.69441 11.9276 1.47361C11.9132 1.42052 11.8924 1.36929 11.8716 1.31823C11.8379 1.23551 11.8043 1.1528 11.7707 1.07008C11.7424 1.00053 11.7119 0.927947 11.6507 0.880175C11.5894 0.832403 11.4873 0.819826 11.4292 0.873591C11.3745 0.776443 11.2979 0.67972 11.1833 0.649419C11.0687 0.619118 10.9173 0.692887 10.92 0.80337C10.8665 0.68968 10.7045 0.633551 10.5795 0.685459C10.4545 0.737367 10.389 0.887857 10.4416 1.00189C10.379 0.832066 10.0591 0.834766 9.99041 1.00568C9.93897 0.92322 9.80713 0.895705 9.71874 0.948963C9.63035 1.00222 9.60312 1.12554 9.66254 1.2031C9.57207 1.14748 9.43875 1.15862 9.35713 1.22859C9.27551 1.29856 9.25356 1.42044 9.30691 1.50788C9.13404 1.4569 8.94 1.65812 9.01599 1.80954C8.81961 1.72784 8.55645 1.91858 8.59435 2.11491C8.44724 1.95412 8.32997 2.76236 8.4933 2.92053Z" fill="url(#paint43_linear_0_630)"/>
<path id="Vector_45" opacity="0.2" d="M8.07121 2.61992C8.18137 2.72661 8.36934 2.7575 8.51714 2.6931C8.50074 2.78983 8.6358 2.84688 8.74101 2.83304C8.84622 2.8192 8.94961 2.76864 9.05344 2.78586C9.12118 2.79708 9.18017 2.8365 9.24834 2.84545C9.31652 2.85448 9.40421 2.80839 9.39051 2.74619C9.4494 2.85659 9.61091 2.88419 9.74345 2.85752C9.87589 2.83084 9.99698 2.76476 10.1292 2.73674C10.2318 2.71496 10.342 2.71563 10.4346 2.66828C10.527 2.62085 10.5864 2.4956 10.5138 2.42782C10.5866 2.46673 10.6769 2.4117 10.7422 2.35971C10.9421 2.20044 11.1421 2.04117 11.342 1.8819C11.3221 1.8505 11.3022 1.81902 11.2823 1.78762C11.4917 1.65916 11.5654 1.39363 11.5055 1.17283C11.4911 1.11974 11.4703 1.06851 11.4495 1.01745C11.4158 0.93473 11.3822 0.852018 11.3486 0.769303C11.3203 0.699755 11.2898 0.627168 11.2286 0.579396C11.1673 0.53154 11.0653 0.519048 11.0071 0.572812C10.9524 0.475665 10.8758 0.378938 10.7612 0.348638C10.6467 0.318337 10.4952 0.392106 10.4979 0.502589C10.4444 0.388898 10.2824 0.33277 10.1574 0.384678C10.0325 0.436586 9.96688 0.587076 10.0195 0.701104C9.95691 0.531285 9.63702 0.533987 9.56832 0.704903C9.51688 0.622442 9.38504 0.594924 9.29666 0.648182C9.20827 0.70144 9.18103 0.824755 9.24045 0.902321C9.14998 0.846699 9.01666 0.857841 8.93496 0.927811C8.85333 0.997781 8.83139 1.11966 8.88474 1.2071C8.71187 1.15612 8.51783 1.35734 8.59381 1.50876C8.39744 1.42705 8.13427 1.6178 8.17218 1.81404C8.02516 1.65359 7.90789 2.46175 8.07121 2.61992Z" fill="url(#paint44_linear_0_630)"/>
<path id="Vector_46" opacity="0.2" d="M7.83657 2.54757C7.94673 2.65426 8.13469 2.68515 8.28249 2.62075C8.2661 2.71747 8.40115 2.77453 8.50636 2.76069C8.61158 2.74685 8.71506 2.69629 8.81879 2.71351C8.88654 2.72473 8.94552 2.76415 9.0137 2.7731C9.08187 2.78213 9.16957 2.73596 9.15586 2.67384C9.21476 2.78424 9.37626 2.81184 9.5088 2.78517C9.64125 2.75849 9.76234 2.69241 9.89452 2.66439C9.99714 2.64261 10.1074 2.64329 10.1999 2.59594C10.2924 2.5485 10.3517 2.42325 10.2791 2.35547C10.352 2.39438 10.4423 2.33935 10.5075 2.28744C10.7075 2.12818 10.9075 1.96891 11.1074 1.80964C11.0874 1.77824 11.0676 1.74676 11.0476 1.71536C11.257 1.58698 11.3307 1.32137 11.2709 1.10057C11.2565 1.04748 11.2357 0.996246 11.2149 0.945182C11.1812 0.862467 11.1475 0.779752 11.114 0.697037C11.0857 0.627489 11.0552 0.554903 10.9939 0.50713C10.9327 0.459274 10.8306 0.446782 10.7725 0.500547C10.7178 0.403399 10.6412 0.306673 10.5266 0.276372C10.412 0.246071 10.2606 0.31984 10.2633 0.430323C10.2097 0.316633 10.0477 0.260504 9.92272 0.312412C9.79773 0.364236 9.73215 0.514813 9.7848 0.628841C9.72218 0.459022 9.40237 0.461722 9.33359 0.632638C9.28206 0.550176 9.15031 0.522661 9.06192 0.575919C8.97354 0.629177 8.9463 0.752492 9.00572 0.830058C8.91525 0.774436 8.78193 0.785575 8.70023 0.855545C8.6186 0.925515 8.59666 1.04739 8.65 1.13484C8.47713 1.08386 8.2831 1.28507 8.35908 1.43649C8.16271 1.35479 7.89954 1.54554 7.93745 1.74178C7.79051 1.58116 7.67333 2.38932 7.83657 2.54757Z" fill="url(#paint45_linear_0_630)"/>
</g>
<defs>
<linearGradient id="paint0_linear_0_630" x1="1.87589" y1="1.15243" x2="1.87589" y2="3.67759" gradientUnits="userSpaceOnUse">
<stop stop-color="white"/>
<stop offset="1" stop-color="white"/>
</linearGradient>
<linearGradient id="paint1_linear_0_630" x1="1.83132" y1="0.957031" x2="1.83132" y2="3.48216" gradientUnits="userSpaceOnUse">
<stop stop-color="white"/>
<stop offset="1" stop-color="white"/>
</linearGradient>
<linearGradient id="paint2_linear_0_630" x1="1.76673" y1="0.677897" x2="1.76673" y2="3.20298" gradientUnits="userSpaceOnUse">
<stop stop-color="white"/>
<stop offset="1" stop-color="white"/>
</linearGradient>
<linearGradient id="paint3_linear_0_630" x1="2.41632" y1="0.457031" x2="2.41632" y2="2.98211" gradientUnits="userSpaceOnUse">
<stop stop-color="white"/>
<stop offset="1" stop-color="white"/>
</linearGradient>
<linearGradient id="paint4_linear_0_630" x1="2.35948" y1="0.671916" x2="2.35948" y2="3.19708" gradientUnits="userSpaceOnUse">
<stop stop-color="white"/>
<stop offset="1" stop-color="white"/>
</linearGradient>
<linearGradient id="paint5_linear_0_630" x1="2.26885" y1="0.863226" x2="2.26885" y2="3.3884" gradientUnits="userSpaceOnUse">
<stop stop-color="white"/>
<stop offset="1" stop-color="white"/>
</linearGradient>
<linearGradient id="paint6_linear_0_630" x1="2.30155" y1="1.00977" x2="2.30155" y2="3.53489" gradientUnits="userSpaceOnUse">
<stop stop-color="white"/>
<stop offset="1" stop-color="white"/>
</linearGradient>
<linearGradient id="paint7_linear_0_630" x1="1.93956" y1="0.863226" x2="1.93956" y2="3.38835" gradientUnits="userSpaceOnUse">
<stop stop-color="white"/>
<stop offset="1" stop-color="white"/>
</linearGradient>
<linearGradient id="paint8_linear_0_630" x1="2.38148" y1="0.767619" x2="2.38148" y2="3.29278" gradientUnits="userSpaceOnUse">
<stop stop-color="white"/>
<stop offset="1" stop-color="white"/>
</linearGradient>
<linearGradient id="paint9_linear_0_630" x1="2.85018" y1="0.806641" x2="2.85018" y2="3.33181" gradientUnits="userSpaceOnUse">
<stop stop-color="white"/>
<stop offset="1" stop-color="white"/>
</linearGradient>
<linearGradient id="paint10_linear_0_630" x1="2.7836" y1="1.10352" x2="2.7836" y2="3.62859" gradientUnits="userSpaceOnUse">
<stop stop-color="white"/>
<stop offset="1" stop-color="white"/>
</linearGradient>
<linearGradient id="paint11_linear_0_630" x1="3.0904" y1="1.26758" x2="3.0904" y2="3.7927" gradientUnits="userSpaceOnUse">
<stop stop-color="white"/>
<stop offset="1" stop-color="white"/>
</linearGradient>
<linearGradient id="paint12_linear_0_630" x1="3.22514" y1="0.90625" x2="3.22514" y2="3.43141" gradientUnits="userSpaceOnUse">
<stop stop-color="white"/>
<stop offset="1" stop-color="white"/>
</linearGradient>
<linearGradient id="paint13_linear_0_630" x1="3.39624" y1="0.689453" x2="3.39624" y2="3.21458" gradientUnits="userSpaceOnUse">
<stop stop-color="white"/>
<stop offset="1" stop-color="white"/>
</linearGradient>
<linearGradient id="paint14_linear_0_630" x1="3.06276" y1="0.195394" x2="3.06276" y2="2.72052" gradientUnits="userSpaceOnUse">
<stop stop-color="white"/>
<stop offset="1" stop-color="white"/>
</linearGradient>
<linearGradient id="paint15_linear_0_630" x1="3.25076" y1="0.0546875" x2="3.25076" y2="2.57985" gradientUnits="userSpaceOnUse">
<stop stop-color="white"/>
<stop offset="1" stop-color="white"/>
</linearGradient>
<linearGradient id="paint16_linear_0_630" x1="3.96942" y1="0" x2="3.96942" y2="2.52512" gradientUnits="userSpaceOnUse">
<stop stop-color="white"/>
<stop offset="1" stop-color="white"/>
</linearGradient>
<linearGradient id="paint17_linear_0_630" x1="4.37056" y1="0.40625" x2="4.37056" y2="2.93129" gradientUnits="userSpaceOnUse">
<stop stop-color="white"/>
<stop offset="1" stop-color="white"/>
</linearGradient>
<linearGradient id="paint18_linear_0_630" x1="4.59131" y1="0.708984" x2="4.59131" y2="3.23416" gradientUnits="userSpaceOnUse">
<stop stop-color="white"/>
<stop offset="1" stop-color="white"/>
</linearGradient>
<linearGradient id="paint19_linear_0_630" x1="4.20302" y1="1.01953" x2="4.20302" y2="3.54469" gradientUnits="userSpaceOnUse">
<stop stop-color="white"/>
<stop offset="1" stop-color="white"/>
</linearGradient>
<linearGradient id="paint20_linear_0_630" x1="3.88901" y1="1.08594" x2="3.88901" y2="3.61111" gradientUnits="userSpaceOnUse">
<stop stop-color="white"/>
<stop offset="1" stop-color="white"/>
</linearGradient>
<linearGradient id="paint21_linear_0_630" x1="2.05107" y1="0.402344" x2="2.05107" y2="2.92751" gradientUnits="userSpaceOnUse">
<stop stop-color="white"/>
<stop offset="1" stop-color="white"/>
</linearGradient>
<linearGradient id="paint22_linear_0_630" x1="1.84412" y1="0.447266" x2="1.84412" y2="2.97244" gradientUnits="userSpaceOnUse">
<stop stop-color="white"/>
<stop offset="1" stop-color="white"/>
</linearGradient>
<linearGradient id="paint23_linear_0_630" x1="1.91789" y1="0.767619" x2="1.91789" y2="3.29278" gradientUnits="userSpaceOnUse">
<stop stop-color="white"/>
<stop offset="1" stop-color="white"/>
</linearGradient>
<linearGradient id="paint24_linear_0_630" x1="2.63863" y1="1.13477" x2="2.63863" y2="3.65993" gradientUnits="userSpaceOnUse">
<stop stop-color="white"/>
<stop offset="1" stop-color="white"/>
</linearGradient>
<linearGradient id="paint25_linear_0_630" x1="3.87058" y1="1.20312" x2="3.87058" y2="3.72825" gradientUnits="userSpaceOnUse">
<stop stop-color="white"/>
<stop offset="1" stop-color="white"/>
</linearGradient>
<linearGradient id="paint26_linear_0_630" x1="5.02927" y1="1.08203" x2="5.02927" y2="3.60719" gradientUnits="userSpaceOnUse">
<stop stop-color="white"/>
<stop offset="1" stop-color="white"/>
</linearGradient>
<linearGradient id="paint27_linear_0_630" x1="5.68083" y1="0.845703" x2="5.68083" y2="3.37087" gradientUnits="userSpaceOnUse">
<stop stop-color="white"/>
<stop offset="1" stop-color="white"/>
</linearGradient>
<linearGradient id="paint28_linear_0_630" x1="5.8837" y1="0.552734" x2="5.8837" y2="3.07781" gradientUnits="userSpaceOnUse">
<stop stop-color="white"/>
<stop offset="1" stop-color="white"/>
</linearGradient>
<linearGradient id="paint29_linear_0_630" x1="5.5738" y1="0.349609" x2="5.5738" y2="2.87477" gradientUnits="userSpaceOnUse">
<stop stop-color="white"/>
<stop offset="1" stop-color="white"/>
</linearGradient>
<linearGradient id="paint30_linear_0_630" x1="5.52511" y1="0.505859" x2="5.52511" y2="3.03094" gradientUnits="userSpaceOnUse">
<stop stop-color="white"/>
<stop offset="1" stop-color="white"/>
</linearGradient>
<linearGradient id="paint31_linear_0_630" x1="5.74742" y1="0.890625" x2="5.74742" y2="3.41575" gradientUnits="userSpaceOnUse">
<stop stop-color="white"/>
<stop offset="1" stop-color="white"/>
</linearGradient>
<linearGradient id="paint32_linear_0_630" x1="5.53896" y1="1.17578" x2="5.53896" y2="3.70094" gradientUnits="userSpaceOnUse">
<stop stop-color="white"/>
<stop offset="1" stop-color="white"/>
</linearGradient>
<linearGradient id="paint33_linear_0_630" x1="4.71168" y1="1.23047" x2="4.71168" y2="3.75556" gradientUnits="userSpaceOnUse">
<stop stop-color="white"/>
<stop offset="1" stop-color="white"/>
</linearGradient>
<linearGradient id="paint34_linear_0_630" x1="4.14975" y1="1.27148" x2="4.14975" y2="3.79665" gradientUnits="userSpaceOnUse">
<stop stop-color="white"/>
<stop offset="1" stop-color="white"/>
</linearGradient>
<linearGradient id="paint35_linear_0_630" x1="5.64247" y1="1.62695" x2="5.64247" y2="4.15212" gradientUnits="userSpaceOnUse">
<stop stop-color="white"/>
<stop offset="1" stop-color="white"/>
</linearGradient>
<linearGradient id="paint36_linear_0_630" x1="6.68022" y1="1.53723" x2="6.68022" y2="4.06239" gradientUnits="userSpaceOnUse">
<stop stop-color="white"/>
<stop offset="1" stop-color="white"/>
</linearGradient>
<linearGradient id="paint37_linear_0_630" x1="7.25396" y1="0.376831" x2="7.25396" y2="2.902" gradientUnits="userSpaceOnUse">
<stop stop-color="white"/>
<stop offset="1" stop-color="white"/>
</linearGradient>
<linearGradient id="paint38_linear_0_630" x1="3.81422" y1="0.566243" x2="3.81422" y2="3.09142" gradientUnits="userSpaceOnUse">
<stop stop-color="white"/>
<stop offset="1" stop-color="white"/>
</linearGradient>
<linearGradient id="paint39_linear_0_630" x1="3.61701" y1="0.126953" x2="3.61701" y2="2.65212" gradientUnits="userSpaceOnUse">
<stop stop-color="white"/>
<stop offset="1" stop-color="white"/>
</linearGradient>
<linearGradient id="paint40_linear_0_630" x1="3.47358" y1="0.453125" x2="3.47358" y2="2.9783" gradientUnits="userSpaceOnUse">
<stop stop-color="white"/>
<stop offset="1" stop-color="white"/>
</linearGradient>
<linearGradient id="paint41_linear_0_630" x1="3.5514" y1="0.789063" x2="3.5514" y2="3.31414" gradientUnits="userSpaceOnUse">
<stop stop-color="white"/>
<stop offset="1" stop-color="white"/>
</linearGradient>
<linearGradient id="paint42_linear_0_630" x1="9.81351" y1="1.04479" x2="9.81351" y2="3.56995" gradientUnits="userSpaceOnUse">
<stop stop-color="white"/>
<stop offset="1" stop-color="white"/>
</linearGradient>
<linearGradient id="paint43_linear_0_630" x1="10.1809" y1="0.642578" x2="10.1809" y2="3.16767" gradientUnits="userSpaceOnUse">
<stop stop-color="white"/>
<stop offset="1" stop-color="white"/>
</linearGradient>
<linearGradient id="paint44_linear_0_630" x1="9.75884" y1="0.341797" x2="9.75884" y2="2.86696" gradientUnits="userSpaceOnUse">
<stop stop-color="white"/>
<stop offset="1" stop-color="white"/>
</linearGradient>
<linearGradient id="paint45_linear_0_630" x1="9.52422" y1="0.269531" x2="9.52422" y2="2.79461" gradientUnits="userSpaceOnUse">
<stop stop-color="white"/>
<stop offset="1" stop-color="white"/>
</linearGradient>
</defs>
</svg>
