<svg width="423" height="109" viewBox="0 0 423 109" fill="none" xmlns="http://www.w3.org/2000/svg">
<path d="M62.2613 4.08804V1.50612C62.2613 0.64548 62.9455 0 63.7579 0C63.8435 0 63.8862 0 63.9718 0C63.9718 0 64.0145 0 64.0573 0C83.7705 3.52862 99.8062 17.6861 106.135 36.362C106.178 36.4911 106.22 36.6632 106.22 36.8354C106.22 37.696 105.536 38.3415 104.724 38.3415C104.211 38.3415 77.1424 38.3415 71.5406 38.3415C71.4978 38.3415 71.4551 38.3415 71.3696 38.3415C71.3268 38.3415 71.284 38.3415 71.2413 38.3415C70.7281 38.2554 70.3433 37.9112 70.1722 37.4378L67.5638 30.983C63.8862 21.473 62.1758 12.3932 62.2613 4.08804ZM31.2162 56.1998C31.3017 55.9846 31.3445 55.8125 31.3445 55.5973C31.3445 54.7367 30.6603 54.0912 29.8478 54.0912H1.49667C0.68419 54.0912 0 54.7797 0 55.5973V55.6403C0.384857 69.4536 5.85838 81.9759 14.5818 91.443L14.6246 91.486C14.8811 91.7872 15.266 91.9593 15.6936 91.9593C16.335 91.9593 16.8482 91.572 17.1047 91.0126L31.2162 56.1998ZM79.3233 101.383V101.34L62.2185 59.4272C62.2185 59.3841 62.2185 59.3841 62.1758 59.3841C60.9784 56.3289 57.9851 54.1342 54.4786 54.1342C51.186 54.1342 48.3637 56.0707 47.0381 58.8247L29.6767 101.383C29.5912 101.555 29.5485 101.771 29.5485 101.986C29.5485 102.545 29.8478 103.062 30.3182 103.32C30.3182 103.32 30.3609 103.363 30.4037 103.363C37.6732 106.977 45.8835 109 54.5214 109C63.202 109 71.3696 106.977 78.6391 103.363C78.6391 103.363 78.6391 103.363 78.6818 103.363C79.1522 103.105 79.4943 102.588 79.4943 102.029C79.4088 101.728 79.366 101.555 79.3233 101.383ZM109 55.6403V55.5973C109 54.7367 108.316 54.0912 107.503 54.0912H79.1522C78.297 54.0912 77.6556 54.7797 77.6556 55.5973C77.6556 55.8125 77.6983 56.0276 77.7838 56.1998L91.9808 90.9696C92.1946 91.529 92.7505 91.9163 93.3919 91.9163C93.8195 91.9163 94.1616 91.7442 94.461 91.486L94.5037 91.443C103.142 81.9759 108.615 69.4536 109 55.6403ZM4.27619 38.3845C4.70381 38.3845 31.8576 38.3845 37.4594 38.3845C37.5022 38.3845 37.5449 38.3845 37.5877 38.3845C38.1864 38.3415 38.6567 37.9542 38.8705 37.4378L41.479 30.983C45.071 21.473 46.7387 12.4362 46.6532 4.08804V1.50612C46.6532 0.64548 45.969 0 45.1565 0C45.071 0 45.0282 0 44.9427 0C44.9 0 44.9 0 44.8572 0C25.1867 3.52862 9.15104 17.6861 2.82228 36.362V36.4051C2.77952 36.5341 2.73676 36.7063 2.73676 36.8784C2.77952 37.696 3.42095 38.3845 4.27619 38.3845Z" fill="#095EC4"/>
<g clip-path="url(#clip0_15_217)">
<path d="M300.844 7.78096C302.52 7.78096 303.777 8.41496 304.662 9.68297C304.662 9.68297 304.662 9.68297 304.708 9.68297H307.828C307.874 9.68297 307.874 9.68297 307.921 9.68297C308.107 9.62533 308.247 9.45242 308.247 9.22188C308.247 9.16424 308.246 9.04897 308.2 8.99133C306.85 6.62822 303.963 5.07202 300.984 5.07202C296.375 5.07202 292.651 8.41496 292.651 12.4495C292.651 14.5821 293.535 16.4841 295.165 17.925C296.701 19.2507 298.889 20.0576 301.031 20.0576C303.963 20.0576 306.803 18.5591 308.2 16.2536C308.246 16.1959 308.247 16.0807 308.247 15.9654C308.247 15.7348 308.107 15.5043 307.921 15.5043H307.874H304.801H304.755C303.917 16.5994 302.567 17.291 301.17 17.291C298.191 17.291 296.049 15.2738 296.049 12.5072C295.956 9.74061 298.004 7.78096 300.844 7.78096Z" fill="#005BAC"/>
<path d="M392.976 13.7752C392.324 13.1412 391.114 12.3919 389.438 11.585C389.298 11.5274 389.065 11.4121 388.646 11.1815C386.831 10.317 385.946 9.5677 385.946 8.87605C385.946 8.35732 386.272 7.95386 386.877 7.66568C387.482 7.37749 388.274 7.20458 389.251 7.20458C390.089 7.20458 390.881 7.26222 391.533 7.43513C391.998 7.55041 392.417 7.72332 392.836 7.89623C392.883 7.89623 392.929 7.89623 392.929 7.89623C393.162 7.89623 393.302 7.66568 393.302 7.43513V5.53311C393.302 5.47548 393.302 5.47548 393.255 5.47548C392.557 5.30257 391.812 5.12966 391.114 5.07202C390.369 4.95675 389.624 4.89911 388.879 4.89911C386.598 4.89911 384.689 5.30257 383.246 6.05185C381.803 6.80113 381.058 7.83859 381.058 9.04896C381.058 9.74061 381.384 10.4322 381.989 11.0086C382.594 11.585 383.851 12.3343 385.713 13.2565C385.853 13.3141 386.039 13.4294 386.272 13.5446C388.134 14.4668 389.065 15.2737 389.065 15.9078C389.065 16.4265 388.739 16.8876 388.041 17.1758C387.343 17.5216 386.458 17.6945 385.387 17.6945C384.643 17.6945 383.898 17.6369 383.199 17.4639C382.641 17.3487 382.082 17.1758 381.523 16.9452C381.477 16.9452 381.477 16.9452 381.43 16.9452C381.197 16.9452 381.058 17.1758 381.058 17.4063V19.4236C381.058 19.4812 381.058 19.4812 381.104 19.4812C381.942 19.6541 382.78 19.7694 383.572 19.8847C384.41 20 385.201 20.0576 385.993 20.0576C388.413 20.0576 390.369 19.7118 391.812 18.9625C393.255 18.2132 394 17.2334 394 15.9654C394 15.1585 393.628 14.4092 392.976 13.7752Z" fill="#005BAC"/>
<path d="M194.467 5.47546H191.534C191.487 5.47546 191.487 5.47546 191.487 5.53309V8.01148L191.022 7.43511C189.812 5.87892 187.949 4.95673 185.808 4.95673C183.48 4.95673 181.525 5.76364 179.989 7.43511C178.638 8.87603 178.033 10.3746 178.033 12.4495C178.033 14.4092 178.732 16.1959 179.942 17.5792C181.385 19.1354 183.434 19.9423 185.715 19.9423C187.298 19.9423 188.974 19.3659 190.184 18.3861C190.184 18.3861 190.184 18.3861 190.231 18.3861C190.37 18.2708 190.51 18.2132 190.65 18.2132C191.115 18.2132 191.487 18.6743 191.534 19.2507V19.3659C191.534 19.4236 191.534 19.4236 191.581 19.4236H194.514C194.56 19.4236 194.56 19.4236 194.56 19.3659V5.53309C194.514 5.47546 194.514 5.47546 194.467 5.47546ZM190.417 15.4466C189.532 16.5994 188.089 17.2334 186.46 17.2334H186.413H186.366C184.737 17.2334 183.247 16.5417 182.316 15.3314C181.711 14.5244 181.385 13.6023 181.385 12.6224C181.385 11.4697 181.711 10.4322 182.363 9.62531C183.294 8.41494 184.737 7.78093 186.413 7.78093H186.553C188.136 7.78093 189.579 8.41494 190.463 9.56768C191.115 10.3746 191.441 11.4121 191.441 12.4495C191.394 13.6023 191.068 14.5821 190.417 15.4466Z" fill="#005BAC"/>
<path d="M239.997 5.47546H237.064C237.018 5.47546 237.018 5.47546 237.018 5.53309V8.01148L236.552 7.43511C235.342 5.87892 233.48 4.95673 231.338 4.95673C229.011 4.95673 227.055 5.76364 225.519 7.43511C224.169 8.87603 223.564 10.3746 223.564 12.4495C223.564 14.4092 224.262 16.1959 225.472 17.5792C226.916 19.1354 228.964 19.9423 231.245 19.9423C232.781 19.9423 234.504 19.3659 235.714 18.3861C235.714 18.3861 235.714 18.3861 235.761 18.3861C235.901 18.2708 236.04 18.2132 236.18 18.2132C236.645 18.2132 237.018 18.6743 237.064 19.2507V19.3659C237.064 19.4236 237.064 19.4236 237.111 19.4236H240.044C240.091 19.4236 240.091 19.4236 240.091 19.3659V5.53309C240.044 5.47546 239.997 5.47546 239.997 5.47546ZM235.901 15.4466C235.016 16.5994 233.573 17.2334 231.943 17.2334H231.897H231.85C230.221 17.2334 228.731 16.5417 227.8 15.3314C227.195 14.5244 226.869 13.6023 226.869 12.6224C226.869 11.4697 227.195 10.4322 227.847 9.62531C228.778 8.41494 230.221 7.78093 231.897 7.78093H232.037C233.619 7.78093 235.063 8.41494 235.947 9.56768C236.599 10.3746 236.925 11.4121 236.925 12.4495C236.878 13.6023 236.552 14.5821 235.901 15.4466Z" fill="#005BAC"/>
<path d="M175.24 5.47546H172.028C171.981 5.47546 171.981 5.47546 171.981 5.5331V12.3343C171.981 13.5446 171.981 17.1758 167.931 17.1758C166.488 17.1758 165.231 16.5417 164.579 15.5043C164.02 14.6397 163.974 13.4294 163.974 12.2766V5.5331C163.974 5.47546 163.974 5.47546 163.927 5.47546H160.715C160.668 5.47546 160.668 5.47546 160.668 5.5331V13.4294C160.668 15.389 161.274 17.0028 162.298 17.9827C163.788 19.366 165.37 19.9423 167.372 19.9423C168.443 19.9423 169.979 19.7118 171.236 18.559C171.329 18.5014 171.469 18.4438 171.609 18.4438C172.028 18.4438 172.354 18.9049 172.354 19.4236C172.354 19.4812 172.354 19.4812 172.4 19.4812H175.24C175.287 19.4812 175.287 19.4812 175.287 19.4236V5.5331C175.287 5.47546 175.24 5.47546 175.24 5.47546Z" fill="#005BAC"/>
<path d="M210.715 6.974C209.225 5.59071 207.642 5.01434 205.64 5.01434C204.569 5.01434 203.033 5.24489 201.776 6.39763C201.683 6.5129 201.543 6.5129 201.404 6.5129C200.985 6.5129 200.659 6.05181 200.659 5.53308C200.659 5.47544 200.659 5.47544 200.612 5.47544H197.772C197.726 5.47544 197.726 5.47544 197.726 5.53308V19.4812C197.726 19.5388 197.726 19.5388 197.772 19.5388H200.985C201.031 19.5388 201.031 19.5388 201.031 19.4812V12.6224C201.031 11.412 201.031 7.78091 205.081 7.78091C206.525 7.78091 207.782 8.41492 208.433 9.45238C208.992 10.3169 209.039 11.5273 209.039 12.68V19.4812C209.039 19.5388 209.039 19.5388 209.085 19.5388H212.297C212.344 19.5388 212.344 19.5388 212.344 19.4812V11.5273C212.297 9.62529 211.739 7.95382 210.715 6.974Z" fill="#005BAC"/>
<path d="M222.167 5.47546H219.886V0.633961C219.886 0.576324 219.886 0.576324 219.839 0.576324H216.58C216.534 0.576324 216.534 0.576324 216.534 0.633961V5.47546H214.672C214.625 5.47546 214.625 5.47546 214.625 5.5331V7.83857C214.625 7.89621 214.625 7.89621 214.672 7.89621H216.534V19.4236C216.534 19.4812 216.534 19.4812 216.58 19.4812H219.839C219.886 19.4812 219.886 19.4812 219.886 19.4236V7.89621H222.167C222.214 7.89621 222.214 7.89621 222.214 7.83857V5.5331C222.214 5.47546 222.214 5.47546 222.167 5.47546Z" fill="#005BAC"/>
<path d="M353.498 5.47546H351.216V0.633961C351.216 0.576324 351.216 0.576324 351.17 0.576324H347.911C347.864 0.576324 347.864 0.576324 347.864 0.633961V5.47546H346.002C345.956 5.47546 345.956 5.47546 345.956 5.5331V7.83857C345.956 7.89621 345.956 7.89621 346.002 7.89621H347.864V19.4236C347.864 19.4812 347.864 19.4812 347.911 19.4812H351.17C351.216 19.4812 351.216 19.4812 351.216 19.4236V7.89621H353.498C353.544 7.89621 353.544 7.89621 353.544 7.83857V5.5331C353.544 5.47546 353.544 5.47546 353.498 5.47546Z" fill="#005BAC"/>
<path d="M160.156 0.576324H160.11H156.758H156.711C156.432 1.03742 153.127 6.10947 152.521 7.03166C152.195 7.49275 151.73 7.7233 151.264 7.7233C150.706 7.7233 150.24 7.43511 149.914 6.91638C148.099 4.14981 146.05 0.922146 145.817 0.576324H145.771H142.372H142.326C142.14 0.576324 142 0.806872 142 1.03742C142 1.09506 142 1.15269 142.047 1.21033C142.047 1.21033 142.047 1.26797 142.093 1.26797L149.309 12.4495V19.4236C149.309 19.4812 149.309 19.4812 149.356 19.4812H153.173C153.22 19.4812 153.22 19.4812 153.22 19.4236V12.5072L160.436 1.3256C160.436 1.3256 160.436 1.3256 160.482 1.26797C160.529 1.21033 160.529 1.09506 160.529 1.03742C160.529 0.806872 160.343 0.576324 160.156 0.576324Z" fill="#005BAC"/>
<path d="M336.133 5.01434H335.9C334.317 5.01434 333.293 5.53308 332.455 6.74345H332.408V5.53308C332.408 5.47544 332.408 5.47544 332.362 5.47544H329.196C329.149 5.47544 329.149 5.47544 329.149 5.53308V19.4812C329.149 19.5388 329.149 19.5388 329.196 19.5388H332.734C332.781 19.5388 332.781 19.5388 332.781 19.4812V12.046C332.734 10.778 332.827 9.7982 333.898 8.99129C334.503 8.58783 335.341 8.35728 336.179 8.29965C336.226 8.29965 336.226 8.29965 336.226 8.24201V5.07198C336.179 5.01434 336.179 5.01434 336.133 5.01434Z" fill="#005BAC"/>
<path d="M342.837 5.47546H339.578C339.531 5.47546 339.531 5.47546 339.531 5.5331V19.4812C339.531 19.5389 339.531 19.5389 339.578 19.5389H342.837C342.883 19.5389 342.883 19.5389 342.883 19.4812V5.5331C342.883 5.47546 342.883 5.47546 342.837 5.47546Z" fill="#005BAC"/>
<path d="M360.108 5.47546H356.849C356.803 5.47546 356.803 5.47546 356.803 5.5331V19.4812C356.803 19.5389 356.803 19.5389 356.849 19.5389H360.108C360.155 19.5389 360.155 19.5389 360.155 19.4812V5.5331C360.155 5.47546 360.155 5.47546 360.108 5.47546Z" fill="#005BAC"/>
<path d="M325.751 5.47546H322.539C322.492 5.47546 322.492 5.47546 322.492 5.5331V12.3343C322.492 13.5446 322.492 17.1758 318.442 17.1758C316.999 17.1758 315.742 16.5417 315.09 15.5043C314.531 14.6397 314.485 13.4294 314.485 12.2766V5.5331C314.485 5.47546 314.485 5.47546 314.438 5.47546H311.226C311.179 5.47546 311.179 5.47546 311.179 5.5331V13.4294C311.179 15.389 311.785 17.0028 312.809 17.9827C314.299 19.366 315.881 19.9423 317.883 19.9423C318.954 19.9423 320.49 19.7118 321.747 18.559C321.84 18.4438 321.98 18.4438 322.12 18.4438C322.539 18.4438 322.865 18.9049 322.865 19.4236C322.865 19.4812 322.865 19.4812 322.911 19.4812H325.751C325.798 19.4812 325.797 19.4812 325.797 19.4236V5.5331C325.797 5.5331 325.798 5.47546 325.751 5.47546Z" fill="#005BAC"/>
<path d="M270.537 11.9884C269.699 11.1815 268.256 10.317 266.208 9.39476C266.208 9.39476 265.742 9.22185 265.509 9.10658H265.463C262.064 7.60802 260.295 6.34001 260.295 5.24491C260.295 4.49563 260.761 3.86162 261.645 3.40053C262.53 2.93943 263.74 2.70888 265.23 2.70888C266.068 2.70888 266.953 2.76652 267.837 2.93943C268.582 3.0547 269.327 3.28525 270.072 3.5158C270.118 3.5158 270.118 3.5158 270.165 3.5158C270.398 3.5158 270.537 3.28525 270.537 3.0547V1.09505C270.537 1.09505 270.537 1.03741 270.491 1.03741C269.513 0.691592 268.535 0.461045 267.465 0.288134C266.44 0.115224 265.37 0.0575867 264.299 0.0575867C261.785 0.0575867 259.69 0.576319 258.014 1.49851C256.292 2.47834 255.454 3.74635 255.454 5.18727C255.454 6.22473 255.873 7.14692 256.71 7.95384C257.548 8.76076 259.038 9.62531 261.133 10.6051L262.018 11.0086C265.23 12.4495 266.859 13.7752 266.859 14.8703C266.859 15.6195 266.44 16.2536 265.602 16.7146C264.764 17.1757 263.601 17.4063 262.157 17.4063C261.319 17.4063 260.435 17.291 259.504 17.1181C258.666 16.9452 257.781 16.7146 256.85 16.4265C256.804 16.4265 256.804 16.4265 256.757 16.4265C256.664 16.4265 256.571 16.4841 256.478 16.5417C256.385 16.657 256.385 16.7723 256.385 16.8876V18.9048C256.385 18.9048 256.385 18.9625 256.431 18.9625C257.455 19.3083 258.48 19.5965 259.597 19.7118C260.621 19.8847 261.645 19.9423 262.623 19.9423C265.323 19.9423 267.558 19.4812 269.28 18.5014C271.003 17.5216 271.887 16.3112 271.887 14.755C271.841 13.7752 271.375 12.7953 270.537 11.9884Z" fill="#005BAC"/>
<path d="M282.316 4.84146C277.567 4.84146 273.796 8.1844 273.796 12.4495C273.796 16.5417 277.614 20 282.129 20C285.342 20 288.228 18.3861 289.671 15.7925V15.7348C289.718 15.6772 289.718 15.5619 289.718 15.5043C289.718 15.2161 289.532 15.0432 289.345 15.0432H286.226H286.18C285.295 16.2536 283.805 17.0028 282.129 17.0028C279.429 17.0028 277.334 14.9856 277.334 12.4495C277.334 11.1815 277.8 10.0864 278.731 9.22186C279.569 8.35731 280.919 7.83858 282.129 7.83858C283.945 7.83858 285.574 8.76077 286.412 10.2017H280.779C280.547 10.2017 280.407 10.4322 280.407 10.6628C280.407 10.7204 280.407 10.7204 280.407 10.7781C280.64 11.9884 281.431 12.853 282.409 12.853H289.951H290.183C290.276 12.853 290.37 12.7954 290.463 12.7377C290.556 12.6224 290.556 12.5072 290.556 12.3919C290.509 8.24204 286.831 4.84146 282.316 4.84146Z" fill="#005BAC"/>
<path d="M371.142 4.84146C366.393 4.84146 362.622 8.1844 362.622 12.4495C362.622 16.5417 366.44 20 370.955 20C374.168 20 377.054 18.3861 378.497 15.7925V15.7348C378.544 15.6772 378.544 15.5619 378.544 15.5043C378.544 15.2161 378.358 15.0432 378.171 15.0432H375.052H375.006C374.121 16.2536 372.631 17.0028 370.955 17.0028C368.255 17.0028 366.16 14.9856 366.16 12.4495C366.16 11.1815 366.626 10.0864 367.557 9.22186C368.395 8.35731 369.745 7.83858 370.955 7.83858C372.771 7.83858 374.4 8.76077 375.238 10.2017H369.605C369.373 10.2017 369.233 10.4322 369.233 10.6628C369.233 10.7204 369.233 10.7204 369.233 10.7781C369.466 11.9884 370.257 12.853 371.235 12.853H378.777H379.009C379.103 12.853 379.196 12.7954 379.289 12.7377C379.382 12.6224 379.382 12.5072 379.382 12.3919C379.335 8.24204 375.611 4.84146 371.142 4.84146Z" fill="#005BAC"/>
</g>
<g clip-path="url(#clip1_15_217)">
<rect width="74" height="75" transform="translate(142 34)" fill="#005BAC"/>
<path d="M411 35.5C416.799 35.5 421.5 40.201 421.5 46V97C421.5 102.799 416.799 107.5 411 107.5H214.5V35.5H411Z" stroke="#005BAC" stroke-width="3"/>
<path d="M239.588 55.8H245.016V88H239.588V55.8ZM242.808 60.584V55.8H249.294C251.625 55.8 253.649 56.214 255.366 57.042C257.114 57.8393 258.463 58.9893 259.414 60.492C260.365 61.964 260.84 63.7273 260.84 65.782C260.84 67.8367 260.365 69.6153 259.414 71.118C258.463 72.6207 257.114 73.786 255.366 74.614C253.649 75.4113 251.625 75.81 249.294 75.81H242.808V71.026H249.294C251.165 71.026 252.667 70.5813 253.802 69.692C254.937 68.8027 255.504 67.4993 255.504 65.782C255.504 64.0647 254.937 62.7767 253.802 61.918C252.667 61.0287 251.165 60.584 249.294 60.584H242.808ZM270.092 71.9C270.092 74.108 270.552 76.086 271.472 77.834C272.422 79.5513 273.726 80.9007 275.382 81.882C277.038 82.8633 278.924 83.354 281.04 83.354C283.186 83.354 285.072 82.8633 286.698 81.882C288.354 80.9007 289.642 79.5513 290.562 77.834C291.512 76.086 291.988 74.108 291.988 71.9C291.988 69.692 291.528 67.7293 290.608 66.012C289.688 64.264 288.4 62.8993 286.744 61.918C285.118 60.9367 283.217 60.446 281.04 60.446C278.924 60.446 277.038 60.9367 275.382 61.918C273.726 62.8993 272.422 64.264 271.472 66.012C270.552 67.7293 270.092 69.692 270.092 71.9ZM264.342 71.9C264.342 69.4773 264.756 67.254 265.584 65.23C266.412 63.206 267.577 61.458 269.08 59.986C270.613 58.4833 272.392 57.318 274.416 56.49C276.47 55.662 278.678 55.248 281.04 55.248C283.462 55.248 285.686 55.662 287.71 56.49C289.734 57.318 291.497 58.4833 293 59.986C294.533 61.458 295.714 63.206 296.542 65.23C297.37 67.254 297.784 69.4773 297.784 71.9C297.784 74.292 297.37 76.5153 296.542 78.57C295.714 80.6247 294.548 82.4033 293.046 83.906C291.543 85.4087 289.764 86.5893 287.71 87.448C285.686 88.276 283.462 88.69 281.04 88.69C278.648 88.69 276.424 88.276 274.37 87.448C272.315 86.5893 270.536 85.4087 269.034 83.906C267.562 82.4033 266.412 80.6247 265.584 78.57C264.756 76.5153 264.342 74.292 264.342 71.9ZM309.687 72.636H315.575L326.477 88H319.945L309.687 72.636ZM303.063 55.8H308.491V88H303.063V55.8ZM306.283 60.492V55.8H312.999C315.329 55.8 317.353 56.214 319.071 57.042C320.819 57.87 322.168 59.0353 323.119 60.538C324.069 62.01 324.545 63.758 324.545 65.782C324.545 67.806 324.069 69.5693 323.119 71.072C322.168 72.5747 320.819 73.74 319.071 74.568C317.353 75.396 315.329 75.81 312.999 75.81H306.283V71.348H312.769C313.995 71.348 315.069 71.1333 315.989 70.704C316.939 70.2747 317.675 69.6613 318.197 68.864C318.718 68.036 318.979 67.0547 318.979 65.92C318.979 64.7547 318.718 63.7733 318.197 62.976C317.675 62.1787 316.939 61.5653 315.989 61.136C315.069 60.7067 313.995 60.492 312.769 60.492H306.283ZM327.2 60.814V55.8H349.648V60.814H341.138V88H335.664V60.814H327.2ZM352.882 79.72L353.894 75.12H368.844L369.902 79.72H352.882ZM361.3 64.908L356.24 76.73L356.148 77.926L351.686 88H345.568L361.3 54.006L377.032 88H370.914L366.544 78.202L366.406 76.868L361.3 64.908ZM380.777 55.8H386.205V83.124H398.993V88H380.777V55.8Z" fill="#005BAC"/>
<path d="M156.7 55H165.3V90H156.7V55ZM179.916 72.5C179.916 74.6333 180.399 76.4833 181.366 78.05C182.332 79.5833 183.599 80.75 185.166 81.55C186.766 82.35 188.516 82.75 190.416 82.75C192.082 82.75 193.549 82.5333 194.816 82.1C196.082 81.6667 197.216 81.1 198.216 80.4C199.216 79.7 200.099 78.95 200.866 78.15V87.25C199.466 88.35 197.932 89.2167 196.266 89.85C194.599 90.4833 192.482 90.8 189.916 90.8C187.116 90.8 184.532 90.3667 182.166 89.5C179.799 88.6333 177.766 87.3833 176.066 85.75C174.366 84.1167 173.049 82.1833 172.116 79.95C171.182 77.7167 170.716 75.2333 170.716 72.5C170.716 69.7667 171.182 67.2833 172.116 65.05C173.049 62.8167 174.366 60.8833 176.066 59.25C177.766 57.6167 179.799 56.3667 182.166 55.5C184.532 54.6333 187.116 54.2 189.916 54.2C192.482 54.2 194.599 54.5167 196.266 55.15C197.932 55.7833 199.466 56.65 200.866 57.75V66.85C200.099 66.05 199.216 65.3 198.216 64.6C197.216 63.8667 196.082 63.3 194.816 62.9C193.549 62.4667 192.082 62.25 190.416 62.25C188.516 62.25 186.766 62.65 185.166 63.45C183.599 64.25 182.332 65.4167 181.366 66.95C180.399 68.4833 179.916 70.3333 179.916 72.5Z" fill="white"/>
</g>
<defs>
<clipPath id="clip0_15_217">
<rect width="252" height="20" fill="white" transform="translate(142)"/>
</clipPath>
<clipPath id="clip1_15_217">
<rect x="142" y="34" width="281" height="75" rx="12" fill="white"/>
</clipPath>
</defs>
</svg>
