<svg xmlns="http://www.w3.org/2000/svg" viewBox="0 0 900 380" font-family="Arial, Helvetica, sans-serif"><rect width="900" height="380" fill="white"/><text x="60" y="28" font-size="22" font-weight="700" fill="#1e2937">Revenue Growth by Segment / Technology</text><rect x="60" y="38" width="12" height="12" fill="#f3e2c9"/><text x="78" y="48" font-size="12" fill="#4b5563">Q3 2025</text><rect x="142.2" y="38" width="12" height="12" fill="#e8c9a3"/><text x="160.2" y="48" font-size="12" fill="#4b5563">Q4 2025</text><rect x="224.39999999999998" y="38" width="12" height="12" fill="#d9a876"/><text x="242.39999999999998" y="48" font-size="12" fill="#4b5563">Q1 2026</text><rect x="306.59999999999997" y="38" width="12" height="12" fill="#c17f4a"/><text x="324.59999999999997" y="48" font-size="12" fill="#4b5563">Q2 2026</text><line x1="60" y1="330" x2="880" y2="330" stroke="#e5e7eb" stroke-width="1"/><text x="52" y="334" font-size="11" fill="#6b7280" text-anchor="end">0%</text><line x1="60" y1="265" x2="880" y2="265" stroke="#e5e7eb" stroke-width="1"/><text x="52" y="269" font-size="11" fill="#6b7280" text-anchor="end">200%</text><line x1="60" y1="200" x2="880" y2="200" stroke="#e5e7eb" stroke-width="1"/><text x="52" y="204" font-size="11" fill="#6b7280" text-anchor="end">400%</text><line x1="60" y1="135" x2="880" y2="135" stroke="#e5e7eb" stroke-width="1"/><text x="52" y="139" font-size="11" fill="#6b7280" text-anchor="end">600%</text><line x1="60" y1="70" x2="880" y2="70" stroke="#e5e7eb" stroke-width="1"/><text x="52" y="74" font-size="11" fill="#6b7280" text-anchor="end">800%</text><rect x="60.0" y="304.0" width="33.1" height="26.0" fill="#f3e2c9"/><rect x="96.2" y="271.5" width="33.1" height="58.5" fill="#e8c9a3"/><rect x="132.3" y="213.0" width="33.1" height="117.0" fill="#d9a876"/><rect x="168.4" y="117.8" width="33.1" height="212.2" fill="#c17f4a"/><text x="185.0" y="109.8" font-size="13" font-weight="700" fill="#1e2937" text-anchor="middle">653%</text><text x="130.8" y="352" font-size="13" font-weight="600" fill="#1e2937" text-anchor="middle">HBM</text><rect x="229.6" y="323.5" width="33.1" height="6.5" fill="#f3e2c9"/><rect x="265.8" y="315.4" width="33.1" height="14.6" fill="#e8c9a3"/><rect x="301.9" y="300.8" width="33.1" height="29.3" fill="#d9a876"/><rect x="338.0" y="276.4" width="33.1" height="53.6" fill="#c17f4a"/><text x="354.6" y="268.4" font-size="13" font-weight="700" fill="#1e2937" text-anchor="middle">165%</text><text x="300.4" y="352" font-size="13" font-weight="600" fill="#1e2937" text-anchor="middle">DRAM</text><text x="300.4" y="368" font-size="13" font-weight="600" fill="#1e2937" text-anchor="middle">Commodity</text><rect x="399.2" y="326.8" width="33.1" height="3.3" fill="#f3e2c9"/><rect x="435.3" y="322.9" width="33.1" height="7.1" fill="#e8c9a3"/><rect x="471.5" y="314.4" width="33.1" height="15.6" fill="#d9a876"/><rect x="507.6" y="300.1" width="33.1" height="29.9" fill="#c17f4a"/><text x="524.2" y="292.1" font-size="13" font-weight="700" fill="#1e2937" text-anchor="middle">92%</text><text x="470.0" y="352" font-size="13" font-weight="600" fill="#1e2937" text-anchor="middle">NAND</text><rect x="568.8" y="325.1" width="33.1" height="4.9" fill="#f3e2c9"/><rect x="604.9" y="320.3" width="33.1" height="9.8" fill="#e8c9a3"/><rect x="641.1" y="307.3" width="33.1" height="22.8" fill="#d9a876"/><rect x="677.3" y="288.4" width="33.1" height="41.6" fill="#c17f4a"/><text x="693.8" y="280.4" font-size="13" font-weight="700" fill="#1e2937" text-anchor="middle">128%</text><text x="639.6" y="352" font-size="13" font-weight="600" fill="#1e2937" text-anchor="middle">Foundry</text><text x="639.6" y="368" font-size="13" font-weight="600" fill="#1e2937" text-anchor="middle">Equipment</text><rect x="738.4" y="327.4" width="33.1" height="2.6" fill="#f3e2c9"/><rect x="774.5" y="324.1" width="33.1" height="5.9" fill="#e8c9a3"/><rect x="810.7" y="318.6" width="33.1" height="11.4" fill="#d9a876"/><rect x="846.8" y="310.2" width="33.1" height="19.8" fill="#c17f4a"/><text x="863.4" y="302.2" font-size="13" font-weight="700" fill="#1e2937" text-anchor="middle">61%</text><text x="809.2" y="352" font-size="13" font-weight="600" fill="#1e2937" text-anchor="middle">Test &amp;</text><text x="809.2" y="368" font-size="13" font-weight="600" fill="#1e2937" text-anchor="middle">Assembly</text></svg>